<?xml version="1.0" encoding="UTF-8" standalone="no"?>
<!-- Created with Inkscape (http://www.inkscape.org/) -->

<svg
   xmlns:dc="http://purl.org/dc/elements/1.1/"
   xmlns:cc="http://creativecommons.org/ns#"
   xmlns:rdf="http://www.w3.org/1999/02/22-rdf-syntax-ns#"
   xmlns:svg="http://www.w3.org/2000/svg"
   xmlns="http://www.w3.org/2000/svg"
   xmlns:sodipodi="http://sodipodi.sourceforge.net/DTD/sodipodi-0.dtd"
   xmlns:inkscape="http://www.inkscape.org/namespaces/inkscape"
   width="210mm"
   height="297mm"
   viewBox="0 0 210 297"
   version="1.1"
   id="svg8"
   inkscape:version="0.92.4 (5da689c313, 2019-01-14)"
   sodipodi:docname="batterie_danger.svg"
   inkscape:export-filename="D:\EPSA\GIT\Ressources2020\EL_Electrical\Dashboard controller\Screen design\logos svg\batterie_danger.png"
   inkscape:export-xdpi="17.763578"
   inkscape:export-ydpi="17.763578">
  <defs
     id="defs2" />
  <sodipodi:namedview
     id="base"
     pagecolor="#ffffff"
     bordercolor="#666666"
     borderopacity="1.0"
     inkscape:pageopacity="0.0"
     inkscape:pageshadow="2"
     inkscape:zoom="0.9899495"
     inkscape:cx="140.2965"
     inkscape:cy="639.20404"
     inkscape:document-units="mm"
     inkscape:current-layer="layer1"
     showgrid="false"
     inkscape:window-width="1920"
     inkscape:window-height="1001"
     inkscape:window-x="-9"
     inkscape:window-y="-9"
     inkscape:window-maximized="1" />
  <metadata
     id="metadata5">
    <rdf:RDF>
      <cc:Work
         rdf:about="">
        <dc:format>image/svg+xml</dc:format>
        <dc:type
           rdf:resource="http://purl.org/dc/dcmitype/StillImage" />
        <dc:title></dc:title>
      </cc:Work>
    </rdf:RDF>
  </metadata>
  <g
     inkscape:label="Calque 1"
     inkscape:groupmode="layer"
     id="layer1">
    <path
       style="fill:none;stroke:#000000;stroke-width:0.26458332px;stroke-linecap:butt;stroke-linejoin:miter;stroke-opacity:1"
       d="M 57.284689,110.77091 V 57.854252 h 9.827383 v -3.77977 h 9.827379"
       id="path1368"
       inkscape:connector-curvature="0"
       sodipodi:nodetypes="ccccc" />
    <path
       style="fill:none;stroke:#000000;stroke-width:0.26458332px;stroke-linecap:butt;stroke-linejoin:miter;stroke-opacity:1"
       d="m 76.939451,54.074482 v 3.77976"
       id="path1370"
       inkscape:connector-curvature="0" />
    <path
       style="fill:none;stroke:#000000;stroke-width:0.22859737px;stroke-linecap:butt;stroke-linejoin:miter;stroke-opacity:1"
       d="M 76.939451,57.854242 H 91.964005"
       id="path1372"
       inkscape:connector-curvature="0" />
    <path
       style="fill:none;stroke:#000000;stroke-width:0.26458332px;stroke-linecap:butt;stroke-linejoin:miter;stroke-opacity:1"
       d="M 57.284689,110.77091 H 93.759393"
       id="path1374"
       inkscape:connector-curvature="0" />
    <path
       style="fill:none;stroke:#000000;stroke-width:0.26458332px;stroke-linecap:butt;stroke-linejoin:miter;stroke-opacity:1"
       d="M 126.64332,110.77091 V 57.854252 h -9.82739 v -3.77977 h -9.82738"
       id="path1368-0"
       inkscape:connector-curvature="0"
       sodipodi:nodetypes="ccccc" />
    <path
       style="fill:none;stroke:#000000;stroke-width:0.26458332px;stroke-linecap:butt;stroke-linejoin:miter;stroke-opacity:1"
       d="m 106.98855,54.074482 v 3.77976"
       id="path1370-6"
       inkscape:connector-curvature="0" />
    <path
       style="fill:none;stroke:#000000;stroke-width:0.22859737px;stroke-linecap:butt;stroke-linejoin:miter;stroke-opacity:1"
       d="M 106.98855,57.854242 H 91.964005"
       id="path1372-7"
       inkscape:connector-curvature="0" />
    <path
       style="fill:none;stroke:#000000;stroke-width:0.25122243px;stroke-linecap:butt;stroke-linejoin:miter;stroke-opacity:1"
       d="M 126.64332,110.77091 H 93.759393"
       id="path1374-2"
       inkscape:connector-curvature="0" />
    <flowRoot
       xml:space="preserve"
       id="flowRoot1424"
       style="fill:black;fill-opacity:1;stroke:none;font-family:sans-serif;font-style:normal;font-weight:normal;font-size:21.33333333px;line-height:1.25;letter-spacing:0px;word-spacing:0px"><flowRegion
         id="flowRegion1426"><rect
           id="rect1428"
           width="178.797"
           height="123.23861"
           x="243.95184"
           y="649.76831" /></flowRegion><flowPara
         id="flowPara1430" /></flowRoot>    <flowRoot
       xml:space="preserve"
       id="flowRoot1432"
       style="fill:black;fill-opacity:1;stroke:none;font-family:sans-serif;font-style:normal;font-weight:bold;font-size:21.33333333px;line-height:1.25;letter-spacing:0px;word-spacing:0px;-inkscape-font-specification:'sans-serif Bold';font-stretch:normal;font-variant:normal;"><flowRegion
         id="flowRegion1434"
         style="-inkscape-font-specification:'sans-serif Bold';font-family:sans-serif;font-weight:bold;font-style:normal;font-stretch:normal;font-variant:normal;"><rect
           id="rect1436"
           width="239.91122"
           height="181.32239"
           x="205.56604"
           y="613.9079"
           style="-inkscape-font-specification:'sans-serif Bold';font-family:sans-serif;font-weight:bold;font-style:normal;font-stretch:normal;font-variant:normal;" /></flowRegion><flowPara
         id="flowPara1438" /></flowRoot>    <text
       xml:space="preserve"
       style="font-style:normal;font-weight:normal;font-size:5.64444447px;line-height:1.25;font-family:sans-serif;letter-spacing:0px;word-spacing:0px;fill:#000000;fill-opacity:1;stroke:none;stroke-width:0.26458332;"
       x="74.16729"
       y="102.82868"
       id="text1442"><tspan
         sodipodi:role="line"
         id="tspan1440"
         x="74.16729"
         y="102.82868"
         style="font-size:50.79999924px;stroke-width:0.26458332;fill:#000000;fill-opacity:1;">V</tspan></text>
    <rect
       style="fill:#000000;fill-opacity:1;stroke:none;stroke-width:1.83180535;stroke-linecap:round;stroke-linejoin:round;stroke-miterlimit:4;stroke-dasharray:none;stroke-dashoffset:0;stroke-opacity:1"
       id="rect2165"
       width="71.360962"
       height="57.195686"
       x="56.393871"
       y="53.784729" />
    <path
       style="fill:#ffffff;fill-opacity:1;stroke:none;stroke-width:3.0304575;stroke-linecap:round;stroke-linejoin:round;stroke-miterlimit:4;stroke-dasharray:none;stroke-dashoffset:0;stroke-opacity:1"
       d="M 57.646415,84.20542 V 58.013006 h 4.81085 4.810853 v -1.870885 -1.870887 h 4.677216 4.677217 v 1.870887 1.870885 h 15.367997 15.368002 v -1.870885 -1.870887 h 4.54358 4.54358 v 1.870887 1.870885 h 4.94449 4.94448 V 84.20542 110.39783 H 91.990548 57.646415 Z m 43.276745,2.203434 c 3.29595,-9.076293 6.33154,-17.434454 6.74574,-18.573692 l 0.75311,-2.071338 h -2.6329 -2.63289 l -5.716472,16.013872 c -3.144057,8.807629 -5.767163,15.96319 -5.829117,15.901249 -0.06196,-0.06194 -2.652798,-7.238119 -5.757418,-15.947057 l -5.644769,-15.834431 -2.762105,-0.07654 c -2.543656,-0.07049 -2.751476,-0.03878 -2.627709,0.400905 0.118801,0.422042 12.705434,35.042338 13.169953,36.224738 0.161549,0.41122 0.591976,0.46754 3.562839,0.46619 l 3.379092,-0.002 5.992646,-16.502358 z"
       id="path2167"
       inkscape:connector-curvature="0" />
    <path
       style="fill:#ff0000;fill-opacity:1;stroke:none;stroke-width:11.45369816;stroke-linecap:round;stroke-linejoin:round;stroke-miterlimit:4;stroke-dasharray:none;stroke-dashoffset:0;stroke-opacity:1"
       d="m 217.87622,318.25672 v -98.99495 h 18.18274 18.18275 v -7.07107 -7.07107 h 17.67767 17.67767 v 7.07107 7.07107 h 58.08377 58.08377 v -7.07107 -7.07107 h 17.17259 17.17259 v 7.07107 7.07107 h 18.68783 18.68782 v 98.99495 98.99494 h -129.8046 -129.8046 z m 166.76992,1.01705 c 13.83748,-38.0537 25.15906,-69.54848 25.15906,-69.9884 0,-0.43992 -4.63046,-0.67031 -10.28991,-0.51198 l -10.28991,0.28788 -9.38817,26.26396 c -25.51572,71.38179 -33.01187,91.47247 -33.82605,90.65828 -0.72566,-0.72565 -42.27198,-115.73988 -42.27198,-117.0231 0,-0.22232 -4.77297,-0.40422 -10.6066,-0.40422 -8.0531,0 -10.6066,0.31753 -10.6066,1.31894 0,1.33631 48.85883,136.23154 50.02807,138.12342 0.39194,0.63417 5.65928,0.9189 13.78369,0.74508 l 13.14932,-0.28131 z"
       id="path2169"
       inkscape:connector-curvature="0"
       transform="scale(0.26458333)" />
    <path
       style="fill:#d45500;fill-opacity:1;stroke:none;stroke-width:11.45369816;stroke-linecap:round;stroke-linejoin:round;stroke-miterlimit:4;stroke-dasharray:none;stroke-dashoffset:0;stroke-opacity:1"
       d="m 217.87622,318.25672 v -98.99495 h 18.18274 18.18275 v -7.07107 -7.07107 h 17.67767 17.67767 v 7.07107 7.07107 h 58.08377 58.08377 v -7.07107 -7.07107 h 17.17259 17.17259 v 7.07107 7.07107 h 18.68783 18.68782 v 98.99495 98.99494 h -129.8046 -129.8046 z m 156.51123,30.55176 c 28.37129,-78.09886 35.39695,-97.7408 35.40729,-98.9896 0.008,-0.92934 -2.74436,-1.26269 -10.42432,-1.26269 h -10.43477 l -8.38845,23.48605 c -23.3524,65.38232 -33.19689,91.67134 -34.32827,91.67134 -0.42897,0 -2.39064,-4.43204 -4.35927,-9.84899 -14.62793,-40.25071 -35.11162,-97.47375 -36.15965,-101.01525 l -1.27047,-4.29315 h -11.07805 -11.07805 l 0.57312,2.86561 c 0.51939,2.59694 23.70783,67.32755 42.12608,117.59508 l 7.30996,19.95051 13.76002,-0.005 13.76003,-0.005 14.5848,-40.14821 z"
       id="path2171"
       inkscape:connector-curvature="0"
       transform="scale(0.26458333)" />
  </g>
</svg>
