<?xml version="1.0" encoding="UTF-8" standalone="no"?>
<!-- Created with Inkscape (http://www.inkscape.org/) -->

<svg
   xmlns:dc="http://purl.org/dc/elements/1.1/"
   xmlns:cc="http://creativecommons.org/ns#"
   xmlns:rdf="http://www.w3.org/1999/02/22-rdf-syntax-ns#"
   xmlns:svg="http://www.w3.org/2000/svg"
   xmlns="http://www.w3.org/2000/svg"
   xmlns:sodipodi="http://sodipodi.sourceforge.net/DTD/sodipodi-0.dtd"
   xmlns:inkscape="http://www.inkscape.org/namespaces/inkscape"
   width="210mm"
   height="297mm"
   viewBox="0 0 210 297"
   version="1.1"
   id="svg1520"
   inkscape:version="0.92.4 (5da689c313, 2019-01-14)"
   sodipodi:docname="eau.svg"
   inkscape:export-filename="D:\EPSA\GIT\Ressources2020\EL_Electrical\Dashboard controller\Screen design\logos svg\eau2.png"
   inkscape:export-xdpi="10.302683"
   inkscape:export-ydpi="10.302683">
  <defs
     id="defs1514" />
  <sodipodi:namedview
     id="base"
     pagecolor="#ffffff"
     bordercolor="#666666"
     borderopacity="1.0"
     inkscape:pageopacity="0.0"
     inkscape:pageshadow="2"
     inkscape:zoom="1.4"
     inkscape:cx="261.71739"
     inkscape:cy="582.05691"
     inkscape:document-units="mm"
     inkscape:current-layer="layer1"
     showgrid="false"
     inkscape:window-width="1920"
     inkscape:window-height="1001"
     inkscape:window-x="-9"
     inkscape:window-y="-9"
     inkscape:window-maximized="1" />
  <metadata
     id="metadata1517">
    <rdf:RDF>
      <cc:Work
         rdf:about="">
        <dc:format>image/svg+xml</dc:format>
        <dc:type
           rdf:resource="http://purl.org/dc/dcmitype/StillImage" />
        <dc:title></dc:title>
      </cc:Work>
    </rdf:RDF>
  </metadata>
  <g
     inkscape:label="Calque 1"
     inkscape:groupmode="layer"
     id="layer1">
    <rect
       style="fill:#000000;fill-opacity:1;stroke:#000000;stroke-width:0.93847793;stroke-linecap:round;stroke-linejoin:round;stroke-miterlimit:4;stroke-dasharray:none;stroke-dashoffset:0;stroke-opacity:1"
       id="rect2065"
       width="112.15676"
       height="97.544136"
       x="54.921848"
       y="75.681801" />
    <path
       style="fill:#ffffff;fill-opacity:1;stroke:#000000;stroke-width:0.71428573;stroke-linecap:round;stroke-linejoin:round;stroke-miterlimit:4;stroke-dasharray:none;stroke-dashoffset:0;stroke-opacity:1"
       d="m 129.2649,102.50609 c -0.19668,-0.61029 -3.69176,-23.468265 -3.69176,-24.144275 0,-0.98092 0.60968,-2.183481 1.27752,-2.519841 0.83181,-0.41894 2.25204,-0.53357 2.9577,-0.23872 1.06996,0.44706 1.4277,1.176251 1.55659,3.172761 0.11907,1.84451 -0.14862,8.94382 -0.59725,15.83983 -0.14539,2.234772 -0.32311,4.977472 -0.39494,6.094865 -0.12716,1.97821 -0.14243,2.03162 -0.58116,2.03162 -0.24781,0 -0.48482,-0.10631 -0.5267,-0.23624 z"
       id="path2069"
       inkscape:connector-curvature="0" />
    <path
       style="fill:#ffffff;fill-opacity:1;stroke:#000000;stroke-width:0.71428573;stroke-linecap:round;stroke-linejoin:round;stroke-miterlimit:4;stroke-dasharray:none;stroke-dashoffset:0;stroke-opacity:1"
       d="m 133.42782,104.82547 c 0.6103,-0.19668 23.46828,-3.69176 24.14429,-3.69176 0.98092,0 2.18348,0.60968 2.51984,1.27752 0.41894,0.83181 0.53357,2.25204 0.23872,2.9577 -0.44706,1.06996 -1.17625,1.4277 -3.17276,1.55659 -1.84451,0.11907 -8.94382,-0.14862 -15.83983,-0.59725 -2.23478,-0.14539 -4.97748,-0.32311 -6.09488,-0.39494 -1.97821,-0.12716 -2.03162,-0.14243 -2.03162,-0.58116 0,-0.24781 0.10631,-0.48482 0.23624,-0.5267 z"
       id="path2069-4"
       inkscape:connector-curvature="0" />
    <path
       style="fill:#ffffff;fill-opacity:1;stroke:#000000;stroke-width:0.71428573;stroke-linecap:round;stroke-linejoin:round;stroke-miterlimit:4;stroke-dasharray:none;stroke-dashoffset:0;stroke-opacity:1"
       d="m 129.99769,109.716 c 0.19668,0.61029 3.69177,23.46827 3.69177,24.14428 0,0.98092 -0.60968,2.18348 -1.27752,2.51984 -0.83182,0.41894 -2.25205,0.53357 -2.95771,0.23872 -1.06996,-0.44706 -1.4277,-1.17625 -1.55659,-3.17276 -0.11907,-1.84451 0.14862,-8.94382 0.59725,-15.83983 0.14539,-2.23478 0.32311,-4.97747 0.39494,-6.09487 0.12716,-1.97821 0.14243,-2.03163 0.58116,-2.03163 0.24781,0 0.48482,0.10631 0.5267,0.23625 z"
       id="path2069-7"
       inkscape:connector-curvature="0" />
    <path
       style="fill:#ffffff;fill-opacity:1;stroke:#000000;stroke-width:0.71428573;stroke-linecap:round;stroke-linejoin:round;stroke-miterlimit:4;stroke-dasharray:none;stroke-dashoffset:0;stroke-opacity:1"
       d="m 125.48514,106.66383 c -0.6103,0.19668 -23.46829,3.69176 -24.1443,3.69176 -0.98092,0 -2.183476,-0.60968 -2.519836,-1.27752 -0.41894,-0.83181 -0.53357,-2.25204 -0.23872,-2.9577 0.44706,-1.06996 1.17625,-1.4277 3.172756,-1.55659 1.84451,-0.11907 8.94383,0.14862 15.83984,0.59725 2.23478,0.14539 4.97747,0.32311 6.09487,0.39494 1.97822,0.12716 2.03163,0.14243 2.03163,0.58116 0,0.24781 -0.10631,0.48482 -0.23624,0.5267 z"
       id="path2069-1"
       inkscape:connector-curvature="0" />
    <ellipse
       style="fill:#ffffff;fill-opacity:1;stroke:none;stroke-width:1;stroke-linecap:round;stroke-linejoin:round;stroke-miterlimit:4;stroke-dasharray:none;stroke-dashoffset:0;stroke-opacity:1"
       id="path2098"
       cx="129.5383"
       cy="105.93465"
       rx="4.0501862"
       ry="3.9703538" />
    <rect
       style="fill:none;fill-opacity:1;stroke:#ffffff;stroke-width:1.06065679;stroke-linecap:round;stroke-linejoin:round;stroke-miterlimit:4;stroke-dasharray:none;stroke-dashoffset:0;stroke-opacity:1"
       id="rect2100"
       width="72.321777"
       height="46.997375"
       x="91.87854"
       y="82.150856" />
    <rect
       style="fill:none;fill-opacity:1;stroke:#ffffff;stroke-width:1;stroke-linecap:round;stroke-linejoin:round;stroke-miterlimit:4;stroke-dasharray:none;stroke-dashoffset:0;stroke-opacity:1"
       id="rect2105"
       width="72.004463"
       height="4.7247024"
       x="91.87854"
       y="82.150856" />
    <rect
       style="fill:none;fill-opacity:1;stroke:#ffffff;stroke-width:1;stroke-linecap:round;stroke-linejoin:round;stroke-miterlimit:4;stroke-dasharray:none;stroke-dashoffset:0;stroke-opacity:1"
       id="rect2105-8"
       width="72.004463"
       height="4.7247024"
       x="91.753723"
       y="91.286461" />
    <rect
       style="fill:none;fill-opacity:1;stroke:#ffffff;stroke-width:1;stroke-linecap:round;stroke-linejoin:round;stroke-miterlimit:4;stroke-dasharray:none;stroke-dashoffset:0;stroke-opacity:1"
       id="rect2105-4"
       width="72.004463"
       height="4.7247024"
       x="91.753716"
       y="100.92485" />
    <rect
       style="fill:none;fill-opacity:1;stroke:#ffffff;stroke-width:1;stroke-linecap:round;stroke-linejoin:round;stroke-miterlimit:4;stroke-dasharray:none;stroke-dashoffset:0;stroke-opacity:1"
       id="rect2105-45"
       width="72.004463"
       height="4.7247024"
       x="91.942711"
       y="109.99628" />
    <rect
       style="fill:none;fill-opacity:1;stroke:#ffffff;stroke-width:1;stroke-linecap:round;stroke-linejoin:round;stroke-miterlimit:4;stroke-dasharray:none;stroke-dashoffset:0;stroke-opacity:1"
       id="rect2105-5"
       width="72.004463"
       height="4.7247024"
       x="92.320686"
       y="118.68974" />
    <rect
       style="fill:none;fill-opacity:1;stroke:#ffffff;stroke-width:1;stroke-linecap:round;stroke-linejoin:round;stroke-miterlimit:4;stroke-dasharray:none;stroke-dashoffset:0;stroke-opacity:1"
       id="rect2140"
       width="81.07589"
       height="34.58482"
       x="85.800591"
       y="136.36012" />
    <flowRoot
       xml:space="preserve"
       id="flowRoot2142"
       style="font-style:normal;font-weight:normal;font-size:106.66667175px;line-height:1.25;font-family:sans-serif;letter-spacing:0px;word-spacing:0px;fill:#000000;fill-opacity:1;stroke:none"
       transform="matrix(0.34633624,0,0,0.31867091,-9.5910876,-28.679385)"><flowRegion
         id="flowRegion2144"
         style="font-size:106.66667175px"><rect
           id="rect2146"
           width="306.42856"
           height="130.71429"
           x="324.28571"
           y="515.37683"
           style="font-size:106.66667175px" /></flowRegion><flowPara
         id="flowPara2148"
         style="font-size:106.66667175px;fill:#ffffff">°C</flowPara></flowRoot>    <path
       style="fill:none;stroke:#ffffff;stroke-width:0.26458332px;stroke-linecap:butt;stroke-linejoin:miter;stroke-opacity:1"
       d="M 91.753715,100.92485 H 60.665178 c 0,0 -5.291668,2.55134 -5.291668,5.00819 l 0,45.73511 c 0,0 1.322919,5.10268 4.157739,5.48066 2.834822,0.37797 25.702382,0 25.702382,0 V 152.4241 H 60.665177 c 0,0 -1.133928,0.56697 -1.322917,-2.45684 -0.188987,-3.02381 0,-42.14434 0,-42.14434 l 1.330139,-1.56882 2.071647,-0.51005 29.00967,-0.0945 z"
       id="path2150"
       inkscape:connector-curvature="0"
       sodipodi:nodetypes="ccscccccsccccc" />
  </g>
</svg>
