G04 EAGLE Gerber RS-274X export*
G75*
%MOMM*%
%FSLAX34Y34*%
%LPD*%
%INSilkscreen Top*%
%IPPOS*%
%AMOC8*
5,1,8,0,0,1.08239X$1,22.5*%
G01*
%ADD10C,0.152400*%
%ADD11C,0.076200*%
%ADD12C,0.050800*%
%ADD13C,0.203200*%
%ADD14C,0.101600*%
%ADD15C,0.200000*%
%ADD16C,0.127000*%
%ADD17C,0.254000*%
%ADD18C,0.177800*%


D10*
X288316Y195108D02*
X311684Y195108D01*
X311684Y244892D02*
X303048Y244892D01*
X296952Y244892D01*
X288316Y244892D01*
X296952Y244892D02*
X296954Y244783D01*
X296960Y244675D01*
X296969Y244566D01*
X296983Y244458D01*
X297000Y244351D01*
X297022Y244244D01*
X297047Y244138D01*
X297075Y244033D01*
X297108Y243929D01*
X297144Y243827D01*
X297184Y243726D01*
X297227Y243626D01*
X297274Y243528D01*
X297325Y243431D01*
X297379Y243337D01*
X297436Y243244D01*
X297496Y243154D01*
X297560Y243065D01*
X297627Y242979D01*
X297696Y242896D01*
X297769Y242815D01*
X297845Y242737D01*
X297923Y242661D01*
X298004Y242588D01*
X298087Y242519D01*
X298173Y242452D01*
X298262Y242388D01*
X298352Y242328D01*
X298445Y242271D01*
X298539Y242217D01*
X298636Y242166D01*
X298734Y242119D01*
X298834Y242076D01*
X298935Y242036D01*
X299037Y242000D01*
X299141Y241967D01*
X299246Y241939D01*
X299352Y241914D01*
X299459Y241892D01*
X299566Y241875D01*
X299674Y241861D01*
X299783Y241852D01*
X299891Y241846D01*
X300000Y241844D01*
X300109Y241846D01*
X300217Y241852D01*
X300326Y241861D01*
X300434Y241875D01*
X300541Y241892D01*
X300648Y241914D01*
X300754Y241939D01*
X300859Y241967D01*
X300963Y242000D01*
X301065Y242036D01*
X301166Y242076D01*
X301266Y242119D01*
X301364Y242166D01*
X301461Y242217D01*
X301555Y242271D01*
X301648Y242328D01*
X301738Y242388D01*
X301827Y242452D01*
X301913Y242519D01*
X301996Y242588D01*
X302077Y242661D01*
X302155Y242737D01*
X302231Y242815D01*
X302304Y242896D01*
X302373Y242979D01*
X302440Y243065D01*
X302504Y243154D01*
X302564Y243244D01*
X302621Y243337D01*
X302675Y243431D01*
X302726Y243528D01*
X302773Y243626D01*
X302816Y243726D01*
X302856Y243827D01*
X302892Y243929D01*
X302925Y244033D01*
X302953Y244138D01*
X302978Y244244D01*
X303000Y244351D01*
X303017Y244458D01*
X303031Y244566D01*
X303040Y244675D01*
X303046Y244783D01*
X303048Y244892D01*
D11*
X276342Y245740D02*
X268377Y253706D01*
X276342Y253706D02*
X268377Y245740D01*
X268377Y249723D02*
X276342Y249723D01*
X272360Y245740D02*
X272360Y253706D01*
D12*
X291804Y232846D02*
X293636Y232846D01*
X292720Y232846D02*
X292720Y238343D01*
X291804Y238343D02*
X293636Y238343D01*
X295487Y236510D02*
X297319Y238343D01*
X297319Y232846D01*
X295487Y232846D02*
X299152Y232846D01*
X301012Y233762D02*
X301012Y237427D01*
X301928Y238343D01*
X303760Y238343D01*
X304676Y237427D01*
X304676Y233762D01*
X303760Y232846D01*
X301928Y232846D01*
X301012Y233762D01*
X304676Y237427D01*
X306537Y236510D02*
X308369Y238343D01*
X308369Y232846D01*
X306537Y232846D02*
X310201Y232846D01*
X355364Y222641D02*
X355364Y217144D01*
X355364Y222641D02*
X358112Y222641D01*
X359028Y221725D01*
X359028Y219892D01*
X358112Y218976D01*
X355364Y218976D01*
X357196Y218976D02*
X359028Y217144D01*
X360889Y220808D02*
X362721Y222641D01*
X362721Y217144D01*
X360889Y217144D02*
X364553Y217144D01*
X366413Y218060D02*
X366413Y221725D01*
X367330Y222641D01*
X369162Y222641D01*
X370078Y221725D01*
X370078Y218060D01*
X369162Y217144D01*
X367330Y217144D01*
X366413Y218060D01*
X370078Y221725D01*
X371938Y217144D02*
X375603Y217144D01*
X375603Y220808D02*
X371938Y217144D01*
X375603Y220808D02*
X375603Y221725D01*
X374687Y222641D01*
X372854Y222641D01*
X371938Y221725D01*
X385364Y222641D02*
X385364Y217144D01*
X385364Y222641D02*
X388112Y222641D01*
X389028Y221725D01*
X389028Y219892D01*
X388112Y218976D01*
X385364Y218976D01*
X387196Y218976D02*
X389028Y217144D01*
X390889Y220808D02*
X392721Y222641D01*
X392721Y217144D01*
X390889Y217144D02*
X394553Y217144D01*
X396413Y220808D02*
X398246Y222641D01*
X398246Y217144D01*
X400078Y217144D02*
X396413Y217144D01*
X401938Y217144D02*
X405603Y217144D01*
X405603Y220808D02*
X401938Y217144D01*
X405603Y220808D02*
X405603Y221725D01*
X404687Y222641D01*
X402854Y222641D01*
X401938Y221725D01*
X348785Y230710D02*
X347869Y229793D01*
X347869Y227961D01*
X348785Y227045D01*
X352450Y227045D01*
X353366Y227961D01*
X353366Y229793D01*
X352450Y230710D01*
X349702Y232570D02*
X347869Y234402D01*
X353366Y234402D01*
X353366Y232570D02*
X353366Y236234D01*
X352450Y238095D02*
X348785Y238095D01*
X347869Y239011D01*
X347869Y240843D01*
X348785Y241759D01*
X352450Y241759D01*
X353366Y240843D01*
X353366Y239011D01*
X352450Y238095D01*
X348785Y241759D01*
X353366Y243619D02*
X353366Y247284D01*
X349702Y247284D02*
X353366Y243619D01*
X349702Y247284D02*
X348785Y247284D01*
X347869Y246368D01*
X347869Y244535D01*
X348785Y243619D01*
X385364Y257144D02*
X385364Y262641D01*
X388112Y262641D01*
X389028Y261725D01*
X389028Y259892D01*
X388112Y258976D01*
X385364Y258976D01*
X387196Y258976D02*
X389028Y257144D01*
X390889Y260808D02*
X392721Y262641D01*
X392721Y257144D01*
X390889Y257144D02*
X394553Y257144D01*
X396413Y258060D02*
X396413Y261725D01*
X397330Y262641D01*
X399162Y262641D01*
X400078Y261725D01*
X400078Y258060D01*
X399162Y257144D01*
X397330Y257144D01*
X396413Y258060D01*
X400078Y261725D01*
X401938Y261725D02*
X402854Y262641D01*
X404687Y262641D01*
X405603Y261725D01*
X405603Y260808D01*
X404687Y259892D01*
X403770Y259892D01*
X404687Y259892D02*
X405603Y258976D01*
X405603Y258060D01*
X404687Y257144D01*
X402854Y257144D01*
X401938Y258060D01*
D10*
X311684Y125108D02*
X288316Y125108D01*
X303048Y174892D02*
X311684Y174892D01*
X303048Y174892D02*
X296952Y174892D01*
X288316Y174892D01*
X296952Y174892D02*
X296954Y174783D01*
X296960Y174675D01*
X296969Y174566D01*
X296983Y174458D01*
X297000Y174351D01*
X297022Y174244D01*
X297047Y174138D01*
X297075Y174033D01*
X297108Y173929D01*
X297144Y173827D01*
X297184Y173726D01*
X297227Y173626D01*
X297274Y173528D01*
X297325Y173431D01*
X297379Y173337D01*
X297436Y173244D01*
X297496Y173154D01*
X297560Y173065D01*
X297627Y172979D01*
X297696Y172896D01*
X297769Y172815D01*
X297845Y172737D01*
X297923Y172661D01*
X298004Y172588D01*
X298087Y172519D01*
X298173Y172452D01*
X298262Y172388D01*
X298352Y172328D01*
X298445Y172271D01*
X298539Y172217D01*
X298636Y172166D01*
X298734Y172119D01*
X298834Y172076D01*
X298935Y172036D01*
X299037Y172000D01*
X299141Y171967D01*
X299246Y171939D01*
X299352Y171914D01*
X299459Y171892D01*
X299566Y171875D01*
X299674Y171861D01*
X299783Y171852D01*
X299891Y171846D01*
X300000Y171844D01*
X300109Y171846D01*
X300217Y171852D01*
X300326Y171861D01*
X300434Y171875D01*
X300541Y171892D01*
X300648Y171914D01*
X300754Y171939D01*
X300859Y171967D01*
X300963Y172000D01*
X301065Y172036D01*
X301166Y172076D01*
X301266Y172119D01*
X301364Y172166D01*
X301461Y172217D01*
X301555Y172271D01*
X301648Y172328D01*
X301738Y172388D01*
X301827Y172452D01*
X301913Y172519D01*
X301996Y172588D01*
X302077Y172661D01*
X302155Y172737D01*
X302231Y172815D01*
X302304Y172896D01*
X302373Y172979D01*
X302440Y173065D01*
X302504Y173154D01*
X302564Y173244D01*
X302621Y173337D01*
X302675Y173431D01*
X302726Y173528D01*
X302773Y173626D01*
X302816Y173726D01*
X302856Y173827D01*
X302892Y173929D01*
X302925Y174033D01*
X302953Y174138D01*
X302978Y174244D01*
X303000Y174351D01*
X303017Y174458D01*
X303031Y174566D01*
X303040Y174675D01*
X303046Y174783D01*
X303048Y174892D01*
D11*
X276342Y175740D02*
X268377Y183706D01*
X276342Y183706D02*
X268377Y175740D01*
X268377Y179723D02*
X276342Y179723D01*
X272360Y175740D02*
X272360Y183706D01*
D12*
X291804Y162846D02*
X293636Y162846D01*
X292720Y162846D02*
X292720Y168343D01*
X291804Y168343D02*
X293636Y168343D01*
X295487Y166510D02*
X297319Y168343D01*
X297319Y162846D01*
X295487Y162846D02*
X299152Y162846D01*
X301012Y163762D02*
X301012Y167427D01*
X301928Y168343D01*
X303760Y168343D01*
X304676Y167427D01*
X304676Y163762D01*
X303760Y162846D01*
X301928Y162846D01*
X301012Y163762D01*
X304676Y167427D01*
X306537Y167427D02*
X307453Y168343D01*
X309285Y168343D01*
X310201Y167427D01*
X310201Y166510D01*
X309285Y165594D01*
X308369Y165594D01*
X309285Y165594D02*
X310201Y164678D01*
X310201Y163762D01*
X309285Y162846D01*
X307453Y162846D01*
X306537Y163762D01*
X354364Y142641D02*
X354364Y137144D01*
X354364Y142641D02*
X357112Y142641D01*
X358028Y141725D01*
X358028Y139892D01*
X357112Y138976D01*
X354364Y138976D01*
X356196Y138976D02*
X358028Y137144D01*
X359889Y140808D02*
X361721Y142641D01*
X361721Y137144D01*
X359889Y137144D02*
X363553Y137144D01*
X365413Y140808D02*
X367246Y142641D01*
X367246Y137144D01*
X369078Y137144D02*
X365413Y137144D01*
X372770Y141725D02*
X374603Y142641D01*
X372770Y141725D02*
X370938Y139892D01*
X370938Y138060D01*
X371854Y137144D01*
X373687Y137144D01*
X374603Y138060D01*
X374603Y138976D01*
X373687Y139892D01*
X370938Y139892D01*
X385364Y137144D02*
X385364Y142641D01*
X388112Y142641D01*
X389028Y141725D01*
X389028Y139892D01*
X388112Y138976D01*
X385364Y138976D01*
X387196Y138976D02*
X389028Y137144D01*
X390889Y140808D02*
X392721Y142641D01*
X392721Y137144D01*
X390889Y137144D02*
X394553Y137144D01*
X396413Y137144D02*
X400078Y137144D01*
X400078Y140808D02*
X396413Y137144D01*
X400078Y140808D02*
X400078Y141725D01*
X399162Y142641D01*
X397330Y142641D01*
X396413Y141725D01*
X401938Y140808D02*
X403770Y142641D01*
X403770Y137144D01*
X401938Y137144D02*
X405603Y137144D01*
X358028Y181455D02*
X357112Y182371D01*
X355280Y182371D01*
X354364Y181455D01*
X354364Y177790D01*
X355280Y176874D01*
X357112Y176874D01*
X358028Y177790D01*
X359889Y180538D02*
X361721Y182371D01*
X361721Y176874D01*
X359889Y176874D02*
X363553Y176874D01*
X365413Y177790D02*
X365413Y181455D01*
X366330Y182371D01*
X368162Y182371D01*
X369078Y181455D01*
X369078Y177790D01*
X368162Y176874D01*
X366330Y176874D01*
X365413Y177790D01*
X369078Y181455D01*
X370938Y182371D02*
X374603Y182371D01*
X370938Y182371D02*
X370938Y179622D01*
X372770Y180538D01*
X373687Y180538D01*
X374603Y179622D01*
X374603Y177790D01*
X373687Y176874D01*
X371854Y176874D01*
X370938Y177790D01*
X385364Y177144D02*
X385364Y182641D01*
X388112Y182641D01*
X389028Y181725D01*
X389028Y179892D01*
X388112Y178976D01*
X385364Y178976D01*
X387196Y178976D02*
X389028Y177144D01*
X390889Y180808D02*
X392721Y182641D01*
X392721Y177144D01*
X390889Y177144D02*
X394553Y177144D01*
X396413Y180808D02*
X398246Y182641D01*
X398246Y177144D01*
X400078Y177144D02*
X396413Y177144D01*
X401938Y182641D02*
X405603Y182641D01*
X405603Y181725D01*
X401938Y178060D01*
X401938Y177144D01*
X175364Y135641D02*
X175364Y130144D01*
X175364Y135641D02*
X178112Y135641D01*
X179028Y134725D01*
X179028Y132892D01*
X178112Y131976D01*
X175364Y131976D01*
X177196Y131976D02*
X179028Y130144D01*
X180889Y133808D02*
X182721Y135641D01*
X182721Y130144D01*
X180889Y130144D02*
X184553Y130144D01*
X186413Y131060D02*
X186413Y134725D01*
X187330Y135641D01*
X189162Y135641D01*
X190078Y134725D01*
X190078Y131060D01*
X189162Y130144D01*
X187330Y130144D01*
X186413Y131060D01*
X190078Y134725D01*
X191938Y134725D02*
X192854Y135641D01*
X194687Y135641D01*
X195603Y134725D01*
X195603Y133808D01*
X194687Y132892D01*
X195603Y131976D01*
X195603Y131060D01*
X194687Y130144D01*
X192854Y130144D01*
X191938Y131060D01*
X191938Y131976D01*
X192854Y132892D01*
X191938Y133808D01*
X191938Y134725D01*
X192854Y132892D02*
X194687Y132892D01*
X145364Y130144D02*
X145364Y135641D01*
X148112Y135641D01*
X149028Y134725D01*
X149028Y132892D01*
X148112Y131976D01*
X145364Y131976D01*
X147196Y131976D02*
X149028Y130144D01*
X150889Y133808D02*
X152721Y135641D01*
X152721Y130144D01*
X150889Y130144D02*
X154553Y130144D01*
X156413Y133808D02*
X158246Y135641D01*
X158246Y130144D01*
X160078Y130144D02*
X156413Y130144D01*
X161938Y134725D02*
X162854Y135641D01*
X164687Y135641D01*
X165603Y134725D01*
X165603Y133808D01*
X164687Y132892D01*
X165603Y131976D01*
X165603Y131060D01*
X164687Y130144D01*
X162854Y130144D01*
X161938Y131060D01*
X161938Y131976D01*
X162854Y132892D01*
X161938Y133808D01*
X161938Y134725D01*
X162854Y132892D02*
X164687Y132892D01*
X103568Y342185D02*
X102652Y343101D01*
X100820Y343101D01*
X99904Y342185D01*
X99904Y338520D01*
X100820Y337604D01*
X102652Y337604D01*
X103568Y338520D01*
X105429Y341268D02*
X107261Y343101D01*
X107261Y337604D01*
X105429Y337604D02*
X109093Y337604D01*
X110953Y338520D02*
X110953Y342185D01*
X111870Y343101D01*
X113702Y343101D01*
X114618Y342185D01*
X114618Y338520D01*
X113702Y337604D01*
X111870Y337604D01*
X110953Y338520D01*
X114618Y342185D01*
X116478Y343101D02*
X120143Y343101D01*
X120143Y342185D01*
X116478Y338520D01*
X116478Y337604D01*
X231302Y356451D02*
X232218Y355535D01*
X231302Y356451D02*
X229470Y356451D01*
X228554Y355535D01*
X228554Y351870D01*
X229470Y350954D01*
X231302Y350954D01*
X232218Y351870D01*
X234079Y354618D02*
X235911Y356451D01*
X235911Y350954D01*
X234079Y350954D02*
X237743Y350954D01*
X239603Y351870D02*
X239603Y355535D01*
X240520Y356451D01*
X242352Y356451D01*
X243268Y355535D01*
X243268Y351870D01*
X242352Y350954D01*
X240520Y350954D01*
X239603Y351870D01*
X243268Y355535D01*
X245128Y355535D02*
X246044Y356451D01*
X247877Y356451D01*
X248793Y355535D01*
X248793Y354618D01*
X247877Y353702D01*
X248793Y352786D01*
X248793Y351870D01*
X247877Y350954D01*
X246044Y350954D01*
X245128Y351870D01*
X245128Y352786D01*
X246044Y353702D01*
X245128Y354618D01*
X245128Y355535D01*
X246044Y353702D02*
X247877Y353702D01*
X213568Y343185D02*
X212652Y344101D01*
X210820Y344101D01*
X209904Y343185D01*
X209904Y339520D01*
X210820Y338604D01*
X212652Y338604D01*
X213568Y339520D01*
X215429Y342268D02*
X217261Y344101D01*
X217261Y338604D01*
X215429Y338604D02*
X219093Y338604D01*
X220953Y339520D02*
X220953Y343185D01*
X221870Y344101D01*
X223702Y344101D01*
X224618Y343185D01*
X224618Y339520D01*
X223702Y338604D01*
X221870Y338604D01*
X220953Y339520D01*
X224618Y343185D01*
X226478Y339520D02*
X227394Y338604D01*
X229227Y338604D01*
X230143Y339520D01*
X230143Y343185D01*
X229227Y344101D01*
X227394Y344101D01*
X226478Y343185D01*
X226478Y342268D01*
X227394Y341352D01*
X230143Y341352D01*
X74218Y355535D02*
X73302Y356451D01*
X71470Y356451D01*
X70554Y355535D01*
X70554Y351870D01*
X71470Y350954D01*
X73302Y350954D01*
X74218Y351870D01*
X76079Y354618D02*
X77911Y356451D01*
X77911Y350954D01*
X76079Y350954D02*
X79743Y350954D01*
X81603Y351870D02*
X81603Y355535D01*
X82520Y356451D01*
X84352Y356451D01*
X85268Y355535D01*
X85268Y351870D01*
X84352Y350954D01*
X82520Y350954D01*
X81603Y351870D01*
X85268Y355535D01*
X88960Y355535D02*
X90793Y356451D01*
X88960Y355535D02*
X87128Y353702D01*
X87128Y351870D01*
X88044Y350954D01*
X89877Y350954D01*
X90793Y351870D01*
X90793Y352786D01*
X89877Y353702D01*
X87128Y353702D01*
D13*
X142220Y287234D02*
X177780Y287234D01*
X142220Y287234D02*
X142220Y352766D01*
X177780Y352766D01*
X177780Y287234D01*
D14*
X118508Y302816D02*
X117322Y304002D01*
X117322Y306375D01*
X118508Y307561D01*
X119695Y307561D01*
X120881Y306375D01*
X120881Y305189D01*
X120881Y306375D02*
X122067Y307561D01*
X123254Y307561D01*
X124440Y306375D01*
X124440Y304002D01*
X123254Y302816D01*
X185902Y297533D02*
X193020Y297533D01*
X189461Y293974D02*
X185902Y297533D01*
X189461Y298719D02*
X189461Y293974D01*
X119695Y347550D02*
X117322Y349923D01*
X124440Y349923D01*
X124440Y352295D02*
X124440Y347550D01*
X124346Y330675D02*
X124346Y325930D01*
X119601Y330675D01*
X118414Y330675D01*
X117228Y329489D01*
X117228Y327116D01*
X118414Y325930D01*
D12*
X156854Y317762D02*
X158686Y317762D01*
X157770Y317762D02*
X157770Y323259D01*
X156854Y323259D02*
X158686Y323259D01*
X160537Y321426D02*
X162369Y323259D01*
X162369Y317762D01*
X160537Y317762D02*
X164202Y317762D01*
X166062Y318678D02*
X166062Y322343D01*
X166978Y323259D01*
X168810Y323259D01*
X169726Y322343D01*
X169726Y318678D01*
X168810Y317762D01*
X166978Y317762D01*
X166062Y318678D01*
X169726Y322343D01*
X171587Y323259D02*
X175251Y323259D01*
X171587Y323259D02*
X171587Y320510D01*
X173419Y321426D01*
X174335Y321426D01*
X175251Y320510D01*
X175251Y318678D01*
X174335Y317762D01*
X172503Y317762D01*
X171587Y318678D01*
D10*
X295174Y10014D02*
X304826Y10014D01*
X308382Y21698D02*
X308382Y28302D01*
X304826Y39986D02*
X303048Y39986D01*
X296952Y39986D01*
X295174Y39986D01*
X296952Y39986D02*
X296954Y39877D01*
X296960Y39769D01*
X296969Y39660D01*
X296983Y39552D01*
X297000Y39445D01*
X297022Y39338D01*
X297047Y39232D01*
X297075Y39127D01*
X297108Y39023D01*
X297144Y38921D01*
X297184Y38820D01*
X297227Y38720D01*
X297274Y38622D01*
X297325Y38525D01*
X297379Y38431D01*
X297436Y38338D01*
X297496Y38248D01*
X297560Y38159D01*
X297627Y38073D01*
X297696Y37990D01*
X297769Y37909D01*
X297845Y37831D01*
X297923Y37755D01*
X298004Y37682D01*
X298087Y37613D01*
X298173Y37546D01*
X298262Y37482D01*
X298352Y37422D01*
X298445Y37365D01*
X298539Y37311D01*
X298636Y37260D01*
X298734Y37213D01*
X298834Y37170D01*
X298935Y37130D01*
X299037Y37094D01*
X299141Y37061D01*
X299246Y37033D01*
X299352Y37008D01*
X299459Y36986D01*
X299566Y36969D01*
X299674Y36955D01*
X299783Y36946D01*
X299891Y36940D01*
X300000Y36938D01*
X300109Y36940D01*
X300217Y36946D01*
X300326Y36955D01*
X300434Y36969D01*
X300541Y36986D01*
X300648Y37008D01*
X300754Y37033D01*
X300859Y37061D01*
X300963Y37094D01*
X301065Y37130D01*
X301166Y37170D01*
X301266Y37213D01*
X301364Y37260D01*
X301461Y37311D01*
X301555Y37365D01*
X301648Y37422D01*
X301738Y37482D01*
X301827Y37546D01*
X301913Y37613D01*
X301996Y37682D01*
X302077Y37755D01*
X302155Y37831D01*
X302231Y37909D01*
X302304Y37990D01*
X302373Y38073D01*
X302440Y38159D01*
X302504Y38248D01*
X302564Y38338D01*
X302621Y38431D01*
X302675Y38525D01*
X302726Y38622D01*
X302773Y38720D01*
X302816Y38820D01*
X302856Y38921D01*
X302892Y39023D01*
X302925Y39127D01*
X302953Y39232D01*
X302978Y39338D01*
X303000Y39445D01*
X303017Y39552D01*
X303031Y39660D01*
X303040Y39769D01*
X303046Y39877D01*
X303048Y39986D01*
D11*
X287010Y41088D02*
X279045Y49054D01*
X287010Y49054D02*
X279045Y41088D01*
X279045Y45071D02*
X287010Y45071D01*
X283028Y41088D02*
X283028Y49054D01*
D12*
X292710Y41654D02*
X294542Y41654D01*
X293626Y41654D02*
X293626Y47151D01*
X292710Y47151D02*
X294542Y47151D01*
X296393Y45318D02*
X298225Y47151D01*
X298225Y41654D01*
X296393Y41654D02*
X300058Y41654D01*
X301918Y42570D02*
X301918Y46235D01*
X302834Y47151D01*
X304666Y47151D01*
X305582Y46235D01*
X305582Y42570D01*
X304666Y41654D01*
X302834Y41654D01*
X301918Y42570D01*
X305582Y46235D01*
X310191Y47151D02*
X310191Y41654D01*
X307443Y44402D02*
X310191Y47151D01*
X311107Y44402D02*
X307443Y44402D01*
X415364Y217144D02*
X415364Y222641D01*
X418112Y222641D01*
X419028Y221725D01*
X419028Y219892D01*
X418112Y218976D01*
X415364Y218976D01*
X417196Y218976D02*
X419028Y217144D01*
X420889Y220808D02*
X422721Y222641D01*
X422721Y217144D01*
X420889Y217144D02*
X424553Y217144D01*
X426413Y220808D02*
X428246Y222641D01*
X428246Y217144D01*
X430078Y217144D02*
X426413Y217144D01*
X431938Y220808D02*
X433770Y222641D01*
X433770Y217144D01*
X431938Y217144D02*
X435603Y217144D01*
X415364Y257144D02*
X415364Y262641D01*
X418112Y262641D01*
X419028Y261725D01*
X419028Y259892D01*
X418112Y258976D01*
X415364Y258976D01*
X417196Y258976D02*
X419028Y257144D01*
X420889Y260808D02*
X422721Y262641D01*
X422721Y257144D01*
X420889Y257144D02*
X424553Y257144D01*
X426413Y257144D02*
X430078Y257144D01*
X430078Y260808D02*
X426413Y257144D01*
X430078Y260808D02*
X430078Y261725D01*
X429162Y262641D01*
X427330Y262641D01*
X426413Y261725D01*
X431938Y261725D02*
X431938Y258060D01*
X431938Y261725D02*
X432854Y262641D01*
X434687Y262641D01*
X435603Y261725D01*
X435603Y258060D01*
X434687Y257144D01*
X432854Y257144D01*
X431938Y258060D01*
X435603Y261725D01*
X163546Y68155D02*
X158049Y68155D01*
X163546Y68155D02*
X163546Y70903D01*
X162630Y71820D01*
X158965Y71820D01*
X158049Y70903D01*
X158049Y68155D01*
X159882Y73680D02*
X158049Y75512D01*
X163546Y75512D01*
X163546Y73680D02*
X163546Y77344D01*
X162630Y79205D02*
X158965Y79205D01*
X158049Y80121D01*
X158049Y81953D01*
X158965Y82869D01*
X162630Y82869D01*
X163546Y81953D01*
X163546Y80121D01*
X162630Y79205D01*
X158965Y82869D01*
X163546Y84729D02*
X163546Y88394D01*
X159882Y88394D02*
X163546Y84729D01*
X159882Y88394D02*
X158965Y88394D01*
X158049Y87478D01*
X158049Y85645D01*
X158965Y84729D01*
X104546Y107155D02*
X99049Y107155D01*
X104546Y107155D02*
X104546Y109903D01*
X103630Y110820D01*
X99965Y110820D01*
X99049Y109903D01*
X99049Y107155D01*
X100882Y112680D02*
X99049Y114512D01*
X104546Y114512D01*
X104546Y112680D02*
X104546Y116344D01*
X103630Y118205D02*
X99965Y118205D01*
X99049Y119121D01*
X99049Y120953D01*
X99965Y121869D01*
X103630Y121869D01*
X104546Y120953D01*
X104546Y119121D01*
X103630Y118205D01*
X99965Y121869D01*
X99049Y126478D02*
X104546Y126478D01*
X101798Y123729D02*
X99049Y126478D01*
X101798Y127394D02*
X101798Y123729D01*
X188049Y68155D02*
X193546Y68155D01*
X193546Y70903D01*
X192630Y71820D01*
X188965Y71820D01*
X188049Y70903D01*
X188049Y68155D01*
X189882Y73680D02*
X188049Y75512D01*
X193546Y75512D01*
X193546Y73680D02*
X193546Y77344D01*
X192630Y79205D02*
X188965Y79205D01*
X188049Y80121D01*
X188049Y81953D01*
X188965Y82869D01*
X192630Y82869D01*
X193546Y81953D01*
X193546Y80121D01*
X192630Y79205D01*
X188965Y82869D01*
X189882Y84729D02*
X188049Y86562D01*
X193546Y86562D01*
X193546Y88394D02*
X193546Y84729D01*
D13*
X66000Y148500D02*
X66000Y271500D01*
X73500Y141000D02*
X186500Y141000D01*
X194000Y148500D02*
X194000Y271500D01*
X186500Y279000D02*
X73500Y279000D01*
X73319Y278998D01*
X73138Y278991D01*
X72957Y278980D01*
X72776Y278965D01*
X72596Y278945D01*
X72416Y278921D01*
X72237Y278893D01*
X72059Y278860D01*
X71882Y278823D01*
X71705Y278782D01*
X71530Y278737D01*
X71355Y278687D01*
X71182Y278633D01*
X71011Y278575D01*
X70840Y278513D01*
X70672Y278446D01*
X70505Y278376D01*
X70339Y278302D01*
X70176Y278223D01*
X70015Y278141D01*
X69855Y278055D01*
X69698Y277965D01*
X69543Y277871D01*
X69390Y277774D01*
X69240Y277672D01*
X69092Y277568D01*
X68946Y277459D01*
X68804Y277348D01*
X68664Y277232D01*
X68527Y277114D01*
X68392Y276992D01*
X68261Y276867D01*
X68133Y276739D01*
X68008Y276608D01*
X67886Y276473D01*
X67768Y276336D01*
X67652Y276196D01*
X67541Y276054D01*
X67432Y275908D01*
X67328Y275760D01*
X67226Y275610D01*
X67129Y275457D01*
X67035Y275302D01*
X66945Y275145D01*
X66859Y274985D01*
X66777Y274824D01*
X66698Y274661D01*
X66624Y274495D01*
X66554Y274328D01*
X66487Y274160D01*
X66425Y273989D01*
X66367Y273818D01*
X66313Y273645D01*
X66263Y273470D01*
X66218Y273295D01*
X66177Y273118D01*
X66140Y272941D01*
X66107Y272763D01*
X66079Y272584D01*
X66055Y272404D01*
X66035Y272224D01*
X66020Y272043D01*
X66009Y271862D01*
X66002Y271681D01*
X66000Y271500D01*
X66000Y148500D02*
X66002Y148319D01*
X66009Y148138D01*
X66020Y147957D01*
X66035Y147776D01*
X66055Y147596D01*
X66079Y147416D01*
X66107Y147237D01*
X66140Y147059D01*
X66177Y146882D01*
X66218Y146705D01*
X66263Y146530D01*
X66313Y146355D01*
X66367Y146182D01*
X66425Y146011D01*
X66487Y145840D01*
X66554Y145672D01*
X66624Y145505D01*
X66698Y145339D01*
X66777Y145176D01*
X66859Y145015D01*
X66945Y144855D01*
X67035Y144698D01*
X67129Y144543D01*
X67226Y144390D01*
X67328Y144240D01*
X67432Y144092D01*
X67541Y143946D01*
X67652Y143804D01*
X67768Y143664D01*
X67886Y143527D01*
X68008Y143392D01*
X68133Y143261D01*
X68261Y143133D01*
X68392Y143008D01*
X68527Y142886D01*
X68664Y142768D01*
X68804Y142652D01*
X68946Y142541D01*
X69092Y142432D01*
X69240Y142328D01*
X69390Y142226D01*
X69543Y142129D01*
X69698Y142035D01*
X69855Y141945D01*
X70015Y141859D01*
X70176Y141777D01*
X70339Y141698D01*
X70505Y141624D01*
X70672Y141554D01*
X70840Y141487D01*
X71011Y141425D01*
X71182Y141367D01*
X71355Y141313D01*
X71530Y141263D01*
X71705Y141218D01*
X71882Y141177D01*
X72059Y141140D01*
X72237Y141107D01*
X72416Y141079D01*
X72596Y141055D01*
X72776Y141035D01*
X72957Y141020D01*
X73138Y141009D01*
X73319Y141002D01*
X73500Y141000D01*
X186500Y141000D02*
X186681Y141002D01*
X186862Y141009D01*
X187043Y141020D01*
X187224Y141035D01*
X187404Y141055D01*
X187584Y141079D01*
X187763Y141107D01*
X187941Y141140D01*
X188118Y141177D01*
X188295Y141218D01*
X188470Y141263D01*
X188645Y141313D01*
X188818Y141367D01*
X188989Y141425D01*
X189160Y141487D01*
X189328Y141554D01*
X189495Y141624D01*
X189661Y141698D01*
X189824Y141777D01*
X189985Y141859D01*
X190145Y141945D01*
X190302Y142035D01*
X190457Y142129D01*
X190610Y142226D01*
X190760Y142328D01*
X190908Y142432D01*
X191054Y142541D01*
X191196Y142652D01*
X191336Y142768D01*
X191473Y142886D01*
X191608Y143008D01*
X191739Y143133D01*
X191867Y143261D01*
X191992Y143392D01*
X192114Y143527D01*
X192232Y143664D01*
X192348Y143804D01*
X192459Y143946D01*
X192568Y144092D01*
X192672Y144240D01*
X192774Y144390D01*
X192871Y144543D01*
X192965Y144698D01*
X193055Y144855D01*
X193141Y145015D01*
X193223Y145176D01*
X193302Y145339D01*
X193376Y145505D01*
X193446Y145672D01*
X193513Y145840D01*
X193575Y146011D01*
X193633Y146182D01*
X193687Y146355D01*
X193737Y146530D01*
X193782Y146705D01*
X193823Y146882D01*
X193860Y147059D01*
X193893Y147237D01*
X193921Y147416D01*
X193945Y147596D01*
X193965Y147776D01*
X193980Y147957D01*
X193991Y148138D01*
X193998Y148319D01*
X194000Y148500D01*
X194000Y271500D02*
X193998Y271681D01*
X193991Y271862D01*
X193980Y272043D01*
X193965Y272224D01*
X193945Y272404D01*
X193921Y272584D01*
X193893Y272763D01*
X193860Y272941D01*
X193823Y273118D01*
X193782Y273295D01*
X193737Y273470D01*
X193687Y273645D01*
X193633Y273818D01*
X193575Y273989D01*
X193513Y274160D01*
X193446Y274328D01*
X193376Y274495D01*
X193302Y274661D01*
X193223Y274824D01*
X193141Y274985D01*
X193055Y275145D01*
X192965Y275302D01*
X192871Y275457D01*
X192774Y275610D01*
X192672Y275760D01*
X192568Y275908D01*
X192459Y276054D01*
X192348Y276196D01*
X192232Y276336D01*
X192114Y276473D01*
X191992Y276608D01*
X191867Y276739D01*
X191739Y276867D01*
X191608Y276992D01*
X191473Y277114D01*
X191336Y277232D01*
X191196Y277348D01*
X191054Y277459D01*
X190908Y277568D01*
X190760Y277672D01*
X190610Y277774D01*
X190457Y277871D01*
X190302Y277965D01*
X190145Y278055D01*
X189985Y278141D01*
X189824Y278223D01*
X189661Y278302D01*
X189495Y278376D01*
X189328Y278446D01*
X189160Y278513D01*
X188989Y278575D01*
X188818Y278633D01*
X188645Y278687D01*
X188470Y278737D01*
X188295Y278782D01*
X188118Y278823D01*
X187941Y278860D01*
X187763Y278893D01*
X187584Y278921D01*
X187404Y278945D01*
X187224Y278965D01*
X187043Y278980D01*
X186862Y278991D01*
X186681Y278998D01*
X186500Y279000D01*
D12*
X71754Y159951D02*
X71754Y154454D01*
X71754Y156286D02*
X75418Y159951D01*
X72670Y157202D02*
X75418Y154454D01*
X77279Y158118D02*
X79111Y159951D01*
X79111Y154454D01*
X77279Y154454D02*
X80943Y154454D01*
X82803Y155370D02*
X82803Y159035D01*
X83720Y159951D01*
X85552Y159951D01*
X86468Y159035D01*
X86468Y155370D01*
X85552Y154454D01*
X83720Y154454D01*
X82803Y155370D01*
X86468Y159035D01*
X88328Y158118D02*
X90160Y159951D01*
X90160Y154454D01*
X88328Y154454D02*
X91993Y154454D01*
D15*
X205500Y237000D02*
X205500Y243000D01*
X214500Y243000D02*
X214500Y237000D01*
D12*
X217249Y227155D02*
X222746Y227155D01*
X222746Y229903D01*
X221830Y230820D01*
X218165Y230820D01*
X217249Y229903D01*
X217249Y227155D01*
X219082Y232680D02*
X217249Y234512D01*
X222746Y234512D01*
X222746Y232680D02*
X222746Y236344D01*
X221830Y238205D02*
X218165Y238205D01*
X217249Y239121D01*
X217249Y240953D01*
X218165Y241869D01*
X221830Y241869D01*
X222746Y240953D01*
X222746Y239121D01*
X221830Y238205D01*
X218165Y241869D01*
X218165Y243729D02*
X217249Y244645D01*
X217249Y246478D01*
X218165Y247394D01*
X219082Y247394D01*
X219998Y246478D01*
X219998Y245562D01*
X219998Y246478D02*
X220914Y247394D01*
X221830Y247394D01*
X222746Y246478D01*
X222746Y244645D01*
X221830Y243729D01*
X222199Y272036D02*
X227696Y272036D01*
X222199Y270204D02*
X222199Y273868D01*
X224032Y275729D02*
X222199Y277561D01*
X227696Y277561D01*
X227696Y275729D02*
X227696Y279393D01*
X226780Y281253D02*
X223115Y281253D01*
X222199Y282170D01*
X222199Y284002D01*
X223115Y284918D01*
X226780Y284918D01*
X227696Y284002D01*
X227696Y282170D01*
X226780Y281253D01*
X223115Y284918D01*
X227696Y286778D02*
X227696Y290443D01*
X224032Y290443D02*
X227696Y286778D01*
X224032Y290443D02*
X223115Y290443D01*
X222199Y289527D01*
X222199Y287694D01*
X223115Y286778D01*
D16*
X305000Y261500D02*
X305000Y358500D01*
X255000Y358500D02*
X255000Y261500D01*
X305000Y261500D01*
X305000Y358500D02*
X255000Y358500D01*
D12*
X258154Y276851D02*
X258154Y271354D01*
X258154Y276851D02*
X260902Y276851D01*
X261818Y275935D01*
X261818Y274102D01*
X260902Y273186D01*
X258154Y273186D01*
X259986Y273186D02*
X261818Y271354D01*
X263679Y275018D02*
X265511Y276851D01*
X265511Y271354D01*
X263679Y271354D02*
X267343Y271354D01*
X269203Y272270D02*
X269203Y275935D01*
X270120Y276851D01*
X271952Y276851D01*
X272868Y275935D01*
X272868Y272270D01*
X271952Y271354D01*
X270120Y271354D01*
X269203Y272270D01*
X272868Y275935D01*
X274728Y275018D02*
X276560Y276851D01*
X276560Y271354D01*
X274728Y271354D02*
X278393Y271354D01*
X261818Y263654D02*
X258154Y263654D01*
X261818Y267318D01*
X261818Y268235D01*
X260902Y269151D01*
X259070Y269151D01*
X258154Y268235D01*
X263679Y268235D02*
X263679Y264570D01*
X263679Y268235D02*
X264595Y269151D01*
X266427Y269151D01*
X267343Y268235D01*
X267343Y264570D01*
X266427Y263654D01*
X264595Y263654D01*
X263679Y264570D01*
X267343Y268235D01*
X269203Y269151D02*
X269203Y263654D01*
X269203Y265486D02*
X271952Y263654D01*
X269203Y265486D02*
X271952Y267318D01*
D16*
X375000Y261500D02*
X375000Y358500D01*
X325000Y358500D02*
X325000Y261500D01*
X375000Y261500D01*
X375000Y358500D02*
X325000Y358500D01*
D12*
X327154Y276851D02*
X327154Y271354D01*
X327154Y276851D02*
X329902Y276851D01*
X330818Y275935D01*
X330818Y274102D01*
X329902Y273186D01*
X327154Y273186D01*
X328986Y273186D02*
X330818Y271354D01*
X332679Y275018D02*
X334511Y276851D01*
X334511Y271354D01*
X332679Y271354D02*
X336343Y271354D01*
X338203Y275018D02*
X340036Y276851D01*
X340036Y271354D01*
X341868Y271354D02*
X338203Y271354D01*
X343728Y276851D02*
X347393Y276851D01*
X343728Y276851D02*
X343728Y274102D01*
X345560Y275018D01*
X346477Y275018D01*
X347393Y274102D01*
X347393Y272270D01*
X346477Y271354D01*
X344644Y271354D01*
X343728Y272270D01*
X330818Y263654D02*
X327154Y263654D01*
X330818Y267318D01*
X330818Y268235D01*
X329902Y269151D01*
X328070Y269151D01*
X327154Y268235D01*
X332679Y268235D02*
X332679Y264570D01*
X332679Y268235D02*
X333595Y269151D01*
X335427Y269151D01*
X336343Y268235D01*
X336343Y264570D01*
X335427Y263654D01*
X333595Y263654D01*
X332679Y264570D01*
X336343Y268235D01*
X338203Y269151D02*
X338203Y263654D01*
X338203Y265486D02*
X340952Y263654D01*
X338203Y265486D02*
X340952Y267318D01*
D10*
X311684Y55108D02*
X288316Y55108D01*
X303048Y104892D02*
X311684Y104892D01*
X303048Y104892D02*
X296952Y104892D01*
X288316Y104892D01*
X296952Y104892D02*
X296954Y104783D01*
X296960Y104675D01*
X296969Y104566D01*
X296983Y104458D01*
X297000Y104351D01*
X297022Y104244D01*
X297047Y104138D01*
X297075Y104033D01*
X297108Y103929D01*
X297144Y103827D01*
X297184Y103726D01*
X297227Y103626D01*
X297274Y103528D01*
X297325Y103431D01*
X297379Y103337D01*
X297436Y103244D01*
X297496Y103154D01*
X297560Y103065D01*
X297627Y102979D01*
X297696Y102896D01*
X297769Y102815D01*
X297845Y102737D01*
X297923Y102661D01*
X298004Y102588D01*
X298087Y102519D01*
X298173Y102452D01*
X298262Y102388D01*
X298352Y102328D01*
X298445Y102271D01*
X298539Y102217D01*
X298636Y102166D01*
X298734Y102119D01*
X298834Y102076D01*
X298935Y102036D01*
X299037Y102000D01*
X299141Y101967D01*
X299246Y101939D01*
X299352Y101914D01*
X299459Y101892D01*
X299566Y101875D01*
X299674Y101861D01*
X299783Y101852D01*
X299891Y101846D01*
X300000Y101844D01*
X300109Y101846D01*
X300217Y101852D01*
X300326Y101861D01*
X300434Y101875D01*
X300541Y101892D01*
X300648Y101914D01*
X300754Y101939D01*
X300859Y101967D01*
X300963Y102000D01*
X301065Y102036D01*
X301166Y102076D01*
X301266Y102119D01*
X301364Y102166D01*
X301461Y102217D01*
X301555Y102271D01*
X301648Y102328D01*
X301738Y102388D01*
X301827Y102452D01*
X301913Y102519D01*
X301996Y102588D01*
X302077Y102661D01*
X302155Y102737D01*
X302231Y102815D01*
X302304Y102896D01*
X302373Y102979D01*
X302440Y103065D01*
X302504Y103154D01*
X302564Y103244D01*
X302621Y103337D01*
X302675Y103431D01*
X302726Y103528D01*
X302773Y103626D01*
X302816Y103726D01*
X302856Y103827D01*
X302892Y103929D01*
X302925Y104033D01*
X302953Y104138D01*
X302978Y104244D01*
X303000Y104351D01*
X303017Y104458D01*
X303031Y104566D01*
X303040Y104675D01*
X303046Y104783D01*
X303048Y104892D01*
D11*
X276342Y105740D02*
X268377Y113706D01*
X276342Y113706D02*
X268377Y105740D01*
X268377Y109723D02*
X276342Y109723D01*
X272360Y105740D02*
X272360Y113706D01*
D12*
X290804Y92846D02*
X292636Y92846D01*
X291720Y92846D02*
X291720Y98343D01*
X290804Y98343D02*
X292636Y98343D01*
X294487Y96510D02*
X296319Y98343D01*
X296319Y92846D01*
X294487Y92846D02*
X298152Y92846D01*
X300012Y93762D02*
X300012Y97427D01*
X300928Y98343D01*
X302760Y98343D01*
X303676Y97427D01*
X303676Y93762D01*
X302760Y92846D01*
X300928Y92846D01*
X300012Y93762D01*
X303676Y97427D01*
X305537Y92846D02*
X309201Y92846D01*
X305537Y92846D02*
X309201Y96510D01*
X309201Y97427D01*
X308285Y98343D01*
X306453Y98343D01*
X305537Y97427D01*
X113218Y39535D02*
X112302Y40451D01*
X110470Y40451D01*
X109554Y39535D01*
X109554Y35870D01*
X110470Y34954D01*
X112302Y34954D01*
X113218Y35870D01*
X115079Y38618D02*
X116911Y40451D01*
X116911Y34954D01*
X115079Y34954D02*
X118743Y34954D01*
X120603Y35870D02*
X120603Y39535D01*
X121520Y40451D01*
X123352Y40451D01*
X124268Y39535D01*
X124268Y35870D01*
X123352Y34954D01*
X121520Y34954D01*
X120603Y35870D01*
X124268Y39535D01*
X126128Y39535D02*
X127044Y40451D01*
X128877Y40451D01*
X129793Y39535D01*
X129793Y38618D01*
X128877Y37702D01*
X127960Y37702D01*
X128877Y37702D02*
X129793Y36786D01*
X129793Y35870D01*
X128877Y34954D01*
X127044Y34954D01*
X126128Y35870D01*
X386364Y97144D02*
X386364Y102641D01*
X389112Y102641D01*
X390028Y101725D01*
X390028Y99892D01*
X389112Y98976D01*
X386364Y98976D01*
X388196Y98976D02*
X390028Y97144D01*
X391889Y100808D02*
X393721Y102641D01*
X393721Y97144D01*
X391889Y97144D02*
X395553Y97144D01*
X397413Y98060D02*
X397413Y101725D01*
X398330Y102641D01*
X400162Y102641D01*
X401078Y101725D01*
X401078Y98060D01*
X400162Y97144D01*
X398330Y97144D01*
X397413Y98060D01*
X401078Y101725D01*
X402938Y98060D02*
X403854Y97144D01*
X405687Y97144D01*
X406603Y98060D01*
X406603Y101725D01*
X405687Y102641D01*
X403854Y102641D01*
X402938Y101725D01*
X402938Y100808D01*
X403854Y99892D01*
X406603Y99892D01*
X235364Y97144D02*
X235364Y102641D01*
X238112Y102641D01*
X239028Y101725D01*
X239028Y99892D01*
X238112Y98976D01*
X235364Y98976D01*
X237196Y98976D02*
X239028Y97144D01*
X240889Y100808D02*
X242721Y102641D01*
X242721Y97144D01*
X240889Y97144D02*
X244553Y97144D01*
X246413Y98060D02*
X246413Y101725D01*
X247330Y102641D01*
X249162Y102641D01*
X250078Y101725D01*
X250078Y98060D01*
X249162Y97144D01*
X247330Y97144D01*
X246413Y98060D01*
X250078Y101725D01*
X254687Y102641D02*
X254687Y97144D01*
X251938Y99892D02*
X254687Y102641D01*
X255603Y99892D02*
X251938Y99892D01*
X415364Y137144D02*
X415364Y142641D01*
X418112Y142641D01*
X419028Y141725D01*
X419028Y139892D01*
X418112Y138976D01*
X415364Y138976D01*
X417196Y138976D02*
X419028Y137144D01*
X420889Y140808D02*
X422721Y142641D01*
X422721Y137144D01*
X420889Y137144D02*
X424553Y137144D01*
X426413Y138060D02*
X426413Y141725D01*
X427330Y142641D01*
X429162Y142641D01*
X430078Y141725D01*
X430078Y138060D01*
X429162Y137144D01*
X427330Y137144D01*
X426413Y138060D01*
X430078Y141725D01*
X431938Y142641D02*
X435603Y142641D01*
X431938Y142641D02*
X431938Y139892D01*
X433770Y140808D01*
X434687Y140808D01*
X435603Y139892D01*
X435603Y138060D01*
X434687Y137144D01*
X432854Y137144D01*
X431938Y138060D01*
X416364Y102641D02*
X416364Y97144D01*
X416364Y102641D02*
X419112Y102641D01*
X420028Y101725D01*
X420028Y99892D01*
X419112Y98976D01*
X416364Y98976D01*
X418196Y98976D02*
X420028Y97144D01*
X421889Y100808D02*
X423721Y102641D01*
X423721Y97144D01*
X421889Y97144D02*
X425553Y97144D01*
X427413Y100808D02*
X429246Y102641D01*
X429246Y97144D01*
X431078Y97144D02*
X427413Y97144D01*
X435687Y97144D02*
X435687Y102641D01*
X432938Y99892D01*
X436603Y99892D01*
X205364Y97144D02*
X205364Y102641D01*
X208112Y102641D01*
X209028Y101725D01*
X209028Y99892D01*
X208112Y98976D01*
X205364Y98976D01*
X207196Y98976D02*
X209028Y97144D01*
X210889Y100808D02*
X212721Y102641D01*
X212721Y97144D01*
X210889Y97144D02*
X214553Y97144D01*
X216413Y100808D02*
X218246Y102641D01*
X218246Y97144D01*
X220078Y97144D02*
X216413Y97144D01*
X221938Y101725D02*
X222854Y102641D01*
X224687Y102641D01*
X225603Y101725D01*
X225603Y100808D01*
X224687Y99892D01*
X223770Y99892D01*
X224687Y99892D02*
X225603Y98976D01*
X225603Y98060D01*
X224687Y97144D01*
X222854Y97144D01*
X221938Y98060D01*
X415364Y177144D02*
X415364Y182641D01*
X418112Y182641D01*
X419028Y181725D01*
X419028Y179892D01*
X418112Y178976D01*
X415364Y178976D01*
X417196Y178976D02*
X419028Y177144D01*
X420889Y180808D02*
X422721Y182641D01*
X422721Y177144D01*
X420889Y177144D02*
X424553Y177144D01*
X426413Y178060D02*
X426413Y181725D01*
X427330Y182641D01*
X429162Y182641D01*
X430078Y181725D01*
X430078Y178060D01*
X429162Y177144D01*
X427330Y177144D01*
X426413Y178060D01*
X430078Y181725D01*
X433770Y181725D02*
X435603Y182641D01*
X433770Y181725D02*
X431938Y179892D01*
X431938Y178060D01*
X432854Y177144D01*
X434687Y177144D01*
X435603Y178060D01*
X435603Y178976D01*
X434687Y179892D01*
X431938Y179892D01*
X205364Y217144D02*
X205364Y222641D01*
X208112Y222641D01*
X209028Y221725D01*
X209028Y219892D01*
X208112Y218976D01*
X205364Y218976D01*
X207196Y218976D02*
X209028Y217144D01*
X210889Y220808D02*
X212721Y222641D01*
X212721Y217144D01*
X210889Y217144D02*
X214553Y217144D01*
X216413Y218060D02*
X216413Y221725D01*
X217330Y222641D01*
X219162Y222641D01*
X220078Y221725D01*
X220078Y218060D01*
X219162Y217144D01*
X217330Y217144D01*
X216413Y218060D01*
X220078Y221725D01*
X221938Y222641D02*
X225603Y222641D01*
X225603Y221725D01*
X221938Y218060D01*
X221938Y217144D01*
X82002Y40751D02*
X82918Y39835D01*
X82002Y40751D02*
X80170Y40751D01*
X79254Y39835D01*
X79254Y36170D01*
X80170Y35254D01*
X82002Y35254D01*
X82918Y36170D01*
X84779Y38918D02*
X86611Y40751D01*
X86611Y35254D01*
X84779Y35254D02*
X88443Y35254D01*
X90303Y36170D02*
X90303Y39835D01*
X91220Y40751D01*
X93052Y40751D01*
X93968Y39835D01*
X93968Y36170D01*
X93052Y35254D01*
X91220Y35254D01*
X90303Y36170D01*
X93968Y39835D01*
X98577Y40751D02*
X98577Y35254D01*
X95828Y38002D02*
X98577Y40751D01*
X99493Y38002D02*
X95828Y38002D01*
X245364Y121144D02*
X245364Y126641D01*
X248112Y126641D01*
X249028Y125725D01*
X249028Y123892D01*
X248112Y122976D01*
X245364Y122976D01*
X247196Y122976D02*
X249028Y121144D01*
X250889Y124808D02*
X252721Y126641D01*
X252721Y121144D01*
X250889Y121144D02*
X254553Y121144D01*
X256413Y124808D02*
X258246Y126641D01*
X258246Y121144D01*
X260078Y121144D02*
X256413Y121144D01*
X261938Y122060D02*
X262854Y121144D01*
X264687Y121144D01*
X265603Y122060D01*
X265603Y125725D01*
X264687Y126641D01*
X262854Y126641D01*
X261938Y125725D01*
X261938Y124808D01*
X262854Y123892D01*
X265603Y123892D01*
X245364Y242144D02*
X245364Y247641D01*
X248112Y247641D01*
X249028Y246725D01*
X249028Y244892D01*
X248112Y243976D01*
X245364Y243976D01*
X247196Y243976D02*
X249028Y242144D01*
X250889Y245808D02*
X252721Y247641D01*
X252721Y242144D01*
X250889Y242144D02*
X254553Y242144D01*
X256413Y245808D02*
X258246Y247641D01*
X258246Y242144D01*
X260078Y242144D02*
X256413Y242144D01*
X261938Y243060D02*
X261938Y246725D01*
X262854Y247641D01*
X264687Y247641D01*
X265603Y246725D01*
X265603Y243060D01*
X264687Y242144D01*
X262854Y242144D01*
X261938Y243060D01*
X265603Y246725D01*
X227696Y153036D02*
X222199Y153036D01*
X222199Y151204D02*
X222199Y154868D01*
X224032Y156729D02*
X222199Y158561D01*
X227696Y158561D01*
X227696Y156729D02*
X227696Y160393D01*
X226780Y162253D02*
X223115Y162253D01*
X222199Y163170D01*
X222199Y165002D01*
X223115Y165918D01*
X226780Y165918D01*
X227696Y165002D01*
X227696Y163170D01*
X226780Y162253D01*
X223115Y165918D01*
X224032Y167778D02*
X222199Y169610D01*
X227696Y169610D01*
X227696Y167778D02*
X227696Y171443D01*
X358112Y102371D02*
X359028Y101455D01*
X358112Y102371D02*
X356280Y102371D01*
X355364Y101455D01*
X355364Y97790D01*
X356280Y96874D01*
X358112Y96874D01*
X359028Y97790D01*
X360889Y100538D02*
X362721Y102371D01*
X362721Y96874D01*
X360889Y96874D02*
X364553Y96874D01*
X366413Y97790D02*
X366413Y101455D01*
X367330Y102371D01*
X369162Y102371D01*
X370078Y101455D01*
X370078Y97790D01*
X369162Y96874D01*
X367330Y96874D01*
X366413Y97790D01*
X370078Y101455D01*
X371938Y100538D02*
X373770Y102371D01*
X373770Y96874D01*
X371938Y96874D02*
X375603Y96874D01*
X235364Y217144D02*
X235364Y222641D01*
X238112Y222641D01*
X239028Y221725D01*
X239028Y219892D01*
X238112Y218976D01*
X235364Y218976D01*
X237196Y218976D02*
X239028Y217144D01*
X240889Y220808D02*
X242721Y222641D01*
X242721Y217144D01*
X240889Y217144D02*
X244553Y217144D01*
X246413Y217144D02*
X250078Y217144D01*
X250078Y220808D02*
X246413Y217144D01*
X250078Y220808D02*
X250078Y221725D01*
X249162Y222641D01*
X247330Y222641D01*
X246413Y221725D01*
X251938Y217144D02*
X255603Y217144D01*
X255603Y220808D02*
X251938Y217144D01*
X255603Y220808D02*
X255603Y221725D01*
X254687Y222641D01*
X252854Y222641D01*
X251938Y221725D01*
X115364Y135641D02*
X115364Y130144D01*
X115364Y135641D02*
X118112Y135641D01*
X119028Y134725D01*
X119028Y132892D01*
X118112Y131976D01*
X115364Y131976D01*
X117196Y131976D02*
X119028Y130144D01*
X120889Y133808D02*
X122721Y135641D01*
X122721Y130144D01*
X120889Y130144D02*
X124553Y130144D01*
X126413Y130144D02*
X130078Y130144D01*
X130078Y133808D02*
X126413Y130144D01*
X130078Y133808D02*
X130078Y134725D01*
X129162Y135641D01*
X127330Y135641D01*
X126413Y134725D01*
X131938Y134725D02*
X132854Y135641D01*
X134687Y135641D01*
X135603Y134725D01*
X135603Y133808D01*
X134687Y132892D01*
X133770Y132892D01*
X134687Y132892D02*
X135603Y131976D01*
X135603Y131060D01*
X134687Y130144D01*
X132854Y130144D01*
X131938Y131060D01*
X205364Y137144D02*
X205364Y142641D01*
X208112Y142641D01*
X209028Y141725D01*
X209028Y139892D01*
X208112Y138976D01*
X205364Y138976D01*
X207196Y138976D02*
X209028Y137144D01*
X210889Y140808D02*
X212721Y142641D01*
X212721Y137144D01*
X210889Y137144D02*
X214553Y137144D01*
X216413Y137144D02*
X220078Y137144D01*
X220078Y140808D02*
X216413Y137144D01*
X220078Y140808D02*
X220078Y141725D01*
X219162Y142641D01*
X217330Y142641D01*
X216413Y141725D01*
X224687Y142641D02*
X224687Y137144D01*
X221938Y139892D02*
X224687Y142641D01*
X225603Y139892D02*
X221938Y139892D01*
X222199Y32036D02*
X227696Y32036D01*
X222199Y30204D02*
X222199Y33868D01*
X224032Y35729D02*
X222199Y37561D01*
X227696Y37561D01*
X227696Y35729D02*
X227696Y39393D01*
X226780Y41253D02*
X223115Y41253D01*
X222199Y42170D01*
X222199Y44002D01*
X223115Y44918D01*
X226780Y44918D01*
X227696Y44002D01*
X227696Y42170D01*
X226780Y41253D01*
X223115Y44918D01*
X223115Y46778D02*
X222199Y47694D01*
X222199Y49527D01*
X223115Y50443D01*
X224032Y50443D01*
X224948Y49527D01*
X224948Y48610D01*
X224948Y49527D02*
X225864Y50443D01*
X226780Y50443D01*
X227696Y49527D01*
X227696Y47694D01*
X226780Y46778D01*
X150568Y28185D02*
X149652Y29101D01*
X147820Y29101D01*
X146904Y28185D01*
X146904Y24520D01*
X147820Y23604D01*
X149652Y23604D01*
X150568Y24520D01*
X152429Y27268D02*
X154261Y29101D01*
X154261Y23604D01*
X152429Y23604D02*
X156093Y23604D01*
X157953Y27268D02*
X159786Y29101D01*
X159786Y23604D01*
X161618Y23604D02*
X157953Y23604D01*
X163478Y24520D02*
X163478Y28185D01*
X164394Y29101D01*
X166227Y29101D01*
X167143Y28185D01*
X167143Y24520D01*
X166227Y23604D01*
X164394Y23604D01*
X163478Y24520D01*
X167143Y28185D01*
X177364Y28641D02*
X177364Y23144D01*
X177364Y28641D02*
X180112Y28641D01*
X181028Y27725D01*
X181028Y25892D01*
X180112Y24976D01*
X177364Y24976D01*
X179196Y24976D02*
X181028Y23144D01*
X182889Y26808D02*
X184721Y28641D01*
X184721Y23144D01*
X182889Y23144D02*
X186553Y23144D01*
X188413Y23144D02*
X192078Y23144D01*
X192078Y26808D02*
X188413Y23144D01*
X192078Y26808D02*
X192078Y27725D01*
X191162Y28641D01*
X189330Y28641D01*
X188413Y27725D01*
X193938Y28641D02*
X197603Y28641D01*
X193938Y28641D02*
X193938Y25892D01*
X195770Y26808D01*
X196687Y26808D01*
X197603Y25892D01*
X197603Y24060D01*
X196687Y23144D01*
X194854Y23144D01*
X193938Y24060D01*
D17*
X21950Y102800D02*
X-9800Y102800D01*
X21950Y102800D02*
X21950Y109150D01*
X15600Y109150D01*
X15600Y121850D01*
X21950Y121850D01*
X21950Y134550D01*
X15600Y134550D01*
X15600Y147250D01*
X21950Y147250D01*
X21950Y159950D01*
X15600Y159950D01*
X15600Y172650D01*
X21950Y172650D01*
X21950Y185350D01*
X15600Y185350D01*
X15600Y198050D01*
X21950Y198050D01*
X21950Y210750D01*
X15600Y210750D01*
X15600Y223450D01*
X21950Y223450D01*
X21950Y236150D01*
X15600Y236150D01*
X15600Y248850D01*
X21950Y248850D01*
X21950Y255200D01*
X-9800Y255200D01*
X-9800Y246310D01*
X-9800Y170110D01*
D16*
X-9800Y166808D01*
D17*
X-9800Y115500D01*
X-9800Y102800D01*
X-9800Y115500D02*
X-89810Y115500D01*
X-94890Y118040D01*
X-94890Y166808D01*
X-75586Y166808D01*
X-9800Y166808D01*
X-9800Y242500D02*
X-89810Y242500D01*
X-94890Y239960D01*
X-94890Y191192D01*
X-9800Y191192D01*
X-9800Y170110D02*
X-72030Y170110D01*
X-75586Y166808D01*
X-72030Y246310D02*
X-9800Y246310D01*
X-72030Y246310D02*
X-75586Y243008D01*
X-72030Y111690D02*
X-9800Y111690D01*
X-72030Y111690D02*
X-75586Y114992D01*
X-72030Y187890D02*
X-9800Y187890D01*
X-72030Y187890D02*
X-75586Y191192D01*
D18*
X-3826Y115818D02*
X-182Y119461D01*
X-182Y108530D01*
X-3826Y108530D02*
X3462Y108530D01*
X1088Y244131D02*
X4732Y245953D01*
X1088Y244131D02*
X-2556Y240488D01*
X-2556Y236844D01*
X-734Y235022D01*
X2910Y235022D01*
X4732Y236844D01*
X4732Y238666D01*
X2910Y240488D01*
X-2556Y240488D01*
D14*
X69971Y103832D02*
X68446Y102307D01*
X69971Y103832D02*
X69971Y105358D01*
X68446Y106883D01*
X60819Y106883D01*
X60819Y105358D02*
X60819Y108408D01*
X63870Y111662D02*
X60819Y114713D01*
X69971Y114713D01*
X69971Y117763D02*
X69971Y111662D01*
M02*
