<?xml version="1.0" encoding="utf-8" ?><!DOCTYPE svg PUBLIC "-//W3C//DTD SVG 1.1//EN" "http://www.w3.org/Graphics/SVG/1.1/DTD/svg11.dtd" 
[ <!ATTLIST svg 
  xmlns:dsy CDATA #FIXED "http://www.3ds.com/print"  
    dsy:text-version CDATA #IMPLIED > 

  <!ATTLIST text 
  xmlns:dsy CDATA #FIXED "http://www.3ds.com/print" 
    dsy:text-version CDATA #IMPLIED > 
]><svg xmlns="http://www.w3.org/2000/svg" xmlns:dsy="http://www.3ds.com/print" dsy:text-version="18000" width="1189" height="841" viewBox="0 0 1189 841" version="1.1"><g stroke="rgb(0, 0, 0)" stroke-width="0.35" stroke-linecap="butt" stroke-linejoin="miter" fill="none"><circle cx="453.575" cy="374.796" r="1.5"/><path d="M 711.909 358.704 L 477.091 358.704"/><path d="M 477.091 358.704 A 100 100 0 0 0 447.654 363.135"/><path d="M 447.654 363.135 A 15 15 0 0 0 437.079 377.999"/><path d="M 410.818 397.694 A 20 20 0 0 0 437.079 377.999"/><path d="M 410.818 397.694 A 15 15 0 0 0 393.588 403.684"/><path d="M 393.588 403.684 A 100 100 0 0 0 380.226 433.864"/><path d="M 380.225 433.864 L 367.806 482.296"/><path d="M 367.806 482.296 L 821.195 482.296"/><path d="M 808.775 433.864 L 821.195 482.296"/><path d="M 808.775 433.864 A 100 100 0 0 0 795.413 403.685"/><path d="M 795.413 403.685 A 15 15 0 0 0 778.182 397.695"/><path d="M 751.921 377.999 A 20 20 0 0 0 778.182 397.695"/><path d="M 751.921 377.999 A 15 15 0 0 0 741.346 363.135"/><path d="M 741.346 363.135 A 100 100 0 0 0 711.909 358.704"/><path d="M 450.226 383.296 L 487.726 383.296"/><path d="M 450.226 383.296 L 450.226 402.296"/><path d="M 487.726 402.296 L 450.226 402.296"/><path d="M 487.726 402.296 L 487.726 383.296"/><circle cx="412.806" cy="429.697" r="9.59998"/><path d="M 761.844 442.629 L 761.844 444.196"/><path d="M 760.544 444.196 L 761.844 444.196"/><path d="M 760.544 444.196 L 760.544 442.629"/><path d="M 760.544 442.629 A 6.34998 6.34998 0 1 0 761.844 442.629"/><path d="M 739.144 442.629 L 739.144 444.196"/><path d="M 737.844 444.196 L 739.144 444.196"/><path d="M 737.844 444.196 L 737.844 442.629"/><path d="M 737.844 442.629 A 6.34998 6.34998 0 1 0 739.144 442.629"/><path d="M 716.444 442.629 L 716.444 444.196"/><path d="M 715.144 444.196 L 716.444 444.196"/><path d="M 715.144 444.196 L 715.144 442.629"/><path d="M 715.144 442.629 A 6.34998 6.34998 0 1 0 716.444 442.629"/><path d="M 722.044 386.341 L 722.044 387.296"/><path d="M 720.344 387.296 L 722.044 387.296"/><path d="M 720.344 387.296 L 720.344 386.341"/><path d="M 720.345 386.341 A 8 8 0 1 0 722.044 386.341"/><circle cx="442.805" cy="429.296" r="9.59998"/><path d="M 473.455 422.979 L 473.455 424.546"/><path d="M 472.155 424.546 L 473.455 424.546"/><path d="M 472.155 424.546 L 472.155 422.979"/><path d="M 472.155 422.979 A 6.34998 6.34998 0 1 0 473.455 422.979"/><circle cx="472.805" cy="455.296" r="9.59998"/><circle cx="442.805" cy="455.296" r="9.59998"/><path d="M 413.455 448.979 L 413.455 450.546"/><path d="M 412.155 450.546 L 413.455 450.546"/><path d="M 412.155 450.546 L 412.155 448.979"/><path d="M 412.155 448.979 A 6.34998 6.34998 0 1 0 413.455 448.979"/><path d="M 584.499 385.704 L 606.999 385.704"/><path d="M 584.499 385.704 L 584.499 418.604"/><path d="M 606.999 418.604 L 584.499 418.604"/><path d="M 606.999 418.604 L 606.999 385.704"/><circle cx="520.575" cy="374.796" r="1.5"/><circle cx="453.575" cy="410.796" r="1.5"/><circle cx="520.575" cy="410.796" r="1.5"/></g><g stroke="rgb(0, 0, 0)" stroke-width="0.13" stroke-linecap="butt" stroke-linejoin="miter" fill="none"><path d="M 596.896 490.648 L 596.018 493.628 L 595.115 490.648 L 594.636 490.648 L 595.766 494.153 L 596.27 494.153 L 597.375 490.648 L 596.896 490.648 L 596.896 490.648 z M 600.098 491.444 L 599.654 491.444 L 599.654 493.008 L 599.604 493.371 L 599.457 493.633 L 599.231 493.795 L 598.933 493.845 L 598.696 493.805 L 598.545 493.684 L 598.459 493.477 L 598.439 493.184 L 598.439 491.444 L 597.995 491.444 L 597.995 493.225 L 598.01 493.583 L 598.106 493.88 L 598.398 494.153 L 598.867 494.248 L 599.12 494.213 L 599.336 494.122 L 599.523 493.966 L 599.674 493.739 L 599.674 494.153 L 600.098 494.153 L 600.098 491.444 L 600.098 491.444 z M 601.434 492.927 L 603.21 492.927 L 603.215 492.72 L 603.134 492.14 L 602.912 491.707 L 602.559 491.444 L 602.09 491.349 L 601.631 491.449 L 601.278 491.732 L 601.051 492.191 L 600.97 492.796 L 601.046 493.416 L 601.273 493.87 L 601.621 494.153 L 602.075 494.248 L 602.468 494.183 L 602.791 494.011 L 603.028 493.739 L 603.164 493.376 L 602.725 493.376 L 602.635 493.578 L 602.504 493.729 L 602.13 493.85 L 601.843 493.795 L 601.626 493.618 L 601.485 493.331 L 601.434 492.942 L 601.434 492.927 L 601.434 492.927 z M 601.434 492.554 L 601.49 492.206 L 601.626 491.949 L 601.833 491.792 L 602.105 491.737 L 602.372 491.792 L 602.579 491.949 L 602.705 492.206 L 602.751 492.554 L 601.434 492.554 L 601.434 492.554 z M 608.782 493.734 L 608.782 494.153 L 609.226 494.153 L 609.226 490.532 L 608.787 490.532 L 608.787 491.858 L 608.45 491.475 L 608.243 491.384 L 608.006 491.349 L 607.577 491.449 L 607.244 491.732 L 607.027 492.186 L 606.952 492.796 L 607.027 493.406 L 607.244 493.865 L 607.577 494.153 L 608.006 494.248 L 608.243 494.213 L 608.455 494.122 L 608.782 493.734 L 608.782 493.734 z M 608.081 491.747 L 608.374 491.818 L 608.596 492.014 L 608.727 492.342 L 608.777 492.796 L 608.727 493.255 L 608.596 493.583 L 608.374 493.784 L 608.081 493.85 L 607.804 493.784 L 607.592 493.583 L 607.451 493.25 L 607.406 492.796 L 607.451 492.347 L 607.592 492.019 L 607.804 491.818 L 608.081 491.747 L 608.081 491.747 z M 610.542 492.927 L 612.318 492.927 L 612.323 492.72 L 612.242 492.14 L 612.02 491.707 L 611.667 491.444 L 611.198 491.349 L 610.739 491.449 L 610.386 491.732 L 610.159 492.191 L 610.078 492.796 L 610.154 493.416 L 610.381 493.87 L 610.729 494.153 L 611.183 494.248 L 611.576 494.183 L 611.899 494.011 L 612.136 493.739 L 612.272 493.376 L 611.833 493.376 L 611.743 493.578 L 611.612 493.729 L 611.238 493.85 L 610.951 493.795 L 610.734 493.618 L 610.593 493.331 L 610.542 492.942 L 610.542 492.927 L 610.542 492.927 z M 610.542 492.554 L 610.598 492.206 L 610.734 491.949 L 610.941 491.792 L 611.213 491.737 L 611.48 491.792 L 611.687 491.949 L 611.813 492.206 L 611.859 492.554 L 610.542 492.554 L 610.542 492.554 z M 616.841 491.913 L 616.841 494.153 L 617.285 494.153 L 617.285 491.913 L 618.294 491.913 L 618.294 491.535 L 617.285 491.535 L 617.285 491.369 L 617.32 491.167 L 617.437 491.031 L 617.633 490.95 L 617.916 490.92 L 618.294 490.94 L 618.294 490.557 L 617.815 490.532 L 617.381 490.577 L 617.078 490.713 L 616.897 490.95 L 616.841 491.288 L 616.841 491.535 L 616.029 491.535 L 616.029 491.913 L 616.841 491.913 L 616.841 491.913 z M 620.871 493.8 L 620.871 493.815 L 620.896 493.986 L 620.972 494.107 L 621.289 494.203 L 621.537 494.163 L 621.537 493.82 L 621.431 493.835 L 621.289 493.769 L 621.264 493.568 L 621.264 492.166 L 621.204 491.808 L 621.027 491.555 L 620.72 491.404 L 620.286 491.349 L 619.862 491.409 L 619.55 491.581 L 619.353 491.848 L 619.287 492.201 L 619.287 492.231 L 619.686 492.231 L 619.721 492.019 L 619.832 491.868 L 620.014 491.777 L 620.271 491.742 L 620.518 491.767 L 620.694 491.843 L 620.8 491.974 L 620.836 492.156 L 620.815 492.367 L 620.735 492.473 L 620.533 492.524 L 620.155 492.564 L 619.721 492.655 L 619.413 492.816 L 619.232 493.068 L 619.176 493.442 L 619.227 493.774 L 619.383 494.021 L 619.635 494.178 L 619.983 494.233 L 620.452 494.127 L 620.871 493.8 L 620.871 493.8 z M 620.82 493.204 L 620.76 493.467 L 620.599 493.668 L 620.357 493.8 L 620.059 493.845 L 619.867 493.82 L 619.731 493.739 L 619.645 493.598 L 619.62 493.401 L 619.64 493.225 L 619.721 493.099 L 620.044 492.957 L 620.452 492.897 L 620.82 492.776 L 620.82 493.204 L 620.82 493.204 z M 624.023 492.342 L 624.462 492.342 L 624.371 491.939 L 624.154 491.621 L 623.816 491.424 L 623.377 491.349 L 622.893 491.449 L 622.525 491.732 L 622.293 492.191 L 622.212 492.806 L 622.288 493.416 L 622.515 493.87 L 622.873 494.153 L 623.362 494.248 L 623.796 494.173 L 624.134 493.961 L 624.366 493.628 L 624.467 493.184 L 624.043 493.184 L 623.967 493.467 L 623.826 493.679 L 623.625 493.81 L 623.377 493.85 L 623.07 493.784 L 622.848 493.583 L 622.712 493.255 L 622.666 492.791 L 622.712 492.337 L 622.853 492.009 L 623.08 491.808 L 623.377 491.737 L 623.64 491.782 L 623.836 491.898 L 623.967 492.09 L 624.023 492.342 L 624.023 492.342 z M 625.722 492.927 L 627.498 492.927 L 627.503 492.72 L 627.422 492.14 L 627.2 491.707 L 626.847 491.444 L 626.378 491.349 L 625.919 491.449 L 625.566 491.732 L 625.339 492.191 L 625.259 492.796 L 625.334 493.416 L 625.561 493.87 L 625.909 494.153 L 626.363 494.248 L 626.756 494.183 L 627.079 494.011 L 627.316 493.739 L 627.452 493.376 L 627.014 493.376 L 626.923 493.578 L 626.792 493.729 L 626.418 493.85 L 626.131 493.795 L 625.914 493.618 L 625.773 493.331 L 625.722 492.942 L 625.722 492.927 L 625.722 492.927 z M 625.722 492.554 L 625.778 492.206 L 625.914 491.949 L 626.121 491.792 L 626.393 491.737 L 626.661 491.792 L 626.867 491.949 L 626.993 492.206 L 627.039 492.554 L 625.722 492.554 L 625.722 492.554 z" stroke="none" fill-rule="evenodd" fill="rgb(0, 0, 0)"/></g><g stroke="rgb(0, 0, 0)" stroke-width="0.13" stroke-linecap="butt" stroke-linejoin="miter" fill="none"><path d="M 594.959 500.199 L 597.178 500.199 L 597.178 499.776 L 595.423 499.776 L 595.423 498.591 L 596.986 498.591 L 596.986 498.172 L 595.423 498.172 L 595.423 497.123 L 597.138 497.123 L 597.138 496.699 L 594.959 496.699 L 594.959 500.199 L 594.959 500.199 z M 599.735 498.389 L 600.174 498.389 L 600.083 497.985 L 599.866 497.668 L 599.528 497.471 L 599.089 497.395 L 598.605 497.496 L 598.237 497.779 L 598.005 498.238 L 597.924 498.853 L 598 499.463 L 598.227 499.917 L 598.585 500.199 L 599.074 500.295 L 599.508 500.22 L 599.846 500.008 L 600.078 499.675 L 600.179 499.231 L 599.755 499.231 L 599.679 499.514 L 599.538 499.725 L 599.336 499.857 L 599.089 499.897 L 598.782 499.831 L 598.56 499.63 L 598.424 499.302 L 598.378 498.838 L 598.424 498.384 L 598.565 498.056 L 598.792 497.854 L 599.089 497.784 L 599.352 497.829 L 599.548 497.945 L 599.679 498.137 L 599.735 498.389 L 599.735 498.389 z M 601.046 500.199 L 601.49 500.199 L 601.49 498.636 L 601.535 498.278 L 601.682 498.016 L 601.908 497.854 L 602.211 497.794 L 602.453 497.844 L 602.604 497.98 L 602.68 498.207 L 602.705 498.51 L 602.705 500.199 L 603.149 500.199 L 603.149 498.419 L 603.129 498.061 L 603.038 497.764 L 602.741 497.491 L 602.277 497.395 L 602.024 497.431 L 601.808 497.527 L 601.626 497.678 L 601.49 497.885 L 601.49 496.578 L 601.046 496.578 L 601.046 500.199 L 601.046 500.199 z M 604.47 498.974 L 606.246 498.974 L 606.251 498.767 L 606.17 498.187 L 605.948 497.753 L 605.595 497.491 L 605.126 497.395 L 604.667 497.496 L 604.314 497.779 L 604.087 498.238 L 604.006 498.843 L 604.082 499.463 L 604.309 499.917 L 604.657 500.199 L 605.111 500.295 L 605.504 500.23 L 605.827 500.058 L 606.064 499.786 L 606.2 499.423 L 605.761 499.423 L 605.671 499.625 L 605.54 499.776 L 605.166 499.897 L 604.879 499.841 L 604.662 499.665 L 604.521 499.377 L 604.47 498.989 L 604.47 498.974 L 604.47 498.974 z M 604.47 498.601 L 604.526 498.253 L 604.662 497.996 L 604.869 497.839 L 605.141 497.784 L 605.408 497.839 L 605.615 497.996 L 605.741 498.253 L 605.787 498.601 L 604.47 498.601 L 604.47 498.601 z M 608.001 496.952 L 608.001 499.826 L 607.088 499.826 L 607.088 500.199 L 609.352 500.199 L 609.352 499.826 L 608.444 499.826 L 608.444 496.578 L 607.305 496.578 L 607.305 496.952 L 608.001 496.952 L 608.001 496.952 z M 611.037 496.952 L 611.037 499.826 L 610.124 499.826 L 610.124 500.199 L 612.388 500.199 L 612.388 499.826 L 611.48 499.826 L 611.48 496.578 L 610.341 496.578 L 610.341 496.952 L 611.037 496.952 L 611.037 496.952 z M 613.578 498.974 L 615.354 498.974 L 615.359 498.767 L 615.278 498.187 L 615.056 497.753 L 614.703 497.491 L 614.234 497.395 L 613.775 497.496 L 613.422 497.779 L 613.195 498.238 L 613.115 498.843 L 613.19 499.463 L 613.417 499.917 L 613.765 500.199 L 614.219 500.295 L 614.612 500.23 L 614.935 500.058 L 615.172 499.786 L 615.308 499.423 L 614.87 499.423 L 614.779 499.625 L 614.648 499.776 L 614.274 499.897 L 613.987 499.841 L 613.77 499.665 L 613.629 499.377 L 613.578 498.989 L 613.578 498.974 L 613.578 498.974 z M 613.578 498.601 L 613.634 498.253 L 613.77 497.996 L 613.977 497.839 L 614.249 497.784 L 614.516 497.839 L 614.723 497.996 L 614.849 498.253 L 614.895 498.601 L 613.578 498.601 L 613.578 498.601 z M 619.958 500.199 L 620.654 500.199 L 620.654 499.448 L 619.958 499.448 L 619.958 500.199 L 619.958 500.199 z M 619.958 498.243 L 620.654 498.243 L 620.654 497.491 L 619.958 497.491 L 619.958 498.243 L 619.958 498.243 z" stroke="none" fill-rule="evenodd" fill="rgb(0, 0, 0)"/></g><g stroke="rgb(0, 0, 0)" stroke-width="0.13" stroke-linecap="butt" stroke-linejoin="miter" fill="none"><path d="M 629.323 500.199 L 629.782 500.199 L 629.782 496.674 L 629.439 496.674 L 629.349 496.982 L 629.167 497.189 L 628.89 497.31 L 628.506 497.35 L 628.506 497.708 L 629.323 497.708 L 629.323 500.199 L 629.323 500.199 z M 632.102 500.199 L 632.798 500.199 L 632.798 499.448 L 632.102 499.448 L 632.102 500.199 L 632.102 500.199 z M 632.102 498.243 L 632.798 498.243 L 632.798 497.491 L 632.102 497.491 L 632.102 498.243 L 632.102 498.243 z M 635.396 500.199 L 635.854 500.199 L 635.854 496.674 L 635.511 496.674 L 635.421 496.982 L 635.239 497.189 L 634.962 497.31 L 634.578 497.35 L 634.578 497.708 L 635.396 497.708 L 635.396 500.199 L 635.396 500.199 z" stroke="none" fill-rule="evenodd" fill="rgb(0, 0, 0)"/></g></svg>