<?xml version="1.0" encoding="UTF-8" standalone="no"?>
<!-- Created with Inkscape (http://www.inkscape.org/) -->

<svg
   xmlns:dc="http://purl.org/dc/elements/1.1/"
   xmlns:cc="http://creativecommons.org/ns#"
   xmlns:rdf="http://www.w3.org/1999/02/22-rdf-syntax-ns#"
   xmlns:svg="http://www.w3.org/2000/svg"
   xmlns="http://www.w3.org/2000/svg"
   xmlns:sodipodi="http://sodipodi.sourceforge.net/DTD/sodipodi-0.dtd"
   xmlns:inkscape="http://www.inkscape.org/namespaces/inkscape"
   width="26.249619mm"
   height="64.383995mm"
   viewBox="0 0 26.249619 64.383996"
   version="1.1"
   id="svg8"
   inkscape:version="0.91 r13725"
   sodipodi:docname="Optimus_V3.0_deco_ver.svg"
   inkscape:export-filename="/home/michele/Desktop/optimus-cle.png"
   inkscape:export-xdpi="100"
   inkscape:export-ydpi="100">
  <defs
     id="defs2">
    <clipPath
       clipPathUnits="userSpaceOnUse"
       id="clipPath8625">
      <path
         d="m 0,138.529 521.129,0 L 521.129,0 0,0 Z"
         id="path8623"
         inkscape:connector-curvature="0" />
    </clipPath>
  </defs>
  <sodipodi:namedview
     id="base"
     pagecolor="#ffffff"
     bordercolor="#666666"
     borderopacity="1.0"
     inkscape:pageopacity="0.0"
     inkscape:pageshadow="2"
     inkscape:zoom="4.0000001"
     inkscape:cx="52.318024"
     inkscape:cy="85.651493"
     inkscape:document-units="mm"
     inkscape:current-layer="layer1"
     showgrid="false"
     inkscape:window-width="1920"
     inkscape:window-height="1018"
     inkscape:window-x="-8"
     inkscape:window-y="-8"
     inkscape:window-maximized="1"
     showguides="true"
     inkscape:guide-bbox="true"
     fit-margin-top="0"
     fit-margin-left="0"
     fit-margin-right="0"
     fit-margin-bottom="0">
    <sodipodi:guide
       position="22.907719,19.393647"
       orientation="0,1"
       id="guide4312" />
  </sodipodi:namedview>
  <metadata
     id="metadata5">
    <rdf:RDF>
      <cc:Work
         rdf:about="">
        <dc:format>image/svg+xml</dc:format>
        <dc:type
           rdf:resource="http://purl.org/dc/dcmitype/StillImage" />
        <dc:title></dc:title>
      </cc:Work>
    </rdf:RDF>
  </metadata>
  <g
     inkscape:groupmode="layer"
     id="layer5"
     inkscape:label="Layer 2"
     transform="translate(-15.240932,-89.797199)" />
  <g
     inkscape:label="Layer 1"
     inkscape:groupmode="layer"
     id="layer1"
     transform="translate(-15.240932,-236.7972)">
    <g
       id="g4314"
       transform="matrix(0,0.99999999,-1,0,297.35487,240.62347)">
      <g
         style="fill:#000000"
         transform="matrix(0.04778168,4.0873124e-4,0.0094512,-0.05714021,23.038312,279.33584)"
         id="g8619">
        <g
           style="fill:#000000"
           clip-path="url(#clipPath8625)"
           id="g8621">
          <g
             style="fill:#000000"
             transform="translate(461.4593,31.4813)"
             id="g8627" />
          <g
             style="fill:#000000"
             transform="translate(65.596,121.4623)"
             id="g8631" />
          <g
             style="fill:#000000"
             transform="translate(45.2605,70.8212)"
             id="g8635" />
          <g
             style="fill:#000000"
             transform="translate(159.5315,70.8212)"
             id="g8639" />
          <g
             style="fill:#000000"
             transform="translate(171.5984,100.7723)"
             id="g8643" />
          <g
             style="fill:#000000"
             transform="translate(53.5765,91.5111)"
             id="g8647" />
          <g
             style="fill:#000000"
             transform="translate(41.6404,61.5594)"
             id="g8651" />
          <g
             style="fill:#000000"
             transform="translate(179.9163,121.4618)"
             id="g8655" />
          <g
             style="fill:#000000"
             transform="translate(307.1273,121.4623)"
             id="g8659" />
          <g
             style="fill:#000000"
             transform="translate(422.098,121.4623)"
             id="g8663" />
          <g
             style="fill:#000000"
             transform="translate(167.9803,91.5111)"
             id="g8667" />
          <g
             style="fill:#000000"
             transform="translate(282.9193,91.5111)"
             id="g8671" />
          <g
             style="fill:#000000"
             transform="translate(398.3167,91.5111)"
             id="g8675" />
          <g
             style="fill:#000000"
             transform="translate(155.9192,61.5594)"
             id="g8679" />
          <g
             style="fill:#000000"
             transform="translate(270.763,61.5594)"
             id="g8683" />
          <g
             style="fill:#000000"
             transform="translate(385.9984,61.5594)"
             id="g8687" />
          <g
             style="fill:#000000"
             transform="translate(452.2327,61.5594)"
             id="g8691" />
          <g
             style="fill:#000000"
             transform="translate(237.5315,100.7723)"
             id="g8695" />
          <g
             style="fill:#000000"
             transform="translate(57.177,100.7723)"
             id="g8699" />
          <g
             style="fill:#000000"
             transform="translate(287.055,100.7723)"
             id="g8703" />
          <g
             style="fill:#000000"
             transform="translate(340.638,70.8212)"
             id="g8707" />
          <g
             style="fill:#000000"
             transform="translate(455.722,70.5121)"
             id="g8711" />
          <g
             style="fill:#000000"
             transform="translate(389.555,70.5121)"
             id="g8715" />
          <g
             style="fill:#000000"
             transform="translate(402.055,100.7723)"
             id="g8719" />
          <g
             style="fill:#000000"
             transform="translate(468.055,100.7723)"
             id="g8723">
            <g
               id="g4326">
              <path
                 transform="translate(-6.5957071,-69.290992)"
                 d="M 0,0 -1.268,0 C -2.229,0 -3.393,0.001 -4.34,-0.17 -4.921,-0.275 -5.487,-0.456 -6.014,-0.726 -6.466,-0.957 -6.846,-1.275 -7.151,-1.682 -7.596,-2.27 -7.966,-3.195 -8.229,-3.88 l -1.664,-4.352 c -0.207,-0.54 -0.589,-1.559 -0.592,-2.14 -0.002,-0.313 0.088,-0.575 0.33,-0.779 0.325,-0.275 0.758,-0.427 1.169,-0.514 0.856,-0.181 2.052,-0.169 2.928,-0.169 l 1.267,0 c 0.969,0 2.129,0 3.083,0.171 0.587,0.105 1.161,0.281 1.692,0.555 0.435,0.223 0.811,0.532 1.107,0.921 0.435,0.574 0.811,1.532 1.067,2.202 l 1.673,4.373 c 0.211,0.551 0.595,1.571 0.602,2.163 0.003,0.314 -0.082,0.583 -0.327,0.788 C 3.787,-0.393 3.351,-0.245 2.947,-0.162 2.088,0.016 0.879,0 0,0 m -63.771,-7.803 7.758,0 -0.855,7.585 -0.271,0 z m -51.073,7.585 6.321,0 c 0.581,0 2.524,-0.018 2.996,-0.39 0.362,-0.286 0.136,-0.972 0.005,-1.316 l -0.687,-1.794 c -0.246,-0.645 -0.637,-1.204 -1.27,-1.512 -0.836,-0.407 -2.479,-0.44 -3.394,-0.44 l -6.057,0 z M -129.64,0 l -1.267,0 c -0.962,0 -2.126,0.001 -3.073,-0.17 -0.582,-0.105 -1.148,-0.286 -1.674,-0.556 -0.452,-0.231 -0.832,-0.549 -1.138,-0.956 -0.444,-0.588 -0.815,-1.513 -1.077,-2.198 l -1.664,-4.352 c -0.207,-0.54 -0.591,-1.559 -0.593,-2.14 -0.002,-0.313 0.088,-0.575 0.33,-0.779 0.325,-0.275 0.758,-0.427 1.169,-0.514 0.856,-0.181 2.053,-0.169 2.928,-0.169 l 1.268,0 c 0.968,0 2.129,0 3.082,0.171 0.587,0.105 1.162,0.281 1.693,0.555 0.435,0.223 0.811,0.531 1.107,0.921 0.435,0.574 0.811,1.532 1.067,2.202 l 1.673,4.373 c 0.21,0.55 0.595,1.571 0.601,2.163 0.003,0.313 -0.082,0.583 -0.326,0.788 -0.32,0.268 -0.756,0.416 -1.159,0.499 -0.86,0.178 -2.069,0.162 -2.947,0.162 m -24.777,-0.218 6.127,0 c 0.521,0 2.235,-0.016 2.663,-0.342 0.312,-0.236 0.109,-0.841 -10e-4,-1.128 l -0.862,-2.255 c -0.218,-0.571 -0.566,-1.069 -1.127,-1.339 -0.747,-0.359 -2.207,-0.388 -3.023,-0.388 l -5.863,0 z M -230.364,0 l -1.267,0 c -0.962,0 -2.125,0.001 -3.073,-0.17 -0.581,-0.105 -1.148,-0.286 -1.674,-0.556 -0.453,-0.231 -0.831,-0.549 -1.138,-0.956 -0.444,-0.588 -0.815,-1.513 -1.076,-2.198 l -1.665,-4.352 c -0.207,-0.54 -0.59,-1.559 -0.593,-2.14 -0.002,-0.313 0.089,-0.575 0.33,-0.779 0.326,-0.275 0.759,-0.427 1.169,-0.514 0.856,-0.181 2.054,-0.169 2.929,-0.169 l 1.267,0 c 0.968,0 2.129,0 3.083,0.171 0.587,0.105 1.161,0.281 1.692,0.555 0.436,0.223 0.811,0.532 1.107,0.921 0.435,0.574 0.811,1.532 1.067,2.202 l 1.673,4.373 c 0.211,0.551 0.595,1.571 0.601,2.163 0.003,0.313 -0.082,0.583 -0.326,0.788 -0.319,0.268 -0.756,0.416 -1.159,0.499 -0.859,0.178 -2.068,0.162 -2.947,0.162 m -66.942,-0.218 -2.085,-5.452 5.863,0 c 0.816,0 2.275,0.029 3.022,0.388 0.562,0.27 0.909,0.768 1.128,1.339 l 0.862,2.255 c 0.11,0.287 0.312,0.892 0,1.128 -0.428,0.326 -2.141,0.342 -2.662,0.342 z m -64.189,0 6.321,0 c 0.58,0 2.524,-0.018 2.996,-0.39 0.362,-0.286 0.136,-0.972 0.005,-1.316 l -0.686,-1.794 c -0.247,-0.645 -0.638,-1.204 -1.27,-1.512 -0.837,-0.407 -2.479,-0.44 -3.395,-0.44 l -6.057,0 z M -11.05,-3.19 -13.041,-8.396 c -0.512,-1.336 -1.038,-3.323 0.142,-4.473 1.19,-1.159 4.03,-1.252 5.58,-1.252 l 2.596,0 c 2.027,0 4.577,0.192 6.385,1.197 1.659,0.923 2.695,2.547 3.359,4.28 l 1.992,5.207 C 7.519,-2.114 8.068,-0.1 6.898,1.046 5.716,2.203 2.832,2.288 1.29,2.288 l -2.596,0 c -2.028,0 -4.588,-0.196 -6.393,-1.205 -1.655,-0.926 -2.688,-2.542 -3.351,-4.273 m -6.217,2.972 -5.248,-13.717 -3.014,0 5.248,13.717 -6.544,0 0.887,2.32 16.129,0 -0.886,-2.32 z M -46.032,-10.39 c -0.004,-0.271 0.07,-0.506 0.261,-0.688 0.263,-0.236 0.621,-0.367 0.961,-0.44 0.728,-0.154 1.771,-0.139 2.515,-0.139 l 2.158,0 c 0.827,0 1.843,-0.006 2.658,0.141 0.499,0.091 0.977,0.245 1.424,0.486 0.384,0.206 0.704,0.488 0.961,0.839 0.39,0.532 0.725,1.388 0.96,2.002 l 3.937,10.291 3.028,0 -4.11,-10.746 c -0.651,-1.7 -1.659,-3.334 -3.271,-4.269 -1.724,-1.003 -4.146,-1.208 -6.1,-1.208 l -2.488,0 c -1.495,0 -4.174,0.1 -5.289,1.267 -1.109,1.16 -0.561,3.15 -0.061,4.458 l 4.016,10.498 3.029,0 -4.032,-10.538 c -0.184,-0.483 -0.549,-1.437 -0.557,-1.954 m -9.752,0.381 -9.929,0 -3.419,-3.926 -3.264,0 14.065,16.037 4.205,0 1.841,-16.037 -3.041,0 z m -36.037,9.791 -5.247,-13.717 -3.015,0 5.248,13.717 -6.544,0 0.887,2.32 16.131,0 -0.888,-2.32 z m -14.2,-6.666 c 0.444,0.152 0.867,0.363 1.25,0.649 0.704,0.524 1.183,1.23 1.496,2.046 l 0.886,2.318 c 0.396,1.035 0.642,2.367 -0.372,3.135 -1.038,0.787 -3.436,0.838 -4.682,0.838 l -9.514,0 -6.135,-16.037 3.001,0 2.286,5.978 7.051,0 c 0.492,0 1.888,-0.029 2.237,-0.458 0.326,-0.398 -0.057,-1.486 -0.211,-1.889 l -1.389,-3.631 3.113,0 1.497,3.913 c 0.266,0.695 0.564,1.703 0.214,2.417 -0.155,0.317 -0.42,0.549 -0.728,0.721 m -34.669,3.694 c 0.662,1.731 1.696,3.347 3.35,4.273 1.806,1.009 4.365,1.205 6.394,1.205 l 2.595,0 c 1.542,0 4.426,-0.085 5.609,-1.242 1.17,-1.146 0.619,-3.16 0.114,-4.483 l -1.992,-5.207 c -0.663,-1.733 -1.699,-3.357 -3.359,-4.28 -1.807,-1.005 -4.357,-1.197 -6.384,-1.197 l -2.597,0 c -1.55,0 -4.389,0.093 -5.58,1.252 -1.181,1.149 -0.652,3.137 -0.142,4.473 z m -16.696,-4.789 6.156,0 c 1.587,0 3.778,0.103 5.228,0.809 1.252,0.609 2.042,1.702 2.531,2.981 l 0.887,2.318 c 0.396,1.035 0.642,2.367 -0.372,3.135 -1.038,0.787 -3.437,0.838 -4.683,0.838 l -8.891,0 -6.135,-16.037 3,0 z m -23.818,-0.266 3.029,0 -0.29,-0.757 c -0.188,-0.496 -0.495,-1.349 -0.472,-1.886 0.011,-0.284 0.107,-0.494 0.367,-0.624 0.323,-0.161 0.938,-0.224 1.296,-0.257 1.345,-0.12 2.85,-0.085 4.204,-0.085 0.887,0 1.853,0.017 2.73,0.164 0.514,0.085 1.077,0.232 1.526,0.506 0.22,0.134 0.406,0.375 0.542,0.59 0.246,0.389 0.44,0.85 0.604,1.279 0.101,0.262 0.574,1.57 0.397,1.834 -0.186,0.274 -1.077,0.351 -1.368,0.369 l -6.194,0.373 c -1.113,0.066 -3,0.26 -3.772,1.181 -0.767,0.914 -0.37,2.375 0.009,3.367 0.303,0.79 0.698,1.593 1.239,2.249 0.493,0.598 1.095,1.074 1.78,1.436 0.635,0.337 1.366,0.519 2.074,0.621 1.278,0.185 2.771,0.173 4.062,0.173 l 0.735,0 c 1.352,0 3.097,0.019 4.425,-0.231 0.716,-0.136 1.452,-0.387 2.019,-0.859 0.401,-0.333 0.58,-0.795 0.597,-1.31 0.019,-0.611 -0.177,-1.275 -0.393,-1.84 -0.061,-0.159 -0.124,-0.318 -0.191,-0.474 -0.043,-0.099 -0.086,-0.201 -0.135,-0.299 l -0.095,-0.191 -3.004,0 0.324,0.848 c 0.132,0.344 0.311,0.831 0.342,1.206 0.011,0.11 0.016,0.302 -0.07,0.39 -0.202,0.209 -0.876,0.311 -1.149,0.344 -1.273,0.157 -2.783,0.128 -4.068,0.128 -0.994,0 -3.141,-0.024 -4.034,-0.495 -0.735,-0.387 -1.189,-1.217 -1.475,-1.964 -0.122,-0.319 -0.419,-1.176 -0.199,-1.502 0.222,-0.33 1.209,-0.417 1.559,-0.439 l 6.305,-0.406 c 1.055,-0.067 2.71,-0.273 3.412,-1.177 0.703,-0.907 0.313,-2.319 -0.055,-3.28 -0.299,-0.781 -0.678,-1.662 -1.172,-2.341 -0.394,-0.542 -0.879,-0.994 -1.445,-1.352 -0.752,-0.477 -1.598,-0.765 -2.469,-0.927 -1.45,-0.27 -3.288,-0.26 -4.762,-0.26 l -1.023,0 c -1.225,0 -2.806,-0.011 -4.007,0.225 -0.662,0.131 -1.341,0.372 -1.84,0.826 -0.48,0.41 -0.712,0.959 -0.744,1.586 -0.036,0.753 0.211,1.59 0.477,2.286 z m -26.851,-2.778 5.021,13.125 3.001,0 -6.135,-16.037 -3.97,0 -5.648,13.145 -5.029,-13.145 -3,0 6.134,16.037 3.97,0 z m -33.359,7.833 -1.992,-5.206 c -0.51,-1.336 -1.038,-3.324 0.143,-4.473 1.19,-1.159 4.029,-1.252 5.579,-1.252 l 2.597,0 c 2.026,0 4.578,0.192 6.385,1.197 1.659,0.923 2.695,2.547 3.358,4.28 l 1.992,5.207 c 0.506,1.323 1.056,3.337 -0.114,4.483 -1.182,1.157 -4.067,1.242 -5.608,1.242 l -2.596,0 c -2.028,0 -4.588,-0.196 -6.393,-1.205 -1.655,-0.926 -2.689,-2.542 -3.351,-4.273 m -6.217,2.972 -5.247,-13.717 -3.015,0 5.247,13.717 -6.543,0 0.886,2.32 16.131,0 -0.888,-2.32 z m -28.276,-10.67 c 0.012,-0.284 0.108,-0.494 0.368,-0.624 0.323,-0.161 0.938,-0.224 1.295,-0.257 1.346,-0.12 2.851,-0.085 4.204,-0.085 0.888,0 1.854,0.017 2.731,0.164 0.514,0.085 1.078,0.232 1.526,0.506 0.22,0.135 0.406,0.375 0.542,0.59 0.246,0.389 0.44,0.85 0.604,1.279 0.101,0.262 0.574,1.57 0.397,1.834 -0.186,0.274 -1.077,0.351 -1.368,0.369 l -6.194,0.373 c -1.113,0.066 -3,0.26 -3.773,1.181 -0.766,0.914 -0.368,2.375 0.011,3.367 0.302,0.79 0.696,1.593 1.237,2.249 0.493,0.598 1.097,1.074 1.781,1.436 0.634,0.337 1.366,0.519 2.074,0.621 1.278,0.185 2.77,0.173 4.062,0.173 l 0.735,0 c 1.353,0 3.096,0.019 4.425,-0.231 0.715,-0.136 1.452,-0.387 2.019,-0.859 0.4,-0.333 0.58,-0.795 0.596,-1.31 0.019,-0.611 -0.176,-1.275 -0.392,-1.84 -0.061,-0.159 -0.124,-0.318 -0.191,-0.474 -0.043,-0.099 -0.086,-0.201 -0.135,-0.299 l -0.095,-0.191 -3.005,0 0.325,0.848 c 0.131,0.344 0.311,0.831 0.342,1.206 0.011,0.11 0.016,0.302 -0.069,0.39 -0.203,0.209 -0.877,0.311 -1.15,0.344 -1.273,0.157 -2.784,0.128 -4.068,0.128 -0.993,0 -3.141,-0.024 -4.034,-0.495 -0.735,-0.387 -1.189,-1.217 -1.475,-1.964 -0.122,-0.319 -0.419,-1.176 -0.199,-1.502 0.222,-0.33 1.209,-0.417 1.559,-0.439 l 6.304,-0.406 c 1.057,-0.067 2.71,-0.273 3.413,-1.177 0.703,-0.907 0.313,-2.319 -0.055,-3.28 -0.299,-0.781 -0.678,-1.662 -1.172,-2.341 -0.394,-0.542 -0.879,-0.994 -1.445,-1.352 -0.752,-0.476 -1.597,-0.765 -2.469,-0.927 -1.45,-0.27 -3.288,-0.26 -4.763,-0.26 l -1.022,0 c -1.225,0 -2.805,-0.011 -4.007,0.225 -0.662,0.131 -1.34,0.372 -1.84,0.826 -0.48,0.41 -0.712,0.959 -0.743,1.586 -0.037,0.753 0.209,1.59 0.476,2.286 l 0.372,0.975 3.029,0 -0.29,-0.757 c -0.189,-0.495 -0.495,-1.349 -0.473,-1.886 m -11.136,-3.047 3.028,0 6.135,16.037 -3.029,0 z m -13.231,5.956 -2.279,-5.956 -3,0 6.135,16.037 8.891,0 c 1.246,0 3.645,-0.051 4.683,-0.838 1.013,-0.768 0.767,-2.1 0.372,-3.135 l -0.887,-2.318 c -0.489,-1.279 -1.28,-2.372 -2.531,-2.981 -1.451,-0.706 -3.641,-0.809 -5.229,-0.809 z m -34.198,7.761 12.15,0 0.887,2.32 -15.149,0 -6.135,-16.037 15.15,0 0.879,2.298 -12.15,0 1.849,4.833 11.806,0 0.863,2.256 -11.806,0 z m -15.507,-13.717 6.134,16.037 3.029,0 -6.135,-16.037 z m -2.693,7.051 c 0.445,0.152 0.867,0.363 1.251,0.649 0.703,0.524 1.183,1.23 1.495,2.046 l 0.886,2.318 c 0.396,1.035 0.643,2.367 -0.371,3.135 -1.039,0.787 -3.437,0.838 -4.683,0.838 l -9.513,0 -6.135,-16.037 3,0 2.287,5.978 7.05,0 c 0.493,0 1.887,-0.029 2.238,-0.458 0.325,-0.398 -0.058,-1.486 -0.212,-1.889 l -1.389,-3.631 3.113,0 1.497,3.913 c 0.266,0.695 0.564,1.703 0.214,2.417 -0.155,0.317 -0.419,0.549 -0.728,0.721 m -32.272,8.986 3.028,0 -4.031,-10.538 c -0.184,-0.483 -0.55,-1.437 -0.557,-1.954 -0.004,-0.271 0.069,-0.506 0.261,-0.688 0.263,-0.236 0.62,-0.367 0.961,-0.44 0.727,-0.154 1.77,-0.139 2.515,-0.139 l 2.158,0 c 0.827,0 1.842,-0.006 2.657,0.141 0.499,0.091 0.978,0.245 1.425,0.486 0.383,0.206 0.704,0.488 0.961,0.839 0.39,0.532 0.725,1.388 0.96,2.002 l 3.937,10.291 3.028,0 -4.11,-10.746 c -0.651,-1.7 -1.66,-3.334 -3.27,-4.269 -1.726,-1.003 -4.148,-1.208 -6.102,-1.208 l -2.487,0 c -1.495,0 -4.174,0.101 -5.289,1.267 -1.11,1.16 -0.561,3.15 -0.061,4.458 z m -21.789,-5.295 -1.991,-5.203 c -0.494,-1.292 -1.064,-3.298 0.013,-4.46 1.079,-1.165 3.679,-1.265 5.145,-1.265 l 2.402,0 c 1.842,0 4.266,0.153 5.921,1.04 1.486,0.796 2.414,2.196 3.004,3.737 l 0.566,1.479 -3.097,0 -0.07,-0.253 c -0.025,-0.091 -0.056,-0.182 -0.086,-0.271 -0.048,-0.144 -0.101,-0.288 -0.156,-0.43 -0.345,-0.904 -0.893,-1.9 -1.766,-2.391 -0.99,-0.556 -2.761,-0.624 -3.87,-0.624 l -1.587,0 c -0.766,0 -1.869,-0.012 -2.614,0.16 -0.356,0.082 -0.723,0.226 -0.989,0.485 -0.224,0.21 -0.306,0.47 -0.3,0.769 0.012,0.576 0.426,1.649 0.633,2.188 l 1.672,4.37 c 0.257,0.672 0.635,1.653 1.066,2.232 0.291,0.391 0.652,0.695 1.078,0.931 0.478,0.263 0.995,0.435 1.53,0.536 0.844,0.158 1.857,0.163 2.715,0.163 l 1.587,0 c 0.728,0 2.674,-0.032 3.251,-0.552 0.492,-0.442 0.14,-1.5 -0.051,-2.002 l -0.34,-0.89 3.085,0 0.341,0.893 c 0.464,1.211 0.778,2.797 -0.337,3.759 -1.154,0.996 -3.731,1.08 -5.172,1.08 l -2.403,0 c -1.917,0 -4.265,-0.206 -5.95,-1.202 -1.592,-0.941 -2.585,-2.594 -3.23,-4.279 m -13.283,2.975 -1.656,-4.33 11.806,0 -0.863,-2.256 -11.807,0 -1.848,-4.833 12.15,0 -0.88,-2.298 -15.15,0 6.135,16.037 15.15,0 -0.887,-2.32 z"
                 style="fill:#000000;fill-opacity:1;fill-rule:evenodd;stroke:none"
                 id="path8629"
                 inkscape:connector-curvature="0" />
              <path
                 transform="translate(-402.45901,20.689992)"
                 d="m 0,0 101.391,0 -7.339,-18.105 -101.39,0 z"
                 style="fill:#000000;fill-opacity:1;fill-rule:evenodd;stroke:none"
                 id="path8633"
                 inkscape:connector-curvature="0" />
              <path
                 transform="translate(-422.7945,-29.951105)"
                 d="m 0,0 35.291,0 -2.554,-6.677 -35.291,0 z"
                 style="fill:#000000;fill-opacity:1;fill-rule:evenodd;stroke:none"
                 id="path8637"
                 inkscape:connector-curvature="0" />
              <path
                 transform="translate(-308.52349,-29.951092)"
                 d="m 0,0 35.292,0 -2.555,-6.677 -35.292,0 z"
                 style="fill:#000000;fill-opacity:1;fill-rule:evenodd;stroke:none"
                 id="path8641"
                 inkscape:connector-curvature="0" />
              <path
                 transform="translate(-296.45661,7.3228053e-6)"
                 d="m 0,0 35.413,0 -2.564,-6.677 -35.412,0 z"
                 style="fill:#000000;fill-opacity:1;fill-rule:evenodd;stroke:none"
                 id="path8645"
                 inkscape:connector-curvature="0" />
              <path
                 transform="translate(-414.47849,-9.2612051)"
                 d="m 0,0 93.611,0 -7.339,-18.105 -93.61,0 z"
                 style="fill:#000000;fill-opacity:1;fill-rule:evenodd;stroke:none"
                 id="path8649"
                 inkscape:connector-curvature="0" />
              <path
                 transform="translate(-426.4146,-39.212903)"
                 d="m 0,0 101.391,0 -7.339,-18.105 -101.39,0 z"
                 style="fill:#000000;fill-opacity:1;fill-rule:evenodd;stroke:none"
                 id="path8653"
                 inkscape:connector-curvature="0" />
              <path
                 transform="translate(-288.1387,20.689491)"
                 d="m 0,0 89.963,0 c 6.285,0 9.344,-5.142 6.796,-11.428 l -2.706,-6.677 -101.391,0 z"
                 style="fill:#000000;fill-opacity:1;fill-rule:evenodd;stroke:none"
                 id="path8657"
                 inkscape:connector-curvature="0" />
              <path
                 transform="translate(-160.9277,20.690005)"
                 d="m 0,0 89.963,0 -7.339,-18.105 -101.391,0 2.706,6.677 C -13.513,-5.143 -6.286,0 0,0"
                 style="fill:#000000;fill-opacity:1;fill-rule:evenodd;stroke:none"
                 id="path8661"
                 inkscape:connector-curvature="0" />
              <path
                 transform="translate(-45.956998,20.690002)"
                 d="m 0,0 78.534,0 c 6.286,0 9.344,-5.143 6.796,-11.428 l -2.706,-6.677 -101.391,0 2.706,6.677 C -13.513,-5.143 -6.285,0 0,0"
                 style="fill:#000000;fill-opacity:1;fill-rule:evenodd;stroke:none"
                 id="path8665"
                 inkscape:connector-curvature="0" />
              <path
                 transform="translate(-300.0747,-9.2611993)"
                 d="M 0,0 101.391,0 98.684,-6.677 C 96.136,-12.963 88.91,-18.105 82.625,-18.105 l -89.963,0 z"
                 style="fill:#000000;fill-opacity:1;fill-rule:evenodd;stroke:none"
                 id="path8669"
                 inkscape:connector-curvature="0" />
              <path
                 transform="translate(-185.13571,-9.261205)"
                 d="m 0,0 89.963,0 c 6.285,0 9.343,-5.143 6.796,-11.428 l -2.707,-6.677 -89.962,0 c -6.286,0 -9.344,5.142 -6.797,11.428 z"
                 style="fill:#000000;fill-opacity:1;fill-rule:evenodd;stroke:none"
                 id="path8673"
                 inkscape:connector-curvature="0" />
              <path
                 transform="translate(-69.738304,-9.2611891)"
                 d="m 0,0 101.391,0 -7.338,-18.105 -101.391,0 z"
                 style="fill:#000000;fill-opacity:1;fill-rule:evenodd;stroke:none"
                 id="path8677"
                 inkscape:connector-curvature="0" />
              <path
                 transform="translate(-312.13579,-39.212903)"
                 d="m 0,0 35.032,0 -7.339,-18.105 -35.032,0 z"
                 style="fill:#000000;fill-opacity:1;fill-rule:evenodd;stroke:none"
                 id="path8681"
                 inkscape:connector-curvature="0" />
              <path
                 transform="translate(-197.292,-39.212888)"
                 d="m 0,0 101.392,0 -2.707,-6.677 c -2.548,-6.286 -9.775,-11.428 -16.06,-11.428 l -89.963,0 z"
                 style="fill:#000000;fill-opacity:1;fill-rule:evenodd;stroke:none"
                 id="path8685"
                 inkscape:connector-curvature="0" />
              <path
                 transform="translate(-82.056603,-39.212899)"
                 d="m 0,0 35.032,0 -7.339,-18.105 -35.032,0 z"
                 style="fill:#000000;fill-opacity:1;fill-rule:evenodd;stroke:none"
                 id="path8689"
                 inkscape:connector-curvature="0" />
              <path
                 transform="translate(-15.822308,-39.212908)"
                 d="m 0,0 35.032,0 -7.339,-18.105 -35.032,0 z"
                 style="fill:#000000;fill-opacity:1;fill-rule:evenodd;stroke:none"
                 id="path8693"
                 inkscape:connector-curvature="0" />
              <path
                 transform="translate(-230.52351,3.5220985e-6)"
                 d="m 0,0 35.292,0 -2.555,-6.677 -35.292,0 z"
                 style="fill:#000000;fill-opacity:1;fill-rule:evenodd;stroke:none"
                 id="path8697"
                 inkscape:connector-curvature="0" />
              <path
                 transform="translate(-410.87801,3.8354206e-6)"
                 d="m 0,0 35.291,0 -2.554,-6.677 -35.291,0 z"
                 style="fill:#000000;fill-opacity:1;fill-rule:evenodd;stroke:none"
                 id="path8701"
                 inkscape:connector-curvature="0" />
              <path
                 transform="translate(-180.99999,5.6086334e-6)"
                 d="m 0,0 35.291,0 -2.555,-6.677 -35.291,0 z"
                 style="fill:#000000;fill-opacity:1;fill-rule:evenodd;stroke:none"
                 id="path8705"
                 inkscape:connector-curvature="0" />
              <path
                 transform="translate(-127.417,-29.951106)"
                 d="m 0,0 35.291,0 -2.554,-6.677 -35.291,0 z"
                 style="fill:#000000;fill-opacity:1;fill-rule:evenodd;stroke:none"
                 id="path8709"
                 inkscape:connector-curvature="0" />
              <path
                 transform="translate(-12.332996,-30.260194)"
                 d="m 0,0 35.291,0 -2.555,-6.676 -35.291,0 z"
                 style="fill:#000000;fill-opacity:1;fill-rule:evenodd;stroke:none"
                 id="path8713"
                 inkscape:connector-curvature="0" />
              <path
                 transform="translate(-78.499997,-30.260199)"
                 d="m 0,0 35.291,0 -2.555,-6.676 -35.291,0 z"
                 style="fill:#000000;fill-opacity:1;fill-rule:evenodd;stroke:none"
                 id="path8717"
                 inkscape:connector-curvature="0" />
              <path
                 transform="translate(-66.000007,-4.5893667e-6)"
                 d="m 0,0 35.291,0 -2.555,-6.677 -35.291,0 z"
                 style="fill:#000000;fill-opacity:1;fill-rule:evenodd;stroke:none"
                 id="path8721"
                 inkscape:connector-curvature="0" />
              <path
                 d="m 0,0 35.291,0 -2.555,-6.677 -35.291,0 z"
                 style="fill:#000000;fill-opacity:1;fill-rule:evenodd;stroke:none"
                 id="path8725"
                 inkscape:connector-curvature="0" />
            </g>
          </g>
        </g>
      </g>
      <path
         inkscape:transform-center-y="10.103244"
         inkscape:transform-center-x="-3.9049003"
         sodipodi:nodetypes="ccccccccccccccccccccccssscccccccccccccssccccccccccccccccccc"
         inkscape:connector-curvature="0"
         id="path8555"
         d="m 41.666158,256.96063 c -0.488117,3.1772 -0.529022,3.19934 -0.968075,6.18782 -0.101344,-0.0422 -0.26742,-0.18789 -0.46296,-0.34509 -0.510954,-0.32264 -0.959139,-0.46884 -1.494634,-0.66486 -0.483629,-0.17944 -1.081393,-0.15597 -1.549223,0.0608 -0.40041,0.19812 -0.669362,0.55739 -0.945995,0.82023 -0.492645,0.46673 -0.678625,0.73481 -0.667178,0.96161 0.0042,0.0831 -0.08774,0.25948 -0.603161,1.15777 -0.02671,0.0466 -0.06059,0.16721 -0.07515,0.26809 -0.02648,0.11085 -0.218036,0.90831 0.174056,1.62796 l 6.3e-5,-1.3e-4 c 0.02296,0.0172 0.380935,0.0299 0.795449,0.0282 0.098,-7.2e-4 0.240432,1.4e-4 0.405131,0.002 -0.01153,0.21684 -0.04975,0.42916 -0.133299,0.61598 -0.530137,0.83196 -1.893693,1.53309 -4.200497,2.56011 -2.357859,-0.25645 -9.132797,-2.42681 -9.132797,-2.42681 l -0.0031,0.005 c -0.869808,-0.73572 -1.39074,-1.35973 -1.31904,-1.70713 0.160487,-0.77757 -0.101069,-1.03904 -0.798242,-0.79784 -0.250074,0.0866 -0.865107,0.27805 -1.366847,0.42559 l -0.912338,0.26833 -0.09089,-0.28496 c -0.247314,-0.77424 -1.131416,-0.77703 -1.44668,-0.005 -0.164474,0.40301 -0.06868,0.36576 -3.573815,1.3924 -3.9754782,1.1644 -4.3419413,1.27429 -6.0599928,1.81667 -2.3679289,0.74756 -8.3769469,2.95166 -9.1841409,3.3687 -2.6704983,1.37973 -2.5188378,2.31385 0.6598152,4.06318 2.10591297,1.18174 4.9171271,2.6751 7.2663394,2.7978 2.0526101,-0.0387 3.927281,-0.0124 5.8432501,-0.006 l 0.789271,-0.0153 c 1.108999,1.96717 3.027525,2.78915 4.42988,2.92751 1.553134,0.11366 2.303937,-0.0595 3.420381,-0.61207 1.045598,-0.57963 1.616267,-1.13629 2.194529,-2.00787 5.105008,0.0675 11.112118,0.12254 15.296032,0.18938 0.666174,0.0491 0.475768,0.54413 0.935331,0.57868 0.363369,-0.0373 0.177875,-0.52377 0.821584,-0.5356 3.499542,-0.02 6.781636,-10e-4 10.169022,0.006 l 0.155175,0.21896 c 0.479097,0.67983 1.522999,1.50324 2.548319,1.84979 2.142399,0.72407 4.458335,0.41207 6.350966,-1.49592 1.429325,-1.44093 2.047532,-3.85694 1.301922,-6.02013 -0.668127,-1.77776 -2.108615,-3.37451 -4.517981,-3.87374 -1.425833,-0.22664 -2.409616,0.0132 -3.452896,0.41235 -0.346319,0.17481 -0.166627,0.20623 -1.059725,-1.06033 -0.374632,-0.49371 -4.105111,-5.87628 -4.179811,-6.03088 -0.0081,-0.0167 0.168614,-0.0878 0.3926,-0.15804 0.403316,-0.12642 0.56827,-0.32134 0.356461,-0.42127 -0.06035,-0.0285 -0.172303,-0.26703 -0.248665,-0.53016 -0.359029,-1.2371 -0.60457,-1.57897 -1.239888,-1.72592 -0.580347,-0.13425 -1.123493,-0.39514 -1.303738,-0.62608 -0.134293,-0.17211 -0.71009,-1.94635 -0.86612,-2.66891 l -0.06054,-0.28039 0.234116,-0.0971 c 0.23001,-0.0954 0.346895,-0.14983 0.266556,-0.30959 -0.161968,-0.32221 -0.291735,-0.51888 -0.46726,-0.83053 -0.160024,-0.25819 -0.303333,-0.15355 -0.542899,-0.08 -0.290055,0.0876 -0.435055,0.0918 -0.414442,0.34262 0.01545,0.36837 0.259223,0.36149 -0.488626,0.24328 -0.871635,-0.12887 -0.89082,-0.11142 -0.975708,0.42021 z"
         style="fill:none;fill-opacity:1;stroke:#ff0000;stroke-width:0.01;stroke-miterlimit:4;stroke-dasharray:none;stroke-opacity:1" />
      <ellipse
         transform="matrix(0.91832663,0.39582344,-0.39553045,0.91845286,0,0)"
         style="stroke-width:0.22829853"
         ry="5.9023476"
         rx="5.8750439"
         cy="246.61514"
         cx="125.54454"
         id="path4623" />
      <ellipse
         transform="matrix(0.91832663,0.39582344,-0.39553045,0.91845286,0,0)"
         style="stroke-width:0.22829853"
         ry="5.9023476"
         rx="5.8750439"
         cy="232.00787"
         cx="159.44061"
         id="path4623-5" />
      <path
         sodipodi:nodetypes="ccsccccc"
         inkscape:connector-curvature="0"
         id="path5300"
         d="m -2.2752367,274.12042 6.2224084,2.83994 c 0,0 2.3955316,-2.57411 8.1022413,-5.21573 4.659877,-2.15704 8.040779,-2.37612 8.040779,-2.37612 l -0.981395,-2.22256 c -6.093679,1.72751 -10.4483719,2.84366 -15.5225159,4.54536 -4.7518605,1.75849 -5.8615427,2.42916 -5.8615427,2.42916 z"
         style="fill:#000000;fill-opacity:1;stroke:#000000;stroke-width:0.07663678px;stroke-linecap:butt;stroke-linejoin:miter;stroke-opacity:1" />
      <path
         sodipodi:nodetypes="cccccccccccc"
         inkscape:connector-curvature="0"
         id="path6109"
         d="m 35.511942,264.3214 c -0.100314,0.18762 -0.160599,0.29383 -0.276003,0.49576 -0.128572,0.22153 -0.209293,0.36262 -0.207669,0.36711 -0.04019,0.0805 -0.02546,0.0888 0.09571,0.12865 0.669824,0.22785 0.977032,0.28174 1.619134,0.38819 0.238593,0.0386 0.406621,0.0718 0.564557,-0.004 0.538262,-0.37669 0.434013,-0.39611 0.678477,-0.46575 0.470399,-0.1215 0.339053,-0.44134 -0.0025,-0.39073 -0.218592,0.0155 -0.290947,0.0233 -1.205759,-0.31237 -0.82089,-0.29775 -0.55853,-0.18736 -1.145581,-0.46354 -0.02082,0.0598 -0.05072,0.123 -0.120327,0.25691 z"
         style="fill:#000000;fill-opacity:1;stroke:#000000;stroke-width:0.07663678px;stroke-linecap:butt;stroke-linejoin:miter;stroke-opacity:1" />
      <g
         transform="matrix(0.26316646,0.12100013,-0.12100012,0.26316646,30.422374,198.87778)"
         style="stroke:#000000;stroke-opacity:1"
         id="g1966">
        <ellipse
           id="path4623-4"
           cx="65.352715"
           cy="262.42416"
           rx="13.534396"
           ry="13.518974"
           style="fill:#ffffff;fill-opacity:1;stroke:#000000;stroke-width:0.15189774;stroke-opacity:1"
           transform="matrix(0.99971539,-0.02385678,0.02445492,0.99970093,0,0)" />
        <g
           transform="matrix(0.82905294,0,0,0.8438461,12.885689,41.307558)"
           id="g8919-68-9"
           style="stroke:#000000;stroke-width:0.2;stroke-miterlimit:4;stroke-dasharray:none;stroke-opacity:1">
          <circle
             r="3.5327253"
             cx="71.032631"
             cy="260.12204"
             id="circle44-5-9"
             style="fill:none;fill-opacity:1;stroke:#000000;stroke-width:0.2;stroke-linecap:butt;stroke-linejoin:miter;stroke-miterlimit:4;stroke-dasharray:none;stroke-opacity:1" />
          <path
             d="m 60.765946,251.04624 a 19.763889,19.763889 0 0 0 -0.257247,-0.2664"
             id="path100-2-5"
             inkscape:connector-curvature="0"
             style="fill:none;fill-opacity:1;stroke:#000000;stroke-width:0.2;stroke-linecap:butt;stroke-linejoin:miter;stroke-miterlimit:4;stroke-dasharray:none;stroke-opacity:1" />
          <path
             d="m 61.690435,249.5981 a 19.763826,19.763826 0 0 0 0.266396,0.25724"
             id="path102-8-0"
             inkscape:connector-curvature="0"
             style="fill:none;fill-opacity:1;stroke:#000000;stroke-width:0.2;stroke-linecap:butt;stroke-linejoin:miter;stroke-miterlimit:4;stroke-dasharray:none;stroke-opacity:1" />
          <path
             d="m 71.868246,246.07456 a 19.763826,19.763826 0 0 0 0.0065,0.37027"
             id="path104-2-84"
             inkscape:connector-curvature="0"
             style="fill:none;fill-opacity:1;stroke:#000000;stroke-width:0.2;stroke-linecap:butt;stroke-linejoin:miter;stroke-miterlimit:4;stroke-dasharray:none;stroke-opacity:1" />
          <path
             d="m 70.190535,246.44482 a 19.763991,19.763991 0 0 0 0.0065,-0.37027"
             id="path106-0-9"
             inkscape:connector-curvature="0"
             style="fill:none;fill-opacity:1;stroke:#000000;stroke-width:0.2;stroke-linecap:butt;stroke-linejoin:miter;stroke-miterlimit:4;stroke-dasharray:none;stroke-opacity:1" />
          <path
             d="m 80.108423,249.85534 a 19.763889,19.763889 0 0 0 0.266399,-0.25725"
             id="path108-7-2"
             inkscape:connector-curvature="0"
             style="fill:none;fill-opacity:1;stroke:#000000;stroke-width:0.2;stroke-linecap:butt;stroke-linejoin:miter;stroke-miterlimit:4;stroke-dasharray:none;stroke-opacity:1" />
          <path
             d="m 81.556555,250.77984 a 19.763826,19.763826 0 0 0 -0.257247,0.2664"
             id="path110-1-0"
             inkscape:connector-curvature="0"
             style="fill:none;fill-opacity:1;stroke:#000000;stroke-width:0.2;stroke-linecap:butt;stroke-linejoin:miter;stroke-miterlimit:4;stroke-dasharray:none;stroke-opacity:1" />
          <path
             d="m 85.080095,260.95765 a 19.763826,19.763826 0 0 0 -0.370268,0.006"
             id="path112-85-3"
             inkscape:connector-curvature="0"
             style="fill:none;fill-opacity:1;stroke:#000000;stroke-width:0.2;stroke-linecap:butt;stroke-linejoin:miter;stroke-miterlimit:4;stroke-dasharray:none;stroke-opacity:1" />
          <path
             d="m 84.709833,259.27994 a 19.763991,19.763991 0 0 0 0.37027,0.006"
             id="path114-2-7"
             inkscape:connector-curvature="0"
             style="fill:none;fill-opacity:1;stroke:#000000;stroke-width:0.2;stroke-linecap:butt;stroke-linejoin:miter;stroke-miterlimit:4;stroke-dasharray:none;stroke-opacity:1" />
          <path
             d="m 81.299321,269.19781 a 19.763991,19.763991 0 0 0 0.257247,0.2664"
             id="path116-1-3"
             inkscape:connector-curvature="0"
             style="fill:none;fill-opacity:1;stroke:#000000;stroke-width:0.2;stroke-linecap:butt;stroke-linejoin:miter;stroke-miterlimit:4;stroke-dasharray:none;stroke-opacity:1" />
          <path
             d="m 80.374822,270.64596 a 19.763826,19.763826 0 0 0 -0.266399,-0.25725"
             id="path118-1-4"
             inkscape:connector-curvature="0"
             style="fill:none;fill-opacity:1;stroke:#000000;stroke-width:0.2;stroke-linecap:butt;stroke-linejoin:miter;stroke-miterlimit:4;stroke-dasharray:none;stroke-opacity:1" />
          <path
             d="m 56.985151,259.28641 a 19.763826,19.763826 0 0 0 0.370279,-0.006"
             id="path120-9-7"
             inkscape:connector-curvature="0"
             style="fill:none;fill-opacity:1;stroke:#000000;stroke-width:0.2;stroke-linecap:butt;stroke-linejoin:miter;stroke-miterlimit:4;stroke-dasharray:none;stroke-opacity:1" />
          <path
             d="m 57.355427,260.96412 a 19.763889,19.763889 0 0 0 -0.370273,-0.006"
             id="path122-8-8"
             inkscape:connector-curvature="0"
             style="fill:none;fill-opacity:1;stroke:#000000;stroke-width:0.2;stroke-linecap:butt;stroke-linejoin:miter;stroke-miterlimit:4;stroke-dasharray:none;stroke-opacity:1" />
          <path
             d="m 70.197002,274.16949 a 19.783607,19.783607 0 0 0 -0.0065,-0.37027"
             id="path124-0-0"
             inkscape:connector-curvature="0"
             style="fill:none;fill-opacity:1;stroke:#000000;stroke-width:0.2;stroke-linecap:butt;stroke-linejoin:miter;stroke-miterlimit:4;stroke-dasharray:none;stroke-opacity:1" />
          <path
             d="m 71.874719,273.79923 a 19.763889,19.763889 0 0 0 -0.0065,0.37027"
             id="path126-68-4"
             inkscape:connector-curvature="0"
             style="fill:none;fill-opacity:1;stroke:#000000;stroke-width:0.2;stroke-linecap:butt;stroke-linejoin:miter;stroke-miterlimit:4;stroke-dasharray:none;stroke-opacity:1" />
          <path
             d="m 61.956838,270.38872 a 19.781392,19.781392 0 0 0 -0.266393,0.25724"
             id="path128-0-2"
             inkscape:connector-curvature="0"
             style="fill:none;fill-opacity:1;stroke:#000000;stroke-width:0.2;stroke-linecap:butt;stroke-linejoin:miter;stroke-miterlimit:4;stroke-dasharray:none;stroke-opacity:1" />
          <path
             d="m 60.508699,269.46421 a 19.76408,19.76408 0 0 0 0.257243,-0.26639"
             id="path130-87-3"
             inkscape:connector-curvature="0"
             style="fill:none;fill-opacity:1;stroke:#000000;stroke-width:0.2;stroke-linecap:butt;stroke-linejoin:miter;stroke-miterlimit:4;stroke-dasharray:none;stroke-opacity:1" />
          <path
             d="m 80.365974,248.75094 a 14.710992,14.710992 0 0 0 -7.892451,-3.26916"
             id="path132-0-6"
             inkscape:connector-curvature="0"
             style="fill:none;fill-opacity:1;stroke:#000000;stroke-width:0.2;stroke-linecap:butt;stroke-linejoin:miter;stroke-miterlimit:4;stroke-dasharray:none;stroke-opacity:1" />
          <path
             d="m 61.699277,271.49311 a 14.710998,14.710998 0 0 0 7.892441,3.26916"
             id="path134-7-4"
             inkscape:connector-curvature="0"
             style="fill:none;fill-opacity:1;stroke:#000000;stroke-width:0.2;stroke-linecap:butt;stroke-linejoin:miter;stroke-miterlimit:4;stroke-dasharray:none;stroke-opacity:1" />
          <path
             d="m 70.195861,274.27283 -0.0029,0.044 -0.0069,0.0431 -0.01147,0.0436 -0.01533,0.0419 -0.04057,0.076 -0.05152,0.066 -0.06163,0.0567 -0.07018,0.0466 -0.07738,0.0361 -0.08478,0.0249 -0.08958,0.0122 -0.09187,-0.002"
             id="path136-3-8"
             inkscape:connector-curvature="0"
             style="fill:none;fill-opacity:1;stroke:#000000;stroke-width:0.2;stroke-linecap:butt;stroke-linejoin:miter;stroke-miterlimit:4;stroke-dasharray:none;stroke-opacity:1" />
          <path
             d="m 70.195868,274.27289 a 7.61315,7.61315 0 0 0 0.0011,-0.1034"
             id="path138-9-8"
             inkscape:connector-curvature="0"
             style="fill:none;fill-opacity:1;stroke:#000000;stroke-width:0.2;stroke-linecap:butt;stroke-linejoin:miter;stroke-miterlimit:4;stroke-dasharray:none;stroke-opacity:1" />
          <path
             d="m 71.868259,274.16949 a 7.6146522,7.6146522 0 0 0 0.0011,0.1034"
             id="path140-0-3"
             inkscape:connector-curvature="0"
             style="fill:none;fill-opacity:1;stroke:#000000;stroke-width:0.2;stroke-linecap:butt;stroke-linejoin:miter;stroke-miterlimit:4;stroke-dasharray:none;stroke-opacity:1" />
          <path
             d="m 71.869406,274.27283 0.0028,0.044 0.007,0.0432 0.01147,0.0435 0.01533,0.0419 0.04057,0.0761 0.05152,0.066 0.06163,0.0566 0.07008,0.0466 0.07738,0.0361 0.08489,0.0249 0.08947,0.0122 0.09198,-0.002"
             id="path142-9-4"
             inkscape:connector-curvature="0"
             style="fill:none;fill-opacity:1;stroke:#000000;stroke-width:0.2;stroke-linecap:butt;stroke-linejoin:miter;stroke-miterlimit:4;stroke-dasharray:none;stroke-opacity:1" />
          <path
             d="m 72.473523,274.76227 a 14.710979,14.710979 0 0 0 7.892451,-3.26916"
             id="path144-5-4"
             inkscape:connector-curvature="0"
             style="fill:none;fill-opacity:1;stroke:#000000;stroke-width:0.2;stroke-linecap:butt;stroke-linejoin:miter;stroke-miterlimit:4;stroke-dasharray:none;stroke-opacity:1" />
          <path
             d="m 80.447158,270.71988 0.02899,0.0332 0.02555,0.0354 0.02273,0.0389 0.01877,0.0405 0.02513,0.0825 0.01022,0.0831 -0.0035,0.0836 -0.01658,0.0826 -0.0292,0.0802 -0.04234,0.0776 -0.05465,0.072 -0.06632,0.0638"
             id="path146-8-5"
             inkscape:connector-curvature="0"
             style="fill:none;fill-opacity:1;stroke:#000000;stroke-width:0.2;stroke-linecap:butt;stroke-linejoin:miter;stroke-miterlimit:4;stroke-dasharray:none;stroke-opacity:1" />
          <path
             d="m 80.447115,270.71987 a 7.6138756,7.6138756 0 0 0 -0.07231,-0.0739"
             id="path148-0-0"
             inkscape:connector-curvature="0"
             style="fill:none;fill-opacity:1;stroke:#000000;stroke-width:0.2;stroke-linecap:butt;stroke-linejoin:miter;stroke-miterlimit:4;stroke-dasharray:none;stroke-opacity:1" />
          <path
             d="m 81.556574,269.46421 a 7.6143212,7.6143212 0 0 0 0.0739,0.0723"
             id="path150-8-9"
             inkscape:connector-curvature="0"
             style="fill:none;fill-opacity:1;stroke:#000000;stroke-width:0.2;stroke-linecap:butt;stroke-linejoin:miter;stroke-miterlimit:4;stroke-dasharray:none;stroke-opacity:1" />
          <path
             d="m 81.630465,269.53647 0.0041,0.004 0.06674,0.0521 0.07675,0.0399 0.08155,0.0249 0.08374,0.0104 0.08416,-0.003 0.08259,-0.0166 0.0803,-0.0292 0.07801,-0.0426 0.07216,-0.055 0.0632,-0.0658"
             id="path152-30-5"
             inkscape:connector-curvature="0"
             style="fill:none;fill-opacity:1;stroke:#000000;stroke-width:0.2;stroke-linecap:butt;stroke-linejoin:miter;stroke-miterlimit:4;stroke-dasharray:none;stroke-opacity:1" />
          <path
             d="m 82.403707,269.45537 a 14.710979,14.710979 0 0 0 3.269165,-7.89245"
             id="path154-5-8"
             inkscape:connector-curvature="0"
             style="fill:none;fill-opacity:1;stroke:#000000;stroke-width:0.2;stroke-linecap:butt;stroke-linejoin:miter;stroke-miterlimit:4;stroke-dasharray:none;stroke-opacity:1" />
          <path
             d="m 85.183515,260.95882 0.0056,1.1e-4 0.08405,0.0102 0.08249,0.0262 0.07529,0.0399 0.06664,0.0518 0.05704,0.062 0.04672,0.0701 0.03608,0.0775 0.02492,0.0848 0.0122,0.0896 -0.0018,0.092"
             id="path156-5-1"
             inkscape:connector-curvature="0"
             style="fill:none;fill-opacity:1;stroke:#000000;stroke-width:0.2;stroke-linecap:butt;stroke-linejoin:miter;stroke-miterlimit:4;stroke-dasharray:none;stroke-opacity:1" />
          <path
             d="m 85.183488,260.95878 a 7.6139011,7.6139011 0 0 0 -0.103385,-10e-4"
             id="path158-716-5"
             inkscape:connector-curvature="0"
             style="fill:none;fill-opacity:1;stroke:#000000;stroke-width:0.2;stroke-linecap:butt;stroke-linejoin:miter;stroke-miterlimit:4;stroke-dasharray:none;stroke-opacity:1" />
          <path
             d="m 85.080095,259.28639 a 7.6143148,7.6143148 0 0 0 0.103387,-10e-4"
             id="path160-8-3"
             inkscape:connector-curvature="0"
             style="fill:none;fill-opacity:1;stroke:#000000;stroke-width:0.2;stroke-linecap:butt;stroke-linejoin:miter;stroke-miterlimit:4;stroke-dasharray:none;stroke-opacity:1" />
          <path
             d="m 85.183515,259.28528 0.0056,-1.1e-4 0.08405,-0.0103 0.08249,-0.0261 0.07529,-0.0399 0.06664,-0.0518 0.05704,-0.0619 0.04672,-0.0702 0.03608,-0.0775 0.02492,-0.0848 0.0122,-0.0895 -0.0018,-0.092"
             id="path162-9-6"
             inkscape:connector-curvature="0"
             style="fill:none;fill-opacity:1;stroke:#000000;stroke-width:0.2;stroke-linecap:butt;stroke-linejoin:miter;stroke-miterlimit:4;stroke-dasharray:none;stroke-opacity:1" />
          <path
             d="m 85.672872,258.68112 a 14.710979,14.710979 0 0 0 -3.269158,-7.89244"
             id="path164-3-7"
             inkscape:connector-curvature="0"
             style="fill:none;fill-opacity:1;stroke:#000000;stroke-width:0.2;stroke-linecap:butt;stroke-linejoin:miter;stroke-miterlimit:4;stroke-dasharray:none;stroke-opacity:1" />
          <path
             d="m 81.630465,250.70753 0.03316,-0.0291 0.03535,-0.0255 0.0389,-0.0227 0.04046,-0.0187 0.08249,-0.0251 0.08311,-0.0102 0.08364,0.003 0.08259,0.0166 0.08019,0.0293 0.07759,0.0422 0.07196,0.0548 0.06382,0.0662"
             id="path166-9-4"
             inkscape:connector-curvature="0"
             style="fill:none;fill-opacity:1;stroke:#000000;stroke-width:0.2;stroke-linecap:butt;stroke-linejoin:miter;stroke-miterlimit:4;stroke-dasharray:none;stroke-opacity:1" />
          <path
             d="m 81.630471,250.70754 a 7.6138756,7.6138756 0 0 0 -0.0739,0.0723"
             id="path168-7-8"
             inkscape:connector-curvature="0"
             style="fill:none;fill-opacity:1;stroke:#000000;stroke-width:0.2;stroke-linecap:butt;stroke-linejoin:miter;stroke-miterlimit:4;stroke-dasharray:none;stroke-opacity:1" />
          <path
             d="m 80.374809,249.59808 a 7.6146522,7.6146522 0 0 0 0.07231,-0.0739"
             id="path170-7-89"
             inkscape:connector-curvature="0"
             style="fill:none;fill-opacity:1;stroke:#000000;stroke-width:0.2;stroke-linecap:butt;stroke-linejoin:miter;stroke-miterlimit:4;stroke-dasharray:none;stroke-opacity:1" />
          <path
             d="m 80.447158,249.52422 0.02899,-0.0332 0.02555,-0.0355 0.02273,-0.0388 0.01877,-0.0405 0.02513,-0.0826 0.01022,-0.0831 -0.0035,-0.0835 -0.01658,-0.0826 -0.0292,-0.0802 -0.04234,-0.0777 -0.05465,-0.0718 -0.06632,-0.0638"
             id="path172-15-6"
             inkscape:connector-curvature="0"
             style="fill:none;fill-opacity:1;stroke:#000000;stroke-width:0.2;stroke-linecap:butt;stroke-linejoin:miter;stroke-miterlimit:4;stroke-dasharray:none;stroke-opacity:1" />
          <path
             d="m 60.434782,269.53652 a 7.6138819,7.6138819 0 0 0 0.0739,-0.0723"
             id="path174-0-8"
             inkscape:connector-curvature="0"
             style="fill:none;fill-opacity:1;stroke:#000000;stroke-width:0.2;stroke-linecap:butt;stroke-linejoin:miter;stroke-miterlimit:4;stroke-dasharray:none;stroke-opacity:1" />
          <path
             d="m 61.690448,270.64597 a 7.6097957,7.6097957 0 0 0 -0.07231,0.0739"
             id="path176-3-4"
             inkscape:connector-curvature="0"
             style="fill:none;fill-opacity:1;stroke:#000000;stroke-width:0.2;stroke-linecap:butt;stroke-linejoin:miter;stroke-miterlimit:4;stroke-dasharray:none;stroke-opacity:1" />
          <path
             d="m 61.618108,270.71988 -0.0293,0.0335 -0.02576,0.0358 -0.02273,0.0389 -0.01856,0.0406 -0.02472,0.081 -0.01032,0.0832 0.0034,0.0837 0.01658,0.0827 0.02951,0.0809 0.04203,0.0771 0.05475,0.0719 0.06622,0.0639"
             id="path178-1-5"
             inkscape:connector-curvature="0"
             style="fill:none;fill-opacity:1;stroke:#000000;stroke-width:0.2;stroke-linecap:butt;stroke-linejoin:miter;stroke-miterlimit:4;stroke-dasharray:none;stroke-opacity:1" />
          <path
             d="m 71.869406,245.97117 0.0028,-0.044 0.007,-0.0431 0.01147,-0.0436 0.01533,-0.0418 0.04057,-0.0761 0.05152,-0.066 0.06163,-0.0566 0.07018,-0.0467 0.07728,-0.036 0.08489,-0.025 0.08947,-0.0122 0.09198,0.002"
             id="path180-7-8"
             inkscape:connector-curvature="0"
             style="fill:none;fill-opacity:1;stroke:#000000;stroke-width:0.2;stroke-linecap:butt;stroke-linejoin:miter;stroke-miterlimit:4;stroke-dasharray:none;stroke-opacity:1" />
          <path
             d="m 71.869385,245.97117 a 7.6138756,7.6138756 0 0 0 -0.0011,0.10338"
             id="path182-6-24"
             inkscape:connector-curvature="0"
             style="fill:none;fill-opacity:1;stroke:#000000;stroke-width:0.2;stroke-linecap:butt;stroke-linejoin:miter;stroke-miterlimit:4;stroke-dasharray:none;stroke-opacity:1" />
          <path
             d="m 70.196995,246.07455 a 7.6143148,7.6143148 0 0 0 -0.0011,-0.10338"
             id="path184-8-7"
             inkscape:connector-curvature="0"
             style="fill:none;fill-opacity:1;stroke:#000000;stroke-width:0.2;stroke-linecap:butt;stroke-linejoin:miter;stroke-miterlimit:4;stroke-dasharray:none;stroke-opacity:1" />
          <path
             d="m 70.195861,245.97117 -1.05e-4,-0.006 -0.01032,-0.0842 -0.02607,-0.0825 -0.03994,-0.0752 -0.05183,-0.0666 -0.06195,-0.0571 -0.07018,-0.0467 -0.07748,-0.0361 -0.0852,-0.025 -0.08989,-0.0122 -0.09114,0.002"
             id="path186-9-9"
             inkscape:connector-curvature="0"
             style="fill:none;fill-opacity:1;stroke:#000000;stroke-width:0.2;stroke-linecap:butt;stroke-linejoin:miter;stroke-miterlimit:4;stroke-dasharray:none;stroke-opacity:1" />
          <path
             d="m 69.591724,245.48179 a 14.710979,14.710979 0 0 0 -7.892441,3.26915"
             id="path188-7-8"
             inkscape:connector-curvature="0"
             style="fill:none;fill-opacity:1;stroke:#000000;stroke-width:0.2;stroke-linecap:butt;stroke-linejoin:miter;stroke-miterlimit:4;stroke-dasharray:none;stroke-opacity:1" />
          <path
             d="m 61.618108,249.52422 -0.02909,-0.0332 -0.02545,-0.0355 -0.02284,-0.0388 -0.01867,-0.0405 -0.02513,-0.0826 -0.01022,-0.0831 0.0034,-0.0835 0.01669,-0.0826 0.0292,-0.0802 0.04234,-0.0777 0.05465,-0.0718 0.06622,-0.0638"
             id="path190-00-6"
             inkscape:connector-curvature="0"
             style="fill:none;fill-opacity:1;stroke:#000000;stroke-width:0.2;stroke-linecap:butt;stroke-linejoin:miter;stroke-miterlimit:4;stroke-dasharray:none;stroke-opacity:1" />
          <path
             d="m 61.618139,249.52418 a 7.6138756,7.6138756 0 0 0 0.07231,0.0739"
             id="path192-5-6"
             inkscape:connector-curvature="0"
             style="fill:none;fill-opacity:1;stroke:#000000;stroke-width:0.2;stroke-linecap:butt;stroke-linejoin:miter;stroke-miterlimit:4;stroke-dasharray:none;stroke-opacity:1" />
          <path
             d="m 60.508686,250.77984 a 7.6146522,7.6146522 0 0 0 -0.0739,-0.0723"
             id="path194-5-0"
             inkscape:connector-curvature="0"
             style="fill:none;fill-opacity:1;stroke:#000000;stroke-width:0.2;stroke-linecap:butt;stroke-linejoin:miter;stroke-miterlimit:4;stroke-dasharray:none;stroke-opacity:1" />
          <path
             d="m 60.434801,250.70753 -0.03316,-0.0291 -0.03535,-0.0255 -0.0389,-0.0227 -0.04046,-0.0187 -0.08249,-0.0251 -0.08322,-0.0102 -0.08353,0.003 -0.08259,0.0166 -0.08019,0.0293 -0.07759,0.0422 -0.07196,0.0548 -0.06382,0.0662"
             id="path196-29-2"
             inkscape:connector-curvature="0"
             style="fill:none;fill-opacity:1;stroke:#000000;stroke-width:0.2;stroke-linecap:butt;stroke-linejoin:miter;stroke-miterlimit:4;stroke-dasharray:none;stroke-opacity:1" />
          <path
             d="m 59.661543,250.78868 a 14.710979,14.710979 0 0 0 -3.269158,7.89244"
             id="path198-1-4"
             inkscape:connector-curvature="0"
             style="fill:none;fill-opacity:1;stroke:#000000;stroke-width:0.2;stroke-linecap:butt;stroke-linejoin:miter;stroke-miterlimit:4;stroke-dasharray:none;stroke-opacity:1" />
          <path
             d="m 56.881751,259.28528 -0.04401,-0.003 -0.04307,-0.007 -0.04359,-0.0114 -0.04182,-0.0153 -0.07613,-0.0406 -0.06601,-0.0516 -0.05663,-0.0615 -0.04661,-0.0702 -0.03608,-0.0774 -0.02492,-0.0848 -0.0122,-0.0896 0.0017,-0.0919"
             id="path200-5-4"
             inkscape:connector-curvature="0"
             style="fill:none;fill-opacity:1;stroke:#000000;stroke-width:0.2;stroke-linecap:butt;stroke-linejoin:miter;stroke-miterlimit:4;stroke-dasharray:none;stroke-opacity:1" />
          <path
             d="m 56.881772,259.28527 a 7.6138756,7.6138756 0 0 0 0.103386,10e-4"
             id="path202-33-8"
             inkscape:connector-curvature="0"
             style="fill:none;fill-opacity:1;stroke:#000000;stroke-width:0.2;stroke-linecap:butt;stroke-linejoin:miter;stroke-miterlimit:4;stroke-dasharray:none;stroke-opacity:1" />
          <path
             d="m 56.985158,260.95766 a 7.6146522,7.6146522 0 0 0 -0.103389,0.001"
             id="path204-62-8"
             inkscape:connector-curvature="0"
             style="fill:none;fill-opacity:1;stroke:#000000;stroke-width:0.2;stroke-linecap:butt;stroke-linejoin:miter;stroke-miterlimit:4;stroke-dasharray:none;stroke-opacity:1" />
          <path
             d="m 56.881751,260.95882 -0.04401,0.003 -0.04307,0.007 -0.04359,0.0114 -0.04182,0.0154 -0.07613,0.0406 -0.06601,0.0515 -0.05663,0.0616 -0.04661,0.0701 -0.03608,0.0774 -0.02492,0.0848 -0.0122,0.0896 0.0017,0.092"
             id="path206-0-2"
             inkscape:connector-curvature="0"
             style="fill:none;fill-opacity:1;stroke:#000000;stroke-width:0.2;stroke-linecap:butt;stroke-linejoin:miter;stroke-miterlimit:4;stroke-dasharray:none;stroke-opacity:1" />
          <path
             d="m 56.392382,261.56292 a 14.710979,14.710979 0 0 0 3.269158,7.89245"
             id="path208-1-1"
             inkscape:connector-curvature="0"
             style="fill:none;fill-opacity:1;stroke:#000000;stroke-width:0.2;stroke-linecap:butt;stroke-linejoin:miter;stroke-miterlimit:4;stroke-dasharray:none;stroke-opacity:1" />
          <path
             d="m 60.434801,269.53647 -0.03316,0.0291 -0.03535,0.0256 -0.0389,0.0227 -0.04046,0.0188 -0.08249,0.0251 -0.08322,0.0102 -0.08353,-0.004 -0.08259,-0.0166 -0.08019,-0.0292 -0.07759,-0.0423 -0.07196,-0.0546 -0.06382,-0.0663"
             id="path210-67-1"
             inkscape:connector-curvature="0"
             style="fill:none;fill-opacity:1;stroke:#000000;stroke-width:0.2;stroke-linecap:butt;stroke-linejoin:miter;stroke-miterlimit:4;stroke-dasharray:none;stroke-opacity:1" />
          <path
             d="M 74.781424,253.17259 72.529522,252.2405"
             id="path212-2-6"
             inkscape:connector-curvature="0"
             style="fill:none;fill-opacity:1;stroke:#000000;stroke-width:0.2;stroke-linecap:butt;stroke-linejoin:miter;stroke-miterlimit:4;stroke-dasharray:none;stroke-opacity:1" />
          <path
             d="m 74.820322,253.18875 -0.0389,-0.0162"
             id="path214-3-4"
             inkscape:connector-curvature="0"
             style="fill:none;fill-opacity:1;stroke:#000000;stroke-width:0.2;stroke-linecap:butt;stroke-linejoin:miter;stroke-miterlimit:4;stroke-dasharray:none;stroke-opacity:1" />
          <path
             d="m 66.517983,266.75366 0.726962,0.30169"
             id="path216-27-1"
             inkscape:connector-curvature="0"
             style="fill:none;fill-opacity:1;stroke:#000000;stroke-width:0.2;stroke-linecap:butt;stroke-linejoin:miter;stroke-miterlimit:4;stroke-dasharray:none;stroke-opacity:1" />
          <path
             d="m 65.957771,266.84595 0.06101,-0.0476 0.06726,-0.0375 0.07154,-0.0271 0.07415,-0.0163 0.07352,-0.006 0.073,0.004 0.07133,0.0141 0.06841,0.0233"
             id="path218-58-8"
             inkscape:connector-curvature="0"
             style="fill:none;fill-opacity:1;stroke:#000000;stroke-width:0.2;stroke-linecap:butt;stroke-linejoin:miter;stroke-miterlimit:4;stroke-dasharray:none;stroke-opacity:1" />
          <path
             d="m 61.956822,270.38868 0.370103,-0.3383 0.412963,-0.36186 0.626224,-0.53508 0.622365,-0.53487 0.672004,-0.59536 0.519333,-0.47032 0.777957,-0.70694"
             id="path220-1-0"
             inkscape:connector-curvature="0"
             style="fill:none;fill-opacity:1;stroke:#000000;stroke-width:0.2;stroke-linecap:butt;stroke-linejoin:miter;stroke-miterlimit:4;stroke-dasharray:none;stroke-opacity:1" />
          <path
             d="m 64.308628,265.19691 -0.338401,0.37209 -0.685143,0.75491 -0.470841,0.52548 -0.594835,0.68358 -0.539042,0.63207 -0.363116,0.4213 -0.213156,0.24152 -0.338192,0.37"
             id="path222-0-7"
             inkscape:connector-curvature="0"
             style="fill:none;fill-opacity:1;stroke:#000000;stroke-width:0.2;stroke-linecap:butt;stroke-linejoin:miter;stroke-miterlimit:4;stroke-dasharray:none;stroke-opacity:1" />
          <path
             d="m 64.308628,265.19691 0.04755,-0.061 0.03765,-0.0673 0.02711,-0.0715 0.01627,-0.0742 0.0055,-0.0735 -0.0044,-0.073 -0.01408,-0.0713 -0.02326,-0.0685"
             id="path224-7-4"
             inkscape:connector-curvature="0"
             style="fill:none;fill-opacity:1;stroke:#000000;stroke-width:0.2;stroke-linecap:butt;stroke-linejoin:miter;stroke-miterlimit:4;stroke-dasharray:none;stroke-opacity:1" />
          <path
             d="m 63.467789,262.38522 0.933234,2.25138"
             id="path226-70-8"
             inkscape:connector-curvature="0"
             style="fill:none;fill-opacity:1;stroke:#000000;stroke-width:0.2;stroke-linecap:butt;stroke-linejoin:miter;stroke-miterlimit:4;stroke-dasharray:none;stroke-opacity:1" />
          <path
             d="m 63.151079,261.61894 0.31671,0.76628"
             id="path228-6-6"
             inkscape:connector-curvature="0"
             style="fill:none;fill-opacity:1;stroke:#000000;stroke-width:0.2;stroke-linecap:butt;stroke-linejoin:miter;stroke-miterlimit:4;stroke-dasharray:none;stroke-opacity:1" />
          <path
             d="m 62.689624,261.28805 0.07675,0.01 0.07415,0.021 0.06966,0.0314 0.06403,0.041 0.0559,0.0481 0.04849,0.0548 0.04046,0.0603 0.03202,0.0649"
             id="path230-57-9"
             inkscape:connector-curvature="0"
             style="fill:none;fill-opacity:1;stroke:#000000;stroke-width:0.2;stroke-linecap:butt;stroke-linejoin:miter;stroke-miterlimit:4;stroke-dasharray:none;stroke-opacity:1" />
          <path
             d="m 57.355407,260.96414 0.468234,0.0206 0.551035,0.0358 0.555207,0.0429 0.735409,0.0582 0.904348,0.061 0.530595,0.0289 1.024275,0.0498 0.565114,0.0268"
             id="path232-1-3"
             inkscape:connector-curvature="0"
             style="fill:none;fill-opacity:1;stroke:#000000;stroke-width:0.2;stroke-linecap:butt;stroke-linejoin:miter;stroke-miterlimit:4;stroke-dasharray:none;stroke-opacity:1" />
          <path
             d="m 62.689624,258.95595 -0.502335,0.0238 -1.020208,0.0494 -0.523608,0.028 -0.537061,0.0336 -0.545717,0.0397 -0.827804,0.0658 -0.555102,0.0411 -0.344345,0.0214 -0.478037,0.0213"
             id="path234-51-4"
             inkscape:connector-curvature="0"
             style="fill:none;fill-opacity:1;stroke:#000000;stroke-width:0.2;stroke-linecap:butt;stroke-linejoin:miter;stroke-miterlimit:4;stroke-dasharray:none;stroke-opacity:1" />
          <path
             d="m 62.689624,258.95595 0.07675,-0.009 0.07415,-0.021 0.06977,-0.0315 0.06393,-0.0409 0.0559,-0.0481 0.04849,-0.0548 0.04046,-0.0604 0.03202,-0.0649"
             id="path236-43-32"
             inkscape:connector-curvature="0"
             style="fill:none;fill-opacity:1;stroke:#000000;stroke-width:0.2;stroke-linecap:butt;stroke-linejoin:miter;stroke-miterlimit:4;stroke-dasharray:none;stroke-opacity:1" />
          <path
             d="m 64.083167,256.37326 -0.932088,2.2518"
             id="path238-77-4"
             inkscape:connector-curvature="0"
             style="fill:none;fill-opacity:1;stroke:#000000;stroke-width:0.2;stroke-linecap:butt;stroke-linejoin:miter;stroke-miterlimit:4;stroke-dasharray:none;stroke-opacity:1" />
          <path
             d="m 64.401023,255.6074 -0.317856,0.76586"
             id="path240-7-1"
             inkscape:connector-curvature="0"
             style="fill:none;fill-opacity:1;stroke:#000000;stroke-width:0.2;stroke-linecap:butt;stroke-linejoin:miter;stroke-miterlimit:4;stroke-dasharray:none;stroke-opacity:1" />
          <path
             d="m 64.308628,255.04708 0.04755,0.0611 0.03765,0.0671 0.02711,0.0717 0.01627,0.0741 0.0055,0.0735 -0.0044,0.073 -0.01408,0.0712 -0.02326,0.0685"
             id="path242-5-5"
             inkscape:connector-curvature="0"
             style="fill:none;fill-opacity:1;stroke:#000000;stroke-width:0.2;stroke-linecap:butt;stroke-linejoin:miter;stroke-miterlimit:4;stroke-dasharray:none;stroke-opacity:1" />
          <path
             d="m 60.765902,251.04624 0.316501,0.3457 0.364367,0.41495 0.362282,0.42297 0.478871,0.56105 0.596294,0.68264 0.354773,0.39565 0.689107,0.75939 0.380531,0.41849"
             id="path244-8-5"
             inkscape:connector-curvature="0"
             style="fill:none;fill-opacity:1;stroke:#000000;stroke-width:0.2;stroke-linecap:butt;stroke-linejoin:miter;stroke-miterlimit:4;stroke-dasharray:none;stroke-opacity:1" />
          <path
             d="m 65.957771,253.39805 -0.372085,-0.3384 -0.756265,-0.6864 -0.390021,-0.3505 -0.403474,-0.35592 -0.414006,-0.35779 -0.631855,-0.53884 -0.421619,-0.36353 -0.258624,-0.22838 -0.353,-0.32297"
             id="path246-9-9"
             inkscape:connector-curvature="0"
             style="fill:none;fill-opacity:1;stroke:#000000;stroke-width:0.2;stroke-linecap:butt;stroke-linejoin:miter;stroke-miterlimit:4;stroke-dasharray:none;stroke-opacity:1" />
          <path
             d="m 65.957771,253.39805 0.06101,0.0476 0.06716,0.0376 0.07164,0.027 0.07415,0.0164 0.07352,0.006 0.073,-0.004 0.07133,-0.014 0.06841,-0.0233"
             id="path248-5-8"
             inkscape:connector-curvature="0"
             style="fill:none;fill-opacity:1;stroke:#000000;stroke-width:0.2;stroke-linecap:butt;stroke-linejoin:miter;stroke-miterlimit:4;stroke-dasharray:none;stroke-opacity:1" />
          <path
             d="m 68.769364,252.55721 -2.251381,0.93323"
             id="path250-3-3"
             inkscape:connector-curvature="0"
             style="fill:none;fill-opacity:1;stroke:#000000;stroke-width:0.2;stroke-linecap:butt;stroke-linejoin:miter;stroke-miterlimit:4;stroke-dasharray:none;stroke-opacity:1" />
          <path
             d="m 69.535745,252.2405 -0.766381,0.31671"
             id="path252-5-9"
             inkscape:connector-curvature="0"
             style="fill:none;fill-opacity:1;stroke:#000000;stroke-width:0.2;stroke-linecap:butt;stroke-linejoin:miter;stroke-miterlimit:4;stroke-dasharray:none;stroke-opacity:1" />
          <path
             d="m 69.866533,251.77894 -0.0095,0.0769 -0.02096,0.0741 -0.03149,0.0697 -0.04088,0.0639 -0.04808,0.056 -0.05475,0.0485 -0.06038,0.0405 -0.06476,0.032"
             id="path254-0-0"
             inkscape:connector-curvature="0"
             style="fill:none;fill-opacity:1;stroke:#000000;stroke-width:0.2;stroke-linecap:butt;stroke-linejoin:miter;stroke-miterlimit:4;stroke-dasharray:none;stroke-opacity:1" />
          <path
             d="m 70.190542,246.44483 -0.02065,0.46823 -0.03587,0.55124 -0.06497,0.83094 -0.06247,0.82373 -0.03452,0.53925 -0.02889,0.5305 -0.04974,1.0249 -0.0269,0.56532"
             id="path256-4-1"
             inkscape:connector-curvature="0"
             style="fill:none;fill-opacity:1;stroke:#000000;stroke-width:0.2;stroke-linecap:butt;stroke-linejoin:miter;stroke-miterlimit:4;stroke-dasharray:none;stroke-opacity:1" />
          <path
             d="m 72.198734,251.77894 -0.02388,-0.50234 -0.04933,-1.0201 -0.02805,-0.52361 -0.03358,-0.53706 -0.03963,-0.54572 -0.0658,-0.8278 -0.04109,-0.55521 -0.02148,-0.34434 -0.02117,-0.47793"
             id="path258-5-6"
             inkscape:connector-curvature="0"
             style="fill:none;fill-opacity:1;stroke:#000000;stroke-width:0.2;stroke-linecap:butt;stroke-linejoin:miter;stroke-miterlimit:4;stroke-dasharray:none;stroke-opacity:1" />
          <path
             d="m 72.198734,251.77894 0.0095,0.0769 0.02096,0.0741 0.03149,0.0697 0.04088,0.0639 0.04807,0.056 0.05475,0.0485 0.06038,0.0405 0.06476,0.032"
             id="path260-5-1"
             inkscape:connector-curvature="0"
             style="fill:none;fill-opacity:1;stroke:#000000;stroke-width:0.2;stroke-linecap:butt;stroke-linejoin:miter;stroke-miterlimit:4;stroke-dasharray:none;stroke-opacity:1" />
          <path
             d="m 71.874724,273.79917 0.02065,-0.46813 0.03577,-0.55114 0.04297,-0.5552 0.05809,-0.73541 0.061,-0.90425 0.02889,-0.53059 0.04974,-1.02428 0.02691,-0.56511"
             id="path262-9-8"
             inkscape:connector-curvature="0"
             style="fill:none;fill-opacity:1;stroke:#000000;stroke-width:0.2;stroke-linecap:butt;stroke-linejoin:miter;stroke-miterlimit:4;stroke-dasharray:none;stroke-opacity:1" />
          <path
             d="m 69.866533,268.46506 0.04849,1.01479 0.03421,0.69275 0.05329,0.89278 0.03963,0.54342 0.04349,0.54686 0.04286,0.54833 0.03692,0.54874 0.022,0.4553 0.0031,0.0911"
             id="path264-1-2"
             inkscape:connector-curvature="0"
             style="fill:none;fill-opacity:1;stroke:#000000;stroke-width:0.2;stroke-linecap:butt;stroke-linejoin:miter;stroke-miterlimit:4;stroke-dasharray:none;stroke-opacity:1" />
          <path
             d="m 69.866533,268.46506 -0.0095,-0.0768 -0.02096,-0.0741 -0.03149,-0.0698 -0.04088,-0.0639 -0.04808,-0.0559 -0.05475,-0.0485 -0.06038,-0.0405 -0.06476,-0.032"
             id="path266-3-2"
             inkscape:connector-curvature="0"
             style="fill:none;fill-opacity:1;stroke:#000000;stroke-width:0.2;stroke-linecap:butt;stroke-linejoin:miter;stroke-miterlimit:4;stroke-dasharray:none;stroke-opacity:1" />
          <path
             d="m 67.283842,267.07152 2.251903,0.93209"
             id="path268-20-5"
             inkscape:connector-curvature="0"
             style="fill:none;fill-opacity:1;stroke:#000000;stroke-width:0.2;stroke-linecap:butt;stroke-linejoin:miter;stroke-miterlimit:4;stroke-dasharray:none;stroke-opacity:1" />
          <path
             d="m 67.244945,267.05535 0.0389,0.0162"
             id="path270-09-9"
             inkscape:connector-curvature="0"
             style="fill:none;fill-opacity:1;stroke:#000000;stroke-width:0.2;stroke-linecap:butt;stroke-linejoin:miter;stroke-miterlimit:4;stroke-dasharray:none;stroke-opacity:1" />
          <path
             d="m 75.547284,253.49044 -0.726962,-0.30169"
             id="path272-4-8"
             inkscape:connector-curvature="0"
             style="fill:none;fill-opacity:1;stroke:#000000;stroke-width:0.2;stroke-linecap:butt;stroke-linejoin:miter;stroke-miterlimit:4;stroke-dasharray:none;stroke-opacity:1" />
          <path
             d="m 76.107496,253.39805 -0.06101,0.0476 -0.06726,0.0376 -0.07154,0.027 -0.07415,0.0164 -0.07352,0.006 -0.073,-0.004 -0.07133,-0.014 -0.06841,-0.0233"
             id="path274-82-1"
             inkscape:connector-curvature="0"
             style="fill:none;fill-opacity:1;stroke:#000000;stroke-width:0.2;stroke-linecap:butt;stroke-linejoin:miter;stroke-miterlimit:4;stroke-dasharray:none;stroke-opacity:1" />
          <path
             d="m 80.108444,249.85532 -0.3457,0.3165 -0.415049,0.36437 -0.422871,0.36218 -0.56115,0.47897 -0.682537,0.5963 -0.395653,0.35477 -0.759498,0.68911 -0.41849,0.38053"
             id="path276-6-98"
             inkscape:connector-curvature="0"
             style="fill:none;fill-opacity:1;stroke:#000000;stroke-width:0.2;stroke-linecap:butt;stroke-linejoin:miter;stroke-miterlimit:4;stroke-dasharray:none;stroke-opacity:1" />
          <path
             d="m 77.756638,255.04708 0.338297,-0.37198 0.686395,-0.75626 0.350498,-0.39002 0.356024,-0.40348 0.357797,-0.414 0.538834,-0.63186 0.363533,-0.42162 0.228277,-0.25862 0.322967,-0.353"
             id="path278-9-0"
             inkscape:connector-curvature="0"
             style="fill:none;fill-opacity:1;stroke:#000000;stroke-width:0.2;stroke-linecap:butt;stroke-linejoin:miter;stroke-miterlimit:4;stroke-dasharray:none;stroke-opacity:1" />
          <path
             d="m 77.756638,255.04708 -0.04766,0.0611 -0.03754,0.0671 -0.02711,0.0717 -0.01627,0.0741 -0.0055,0.0735 0.0044,0.073 0.01408,0.0712 0.02326,0.0685"
             id="path280-5-4"
             inkscape:connector-curvature="0"
             style="fill:none;fill-opacity:1;stroke:#000000;stroke-width:0.2;stroke-linecap:butt;stroke-linejoin:miter;stroke-miterlimit:4;stroke-dasharray:none;stroke-opacity:1" />
          <path
             d="M 78.597478,257.85878 77.664243,255.6074"
             id="path282-8-2"
             inkscape:connector-curvature="0"
             style="fill:none;fill-opacity:1;stroke:#000000;stroke-width:0.2;stroke-linecap:butt;stroke-linejoin:miter;stroke-miterlimit:4;stroke-dasharray:none;stroke-opacity:1" />
          <path
             d="m 78.914187,258.62506 -0.316709,-0.76628"
             id="path284-09-7"
             inkscape:connector-curvature="0"
             style="fill:none;fill-opacity:1;stroke:#000000;stroke-width:0.2;stroke-linecap:butt;stroke-linejoin:miter;stroke-miterlimit:4;stroke-dasharray:none;stroke-opacity:1" />
          <path
             d="m 79.375643,258.95595 -0.07675,-0.009 -0.07415,-0.021 -0.06977,-0.0315 -0.06392,-0.0409 -0.0559,-0.0481 -0.04849,-0.0548 -0.04046,-0.0604 -0.03202,-0.0649"
             id="path286-4-0"
             inkscape:connector-curvature="0"
             style="fill:none;fill-opacity:1;stroke:#000000;stroke-width:0.2;stroke-linecap:butt;stroke-linejoin:miter;stroke-miterlimit:4;stroke-dasharray:none;stroke-opacity:1" />
          <path
             d="m 84.709859,259.27996 -0.468338,-0.0206 -0.551244,-0.0359 -0.830828,-0.065 -0.823842,-0.0625 -0.539146,-0.0345 -0.530596,-0.0289 -1.0249,-0.0498 -0.565322,-0.0268"
             id="path288-55-4"
             inkscape:connector-curvature="0"
             style="fill:none;fill-opacity:1;stroke:#000000;stroke-width:0.2;stroke-linecap:butt;stroke-linejoin:miter;stroke-miterlimit:4;stroke-dasharray:none;stroke-opacity:1" />
          <path
             d="m 79.375643,261.28805 1.00738,-0.0481 0.514015,-0.025 0.525694,-0.0281 0.537895,-0.0337 0.544674,-0.0396 0.551035,-0.0438 0.553747,-0.0433 0.553434,-0.0372 0.476159,-0.0228 0.07018,-0.002"
             id="path290-3-2"
             inkscape:connector-curvature="0"
             style="fill:none;fill-opacity:1;stroke:#000000;stroke-width:0.2;stroke-linecap:butt;stroke-linejoin:miter;stroke-miterlimit:4;stroke-dasharray:none;stroke-opacity:1" />
          <path
             d="m 79.375643,261.28805 -0.07675,0.01 -0.07415,0.021 -0.06977,0.0314 -0.06392,0.041 -0.0559,0.0481 -0.04849,0.0548 -0.04046,0.0603 -0.03202,0.0649"
             id="path292-0-7"
             inkscape:connector-curvature="0"
             style="fill:none;fill-opacity:1;stroke:#000000;stroke-width:0.2;stroke-linecap:butt;stroke-linejoin:miter;stroke-miterlimit:4;stroke-dasharray:none;stroke-opacity:1" />
          <path
             d="m 77.9821,263.87084 0.932087,-2.2519"
             id="path294-4-7"
             inkscape:connector-curvature="0"
             style="fill:none;fill-opacity:1;stroke:#000000;stroke-width:0.2;stroke-linecap:butt;stroke-linejoin:miter;stroke-miterlimit:4;stroke-dasharray:none;stroke-opacity:1" />
          <path
             d="M 77.664243,264.6366 77.9821,263.87084"
             id="path296-5-3"
             inkscape:connector-curvature="0"
             style="fill:none;fill-opacity:1;stroke:#000000;stroke-width:0.2;stroke-linecap:butt;stroke-linejoin:miter;stroke-miterlimit:4;stroke-dasharray:none;stroke-opacity:1" />
          <path
             d="m 77.756638,265.19691 -0.04766,-0.061 -0.03754,-0.0673 -0.02711,-0.0715 -0.01627,-0.0742 -0.0055,-0.0735 0.0044,-0.073 0.01408,-0.0713 0.02326,-0.0685"
             id="path298-80-26"
             inkscape:connector-curvature="0"
             style="fill:none;fill-opacity:1;stroke:#000000;stroke-width:0.2;stroke-linecap:butt;stroke-linejoin:miter;stroke-miterlimit:4;stroke-dasharray:none;stroke-opacity:1" />
          <path
             d="m 81.29926,269.19786 -0.316501,-0.3458 -0.364367,-0.41505 -0.541546,-0.63352 -0.538416,-0.62665 -0.356859,-0.40566 -0.354669,-0.39565 -0.689524,-0.75992 -0.38074,-0.4187"
             id="path300-4-5"
             inkscape:connector-curvature="0"
             style="fill:none;fill-opacity:1;stroke:#000000;stroke-width:0.2;stroke-linecap:butt;stroke-linejoin:miter;stroke-miterlimit:4;stroke-dasharray:none;stroke-opacity:1" />
          <path
             d="m 76.107496,266.84595 0.372084,0.3384 0.756265,0.6864 0.390021,0.3505 0.403474,0.35602 0.414006,0.3578 0.631855,0.53883 0.421619,0.36343 0.258624,0.22838 0.353,0.32297"
             id="path302-09-96"
             inkscape:connector-curvature="0"
             style="fill:none;fill-opacity:1;stroke:#000000;stroke-width:0.2;stroke-linecap:butt;stroke-linejoin:miter;stroke-miterlimit:4;stroke-dasharray:none;stroke-opacity:1" />
          <path
             d="m 76.107496,266.84595 -0.06101,-0.0476 -0.06726,-0.0375 -0.07154,-0.0271 -0.07415,-0.0163 -0.07352,-0.006 -0.073,0.004 -0.07133,0.0141 -0.06841,0.0233"
             id="path304-74-5"
             inkscape:connector-curvature="0"
             style="fill:none;fill-opacity:1;stroke:#000000;stroke-width:0.2;stroke-linecap:butt;stroke-linejoin:miter;stroke-miterlimit:4;stroke-dasharray:none;stroke-opacity:1" />
          <path
             d="m 73.295798,267.68679 2.251486,-0.93313"
             id="path306-0-2"
             inkscape:connector-curvature="0"
             style="fill:none;fill-opacity:1;stroke:#000000;stroke-width:0.2;stroke-linecap:butt;stroke-linejoin:miter;stroke-miterlimit:4;stroke-dasharray:none;stroke-opacity:1" />
          <path
             d="m 72.529522,268.00361 0.766276,-0.31682"
             id="path308-3-4"
             inkscape:connector-curvature="0"
             style="fill:none;fill-opacity:1;stroke:#000000;stroke-width:0.2;stroke-linecap:butt;stroke-linejoin:miter;stroke-miterlimit:4;stroke-dasharray:none;stroke-opacity:1" />
          <path
             d="m 72.198734,268.46506 0.0095,-0.0768 0.02096,-0.0741 0.03149,-0.0698 0.04088,-0.0639 0.04807,-0.0559 0.05475,-0.0485 0.06038,-0.0405 0.06476,-0.032"
             id="path310-9-1"
             inkscape:connector-curvature="0"
             style="fill:none;fill-opacity:1;stroke:#000000;stroke-width:0.2;stroke-linecap:butt;stroke-linejoin:miter;stroke-miterlimit:4;stroke-dasharray:none;stroke-opacity:1" />
        </g>
      </g>
      <ellipse
         transform="matrix(0.91842347,0.39559869,-0.3957559,0.91835574,0,0)"
         style="fill:#ffffff;fill-opacity:1;stroke:#ff0000;stroke-width:0.01;stroke-miterlimit:4;stroke-dasharray:none;stroke-opacity:1"
         ry="3.6091974"
         rx="3.5562623"
         cy="232.05548"
         cx="159.49155"
         id="path4623-4-1" />
      <path
         sodipodi:nodetypes="ccccccccccccccccccc"
         inkscape:connector-curvature="0"
         id="path8555-1"
         d="m 43.002802,257.53256 c 0.26608,0.7111 0.680877,2.24421 0.967246,2.99688 0.08167,0.25315 0.163744,0.46931 0.09493,0.57582 -0.254279,0.39766 -0.604822,0.73344 -0.859961,1.14084 -0.10563,0.17238 -0.118554,0.24612 -0.124588,0.7124 l -0.0069,0.52023 c -0.423367,0.0189 -0.803711,0.0131 -1.203436,0.001 0.179824,-1.80885 0.420219,-3.90248 0.678099,-6.02386 z m 3.08489,7.02075 c 0.905644,1.42549 2.204804,3.20774 3.032519,4.43393 -0.581597,0.32224 -1.214677,0.68459 -1.75777,0.94008 -0.662514,-0.31695 -1.356708,-0.59947 -2.032495,-0.88443 0.824208,-1.62807 1.088537,-2.9761 0.757729,-4.48955 z m -1.352953,-0.0752 c 0.317812,1.36785 0.151207,2.66733 -0.560157,3.95718 -0.82852,-0.76929 -1.442855,-1.37573 -2.366535,-2.21794 0.01185,-0.84637 0.03428,-0.8358 0.03899,-1.59281 0.719867,-0.0454 2.375083,-0.13765 2.887699,-0.14643 z"
         style="fill:#000000;fill-opacity:1;stroke:none;stroke-width:0.2;stroke-miterlimit:4;stroke-dasharray:none;stroke-opacity:1" />
    </g>
  </g>
</svg>
