solid CATIA STL
  facet normal  0.000000e+000  0.000000e+000  1.000000e+000
    outer loop
      vertex  0.000000e+000  5.000000e+000  1.100000e+001
      vertex  0.000000e+000  0.000000e+000  1.100000e+001
      vertex  2.146447e+000  2.853553e+000  1.100000e+001
    endloop
  endfacet
  facet normal  0.000000e+000  -0.000000e+000  1.000000e+000
    outer loop
      vertex  0.000000e+000  5.000000e+000  1.100000e+001
      vertex  2.146447e+000  2.853553e+000  1.100000e+001
      vertex  2.308658e+000  2.961940e+000  1.100000e+001
    endloop
  endfacet
  facet normal  0.000000e+000  -0.000000e+000  1.000000e+000
    outer loop
      vertex  0.000000e+000  5.000000e+000  1.100000e+001
      vertex  2.308658e+000  2.961940e+000  1.100000e+001
      vertex  2.500000e+000  3.000000e+000  1.100000e+001
    endloop
  endfacet
  facet normal  0.000000e+000  -0.000000e+000  1.000000e+000
    outer loop
      vertex  0.000000e+000  5.000000e+000  1.100000e+001
      vertex  2.500000e+000  3.000000e+000  1.100000e+001
      vertex  2.250000e+001  3.000000e+000  1.100000e+001
    endloop
  endfacet
  facet normal  0.000000e+000  -0.000000e+000  1.000000e+000
    outer loop
      vertex  0.000000e+000  5.000000e+000  1.100000e+001
      vertex  2.250000e+001  3.000000e+000  1.100000e+001
      vertex  2.500000e+001  5.000000e+000  1.100000e+001
    endloop
  endfacet
  facet normal  0.000000e+000  0.000000e+000  1.000000e+000
    outer loop
      vertex  0.000000e+000  0.000000e+000  1.100000e+001
      vertex  2.500000e+001  0.000000e+000  1.100000e+001
      vertex  2.250000e+001  2.000000e+000  1.100000e+001
    endloop
  endfacet
  facet normal  0.000000e+000  0.000000e+000  1.000000e+000
    outer loop
      vertex  0.000000e+000  0.000000e+000  1.100000e+001
      vertex  2.250000e+001  2.000000e+000  1.100000e+001
      vertex  2.500000e+000  2.000000e+000  1.100000e+001
    endloop
  endfacet
  facet normal  0.000000e+000  0.000000e+000  1.000000e+000
    outer loop
      vertex  0.000000e+000  0.000000e+000  1.100000e+001
      vertex  2.500000e+000  2.000000e+000  1.100000e+001
      vertex  2.308658e+000  2.038060e+000  1.100000e+001
    endloop
  endfacet
  facet normal  0.000000e+000  0.000000e+000  1.000000e+000
    outer loop
      vertex  0.000000e+000  0.000000e+000  1.100000e+001
      vertex  2.308658e+000  2.038060e+000  1.100000e+001
      vertex  2.146447e+000  2.146447e+000  1.100000e+001
    endloop
  endfacet
  facet normal  0.000000e+000  0.000000e+000  1.000000e+000
    outer loop
      vertex  0.000000e+000  0.000000e+000  1.100000e+001
      vertex  2.146447e+000  2.146447e+000  1.100000e+001
      vertex  2.038060e+000  2.308658e+000  1.100000e+001
    endloop
  endfacet
  facet normal  0.000000e+000  0.000000e+000  1.000000e+000
    outer loop
      vertex  0.000000e+000  0.000000e+000  1.100000e+001
      vertex  2.038060e+000  2.308658e+000  1.100000e+001
      vertex  2.000000e+000  2.500000e+000  1.100000e+001
    endloop
  endfacet
  facet normal  0.000000e+000  -0.000000e+000  1.000000e+000
    outer loop
      vertex  0.000000e+000  0.000000e+000  1.100000e+001
      vertex  2.000000e+000  2.500000e+000  1.100000e+001
      vertex  2.038060e+000  2.691342e+000  1.100000e+001
    endloop
  endfacet
  facet normal  0.000000e+000  -0.000000e+000  1.000000e+000
    outer loop
      vertex  0.000000e+000  0.000000e+000  1.100000e+001
      vertex  2.038060e+000  2.691342e+000  1.100000e+001
      vertex  2.146447e+000  2.853553e+000  1.100000e+001
    endloop
  endfacet
  facet normal  0.000000e+000  0.000000e+000  1.000000e+000
    outer loop
      vertex  2.500000e+001  0.000000e+000  1.100000e+001
      vertex  2.285355e+001  2.853553e+000  1.100000e+001
      vertex  2.296194e+001  2.691342e+000  1.100000e+001
    endloop
  endfacet
  facet normal  0.000000e+000  0.000000e+000  1.000000e+000
    outer loop
      vertex  2.500000e+001  0.000000e+000  1.100000e+001
      vertex  2.296194e+001  2.691342e+000  1.100000e+001
      vertex  2.300000e+001  2.500000e+000  1.100000e+001
    endloop
  endfacet
  facet normal  0.000000e+000  0.000000e+000  1.000000e+000
    outer loop
      vertex  2.500000e+001  0.000000e+000  1.100000e+001
      vertex  2.300000e+001  2.500000e+000  1.100000e+001
      vertex  2.296194e+001  2.308658e+000  1.100000e+001
    endloop
  endfacet
  facet normal  0.000000e+000  0.000000e+000  1.000000e+000
    outer loop
      vertex  2.500000e+001  0.000000e+000  1.100000e+001
      vertex  2.296194e+001  2.308658e+000  1.100000e+001
      vertex  2.285355e+001  2.146447e+000  1.100000e+001
    endloop
  endfacet
  facet normal  0.000000e+000  0.000000e+000  1.000000e+000
    outer loop
      vertex  2.500000e+001  0.000000e+000  1.100000e+001
      vertex  2.285355e+001  2.146447e+000  1.100000e+001
      vertex  2.269134e+001  2.038060e+000  1.100000e+001
    endloop
  endfacet
  facet normal  0.000000e+000  0.000000e+000  9.999999e-001
    outer loop
      vertex  2.500000e+001  0.000000e+000  1.100000e+001
      vertex  2.269134e+001  2.038060e+000  1.100000e+001
      vertex  2.250000e+001  2.000000e+000  1.100000e+001
    endloop
  endfacet
  facet normal  -0.000000e+000  0.000000e+000  9.999999e-001
    outer loop
      vertex  2.500000e+001  5.000000e+000  1.100000e+001
      vertex  2.250000e+001  3.000000e+000  1.100000e+001
      vertex  2.269134e+001  2.961940e+000  1.100000e+001
    endloop
  endfacet
  facet normal  -0.000000e+000  0.000000e+000  1.000000e+000
    outer loop
      vertex  2.500000e+001  5.000000e+000  1.100000e+001
      vertex  2.269134e+001  2.961940e+000  1.100000e+001
      vertex  2.285355e+001  2.853553e+000  1.100000e+001
    endloop
  endfacet
  facet normal  -0.000000e+000  0.000000e+000  9.999999e-001
    outer loop
      vertex  2.500000e+001  5.000000e+000  1.100000e+001
      vertex  2.285355e+001  2.853553e+000  1.100000e+001
      vertex  2.500000e+001  0.000000e+000  1.100000e+001
    endloop
  endfacet
  facet normal  -0.000000e+000  0.000000e+000  1.000000e+000
    outer loop
      vertex  2.250000e+001  3.000000e+000  1.100000e+001
      vertex  2.500000e+000  3.000000e+000  1.100000e+001
      vertex  2.230866e+001  2.961940e+000  1.100000e+001
    endloop
  endfacet
  facet normal  0.000000e+000  0.000000e+000  1.000000e+000
    outer loop
      vertex  2.230866e+001  2.961940e+000  1.100000e+001
      vertex  2.500000e+000  3.000000e+000  1.100000e+001
      vertex  2.691342e+000  2.961940e+000  1.100000e+001
    endloop
  endfacet
  facet normal  -0.000000e+000  0.000000e+000  1.000000e+000
    outer loop
      vertex  2.230866e+001  2.961940e+000  1.100000e+001
      vertex  2.691342e+000  2.961940e+000  1.100000e+001
      vertex  2.214645e+001  2.853553e+000  1.100000e+001
    endloop
  endfacet
  facet normal  0.000000e+000  0.000000e+000  1.000000e+000
    outer loop
      vertex  2.214645e+001  2.853553e+000  1.100000e+001
      vertex  2.691342e+000  2.961940e+000  1.100000e+001
      vertex  2.853553e+000  2.853553e+000  1.100000e+001
    endloop
  endfacet
  facet normal  -0.000000e+000  0.000000e+000  1.000000e+000
    outer loop
      vertex  2.214645e+001  2.853553e+000  1.100000e+001
      vertex  2.853553e+000  2.853553e+000  1.100000e+001
      vertex  2.203806e+001  2.691342e+000  1.100000e+001
    endloop
  endfacet
  facet normal  0.000000e+000  0.000000e+000  1.000000e+000
    outer loop
      vertex  2.203806e+001  2.691342e+000  1.100000e+001
      vertex  2.853553e+000  2.853553e+000  1.100000e+001
      vertex  2.961940e+000  2.691342e+000  1.100000e+001
    endloop
  endfacet
  facet normal  -0.000000e+000  0.000000e+000  1.000000e+000
    outer loop
      vertex  2.203806e+001  2.691342e+000  1.100000e+001
      vertex  2.961940e+000  2.691342e+000  1.100000e+001
      vertex  2.200000e+001  2.500000e+000  1.100000e+001
    endloop
  endfacet
  facet normal  0.000000e+000  0.000000e+000  9.999999e-001
    outer loop
      vertex  2.200000e+001  2.500000e+000  1.100000e+001
      vertex  2.961940e+000  2.691342e+000  1.100000e+001
      vertex  3.000000e+000  2.500000e+000  1.100000e+001
    endloop
  endfacet
  facet normal  -0.000000e+000  0.000000e+000  9.999999e-001
    outer loop
      vertex  2.200000e+001  2.500000e+000  1.100000e+001
      vertex  3.000000e+000  2.500000e+000  1.100000e+001
      vertex  2.203806e+001  2.308658e+000  1.100000e+001
    endloop
  endfacet
  facet normal  0.000000e+000  0.000000e+000  1.000000e+000
    outer loop
      vertex  2.203806e+001  2.308658e+000  1.100000e+001
      vertex  3.000000e+000  2.500000e+000  1.100000e+001
      vertex  2.961940e+000  2.308658e+000  1.100000e+001
    endloop
  endfacet
  facet normal  -0.000000e+000  0.000000e+000  1.000000e+000
    outer loop
      vertex  2.203806e+001  2.308658e+000  1.100000e+001
      vertex  2.961940e+000  2.308658e+000  1.100000e+001
      vertex  2.214645e+001  2.146447e+000  1.100000e+001
    endloop
  endfacet
  facet normal  0.000000e+000  0.000000e+000  1.000000e+000
    outer loop
      vertex  2.214645e+001  2.146447e+000  1.100000e+001
      vertex  2.961940e+000  2.308658e+000  1.100000e+001
      vertex  2.853553e+000  2.146447e+000  1.100000e+001
    endloop
  endfacet
  facet normal  -0.000000e+000  0.000000e+000  1.000000e+000
    outer loop
      vertex  2.214645e+001  2.146447e+000  1.100000e+001
      vertex  2.853553e+000  2.146447e+000  1.100000e+001
      vertex  2.230866e+001  2.038060e+000  1.100000e+001
    endloop
  endfacet
  facet normal  0.000000e+000  0.000000e+000  1.000000e+000
    outer loop
      vertex  2.230866e+001  2.038060e+000  1.100000e+001
      vertex  2.853553e+000  2.146447e+000  1.100000e+001
      vertex  2.691342e+000  2.038060e+000  1.100000e+001
    endloop
  endfacet
  facet normal  -0.000000e+000  0.000000e+000  1.000000e+000
    outer loop
      vertex  2.230866e+001  2.038060e+000  1.100000e+001
      vertex  2.691342e+000  2.038060e+000  1.100000e+001
      vertex  2.250000e+001  2.000000e+000  1.100000e+001
    endloop
  endfacet
  facet normal  0.000000e+000  0.000000e+000  1.000000e+000
    outer loop
      vertex  2.250000e+001  2.000000e+000  1.100000e+001
      vertex  2.691342e+000  2.038060e+000  1.100000e+001
      vertex  2.500000e+000  2.000000e+000  1.100000e+001
    endloop
  endfacet
  facet normal  -0.000000e+000  0.000000e+000 -1.000000e+000
    outer loop
      vertex  0.000000e+000  5.000000e+000  0.000000e+000
      vertex  2.500000e+001  5.000000e+000  0.000000e+000
      vertex  2.250000e+001  3.000000e+000  0.000000e+000
    endloop
  endfacet
  facet normal  0.000000e+000  0.000000e+000 -1.000000e+000
    outer loop
      vertex  0.000000e+000  5.000000e+000  0.000000e+000
      vertex  2.250000e+001  3.000000e+000  0.000000e+000
      vertex  2.500000e+000  3.000000e+000  0.000000e+000
    endloop
  endfacet
  facet normal  -0.000000e+000  0.000000e+000 -1.000000e+000
    outer loop
      vertex  0.000000e+000  5.000000e+000  0.000000e+000
      vertex  2.500000e+000  3.000000e+000  0.000000e+000
      vertex  2.308658e+000  2.961940e+000  0.000000e+000
    endloop
  endfacet
  facet normal  -0.000000e+000  0.000000e+000 -1.000000e+000
    outer loop
      vertex  0.000000e+000  5.000000e+000  0.000000e+000
      vertex  2.308658e+000  2.961940e+000  0.000000e+000
      vertex  2.146447e+000  2.853553e+000  0.000000e+000
    endloop
  endfacet
  facet normal  -0.000000e+000  0.000000e+000 -1.000000e+000
    outer loop
      vertex  0.000000e+000  5.000000e+000  0.000000e+000
      vertex  2.146447e+000  2.853553e+000  0.000000e+000
      vertex  0.000000e+000  0.000000e+000  0.000000e+000
    endloop
  endfacet
  facet normal  0.000000e+000  0.000000e+000 -1.000000e+000
    outer loop
      vertex  0.000000e+000  0.000000e+000  0.000000e+000
      vertex  2.146447e+000  2.853553e+000  0.000000e+000
      vertex  2.038060e+000  2.691342e+000  0.000000e+000
    endloop
  endfacet
  facet normal  0.000000e+000  0.000000e+000 -1.000000e+000
    outer loop
      vertex  0.000000e+000  0.000000e+000  0.000000e+000
      vertex  2.038060e+000  2.691342e+000  0.000000e+000
      vertex  2.000000e+000  2.500000e+000  0.000000e+000
    endloop
  endfacet
  facet normal  0.000000e+000  -0.000000e+000 -1.000000e+000
    outer loop
      vertex  0.000000e+000  0.000000e+000  0.000000e+000
      vertex  2.000000e+000  2.500000e+000  0.000000e+000
      vertex  2.038060e+000  2.308658e+000  0.000000e+000
    endloop
  endfacet
  facet normal  0.000000e+000  -0.000000e+000 -1.000000e+000
    outer loop
      vertex  0.000000e+000  0.000000e+000  0.000000e+000
      vertex  2.038060e+000  2.308658e+000  0.000000e+000
      vertex  2.146447e+000  2.146447e+000  0.000000e+000
    endloop
  endfacet
  facet normal  0.000000e+000  -0.000000e+000 -1.000000e+000
    outer loop
      vertex  0.000000e+000  0.000000e+000  0.000000e+000
      vertex  2.146447e+000  2.146447e+000  0.000000e+000
      vertex  2.308658e+000  2.038060e+000  0.000000e+000
    endloop
  endfacet
  facet normal  0.000000e+000  -0.000000e+000 -1.000000e+000
    outer loop
      vertex  0.000000e+000  0.000000e+000  0.000000e+000
      vertex  2.308658e+000  2.038060e+000  0.000000e+000
      vertex  2.500000e+000  2.000000e+000  0.000000e+000
    endloop
  endfacet
  facet normal  0.000000e+000  -0.000000e+000 -1.000000e+000
    outer loop
      vertex  0.000000e+000  0.000000e+000  0.000000e+000
      vertex  2.500000e+000  2.000000e+000  0.000000e+000
      vertex  2.250000e+001  2.000000e+000  0.000000e+000
    endloop
  endfacet
  facet normal  0.000000e+000  -0.000000e+000 -1.000000e+000
    outer loop
      vertex  0.000000e+000  0.000000e+000  0.000000e+000
      vertex  2.250000e+001  2.000000e+000  0.000000e+000
      vertex  2.500000e+001  0.000000e+000  0.000000e+000
    endloop
  endfacet
  facet normal  0.000000e+000  0.000000e+000 -9.999999e-001
    outer loop
      vertex  2.500000e+001  0.000000e+000  0.000000e+000
      vertex  2.250000e+001  2.000000e+000  0.000000e+000
      vertex  2.269134e+001  2.038060e+000  0.000000e+000
    endloop
  endfacet
  facet normal  0.000000e+000  0.000000e+000 -1.000000e+000
    outer loop
      vertex  2.500000e+001  0.000000e+000  0.000000e+000
      vertex  2.269134e+001  2.038060e+000  0.000000e+000
      vertex  2.285355e+001  2.146447e+000  0.000000e+000
    endloop
  endfacet
  facet normal  0.000000e+000  0.000000e+000 -1.000000e+000
    outer loop
      vertex  2.500000e+001  0.000000e+000  0.000000e+000
      vertex  2.285355e+001  2.146447e+000  0.000000e+000
      vertex  2.296194e+001  2.308658e+000  0.000000e+000
    endloop
  endfacet
  facet normal  0.000000e+000  0.000000e+000 -1.000000e+000
    outer loop
      vertex  2.500000e+001  0.000000e+000  0.000000e+000
      vertex  2.296194e+001  2.308658e+000  0.000000e+000
      vertex  2.300000e+001  2.500000e+000  0.000000e+000
    endloop
  endfacet
  facet normal  0.000000e+000  0.000000e+000 -1.000000e+000
    outer loop
      vertex  2.500000e+001  0.000000e+000  0.000000e+000
      vertex  2.300000e+001  2.500000e+000  0.000000e+000
      vertex  2.296194e+001  2.691342e+000  0.000000e+000
    endloop
  endfacet
  facet normal  0.000000e+000  0.000000e+000 -1.000000e+000
    outer loop
      vertex  2.500000e+001  0.000000e+000  0.000000e+000
      vertex  2.296194e+001  2.691342e+000  0.000000e+000
      vertex  2.285355e+001  2.853553e+000  0.000000e+000
    endloop
  endfacet
  facet normal  0.000000e+000  0.000000e+000 -9.999999e-001
    outer loop
      vertex  2.500000e+001  5.000000e+000  0.000000e+000
      vertex  2.500000e+001  0.000000e+000  0.000000e+000
      vertex  2.285355e+001  2.853553e+000  0.000000e+000
    endloop
  endfacet
  facet normal  0.000000e+000  0.000000e+000 -1.000000e+000
    outer loop
      vertex  2.500000e+001  5.000000e+000  0.000000e+000
      vertex  2.285355e+001  2.853553e+000  0.000000e+000
      vertex  2.269134e+001  2.961940e+000  0.000000e+000
    endloop
  endfacet
  facet normal  0.000000e+000  0.000000e+000 -9.999999e-001
    outer loop
      vertex  2.500000e+001  5.000000e+000  0.000000e+000
      vertex  2.269134e+001  2.961940e+000  0.000000e+000
      vertex  2.250000e+001  3.000000e+000  0.000000e+000
    endloop
  endfacet
  facet normal  0.000000e+000  0.000000e+000 -1.000000e+000
    outer loop
      vertex  2.200000e+001  2.500000e+000  0.000000e+000
      vertex  2.961940e+000  2.691342e+000  0.000000e+000
      vertex  2.203806e+001  2.691342e+000  0.000000e+000
    endloop
  endfacet
  facet normal  0.000000e+000  0.000000e+000 -1.000000e+000
    outer loop
      vertex  2.203806e+001  2.691342e+000  0.000000e+000
      vertex  2.961940e+000  2.691342e+000  0.000000e+000
      vertex  2.853553e+000  2.853553e+000  0.000000e+000
    endloop
  endfacet
  facet normal  0.000000e+000  0.000000e+000 -1.000000e+000
    outer loop
      vertex  2.203806e+001  2.691342e+000  0.000000e+000
      vertex  2.853553e+000  2.853553e+000  0.000000e+000
      vertex  2.214645e+001  2.853553e+000  0.000000e+000
    endloop
  endfacet
  facet normal  0.000000e+000  0.000000e+000 -1.000000e+000
    outer loop
      vertex  2.214645e+001  2.853553e+000  0.000000e+000
      vertex  2.853553e+000  2.853553e+000  0.000000e+000
      vertex  2.691342e+000  2.961940e+000  0.000000e+000
    endloop
  endfacet
  facet normal  0.000000e+000  0.000000e+000 -1.000000e+000
    outer loop
      vertex  2.214645e+001  2.853553e+000  0.000000e+000
      vertex  2.691342e+000  2.961940e+000  0.000000e+000
      vertex  2.230866e+001  2.961940e+000  0.000000e+000
    endloop
  endfacet
  facet normal  0.000000e+000  0.000000e+000 -1.000000e+000
    outer loop
      vertex  2.230866e+001  2.961940e+000  0.000000e+000
      vertex  2.691342e+000  2.961940e+000  0.000000e+000
      vertex  2.500000e+000  3.000000e+000  0.000000e+000
    endloop
  endfacet
  facet normal  0.000000e+000  0.000000e+000 -1.000000e+000
    outer loop
      vertex  2.230866e+001  2.961940e+000  0.000000e+000
      vertex  2.500000e+000  3.000000e+000  0.000000e+000
      vertex  2.250000e+001  3.000000e+000  0.000000e+000
    endloop
  endfacet
  facet normal  0.000000e+000  0.000000e+000 -9.999999e-001
    outer loop
      vertex  2.961940e+000  2.691342e+000  0.000000e+000
      vertex  2.200000e+001  2.500000e+000  0.000000e+000
      vertex  3.000000e+000  2.500000e+000  0.000000e+000
    endloop
  endfacet
  facet normal  0.000000e+000  0.000000e+000 -9.999999e-001
    outer loop
      vertex  3.000000e+000  2.500000e+000  0.000000e+000
      vertex  2.200000e+001  2.500000e+000  0.000000e+000
      vertex  2.203806e+001  2.308658e+000  0.000000e+000
    endloop
  endfacet
  facet normal  0.000000e+000  0.000000e+000 -1.000000e+000
    outer loop
      vertex  3.000000e+000  2.500000e+000  0.000000e+000
      vertex  2.203806e+001  2.308658e+000  0.000000e+000
      vertex  2.961940e+000  2.308658e+000  0.000000e+000
    endloop
  endfacet
  facet normal  0.000000e+000  0.000000e+000 -1.000000e+000
    outer loop
      vertex  2.961940e+000  2.308658e+000  0.000000e+000
      vertex  2.203806e+001  2.308658e+000  0.000000e+000
      vertex  2.214645e+001  2.146447e+000  0.000000e+000
    endloop
  endfacet
  facet normal  0.000000e+000  0.000000e+000 -1.000000e+000
    outer loop
      vertex  2.961940e+000  2.308658e+000  0.000000e+000
      vertex  2.214645e+001  2.146447e+000  0.000000e+000
      vertex  2.853553e+000  2.146447e+000  0.000000e+000
    endloop
  endfacet
  facet normal  0.000000e+000  0.000000e+000 -1.000000e+000
    outer loop
      vertex  2.853553e+000  2.146447e+000  0.000000e+000
      vertex  2.214645e+001  2.146447e+000  0.000000e+000
      vertex  2.230866e+001  2.038060e+000  0.000000e+000
    endloop
  endfacet
  facet normal  0.000000e+000  0.000000e+000 -1.000000e+000
    outer loop
      vertex  2.853553e+000  2.146447e+000  0.000000e+000
      vertex  2.230866e+001  2.038060e+000  0.000000e+000
      vertex  2.691342e+000  2.038060e+000  0.000000e+000
    endloop
  endfacet
  facet normal  0.000000e+000  0.000000e+000 -1.000000e+000
    outer loop
      vertex  2.691342e+000  2.038060e+000  0.000000e+000
      vertex  2.230866e+001  2.038060e+000  0.000000e+000
      vertex  2.250000e+001  2.000000e+000  0.000000e+000
    endloop
  endfacet
  facet normal  0.000000e+000  0.000000e+000 -1.000000e+000
    outer loop
      vertex  2.691342e+000  2.038060e+000  0.000000e+000
      vertex  2.250000e+001  2.000000e+000  0.000000e+000
      vertex  2.500000e+000  2.000000e+000  0.000000e+000
    endloop
  endfacet
  facet normal  1.950902e-001 -9.807854e-001  0.000000e+000
    outer loop
      vertex  2.500000e+000  3.000000e+000  0.000000e+000
      vertex  2.308658e+000  2.961940e+000  1.100000e+001
      vertex  2.308658e+000  2.961940e+000  0.000000e+000
    endloop
  endfacet
  facet normal  5.555708e-001 -8.314693e-001  0.000000e+000
    outer loop
      vertex  2.308658e+000  2.961940e+000  0.000000e+000
      vertex  2.308658e+000  2.961940e+000  1.100000e+001
      vertex  2.146447e+000  2.853553e+000  1.100000e+001
    endloop
  endfacet
  facet normal  5.555708e-001 -8.314693e-001  0.000000e+000
    outer loop
      vertex  2.308658e+000  2.961940e+000  0.000000e+000
      vertex  2.146447e+000  2.853553e+000  1.100000e+001
      vertex  2.146447e+000  2.853553e+000  0.000000e+000
    endloop
  endfacet
  facet normal  8.314693e-001 -5.555708e-001  0.000000e+000
    outer loop
      vertex  2.146447e+000  2.853553e+000  0.000000e+000
      vertex  2.146447e+000  2.853553e+000  1.100000e+001
      vertex  2.038060e+000  2.691342e+000  1.100000e+001
    endloop
  endfacet
  facet normal  8.314693e-001 -5.555708e-001  0.000000e+000
    outer loop
      vertex  2.146447e+000  2.853553e+000  0.000000e+000
      vertex  2.038060e+000  2.691342e+000  1.100000e+001
      vertex  2.038060e+000  2.691342e+000  0.000000e+000
    endloop
  endfacet
  facet normal  9.807854e-001 -1.950902e-001  0.000000e+000
    outer loop
      vertex  2.038060e+000  2.691342e+000  0.000000e+000
      vertex  2.038060e+000  2.691342e+000  1.100000e+001
      vertex  2.000000e+000  2.500000e+000  1.100000e+001
    endloop
  endfacet
  facet normal  9.807854e-001 -1.950902e-001  0.000000e+000
    outer loop
      vertex  2.038060e+000  2.691342e+000  0.000000e+000
      vertex  2.000000e+000  2.500000e+000  1.100000e+001
      vertex  2.000000e+000  2.500000e+000  0.000000e+000
    endloop
  endfacet
  facet normal  1.950902e-001 -9.807854e-001  0.000000e+000
    outer loop
      vertex  2.308658e+000  2.961940e+000  1.100000e+001
      vertex  2.500000e+000  3.000000e+000  0.000000e+000
      vertex  2.500000e+000  3.000000e+000  1.100000e+001
    endloop
  endfacet
  facet normal -1.950902e-001 -9.807854e-001  -0.000000e+000
    outer loop
      vertex  2.500000e+000  3.000000e+000  1.100000e+001
      vertex  2.500000e+000  3.000000e+000  0.000000e+000
      vertex  2.691342e+000  2.961940e+000  0.000000e+000
    endloop
  endfacet
  facet normal -1.950902e-001 -9.807854e-001  0.000000e+000
    outer loop
      vertex  2.500000e+000  3.000000e+000  1.100000e+001
      vertex  2.691342e+000  2.961940e+000  0.000000e+000
      vertex  2.691342e+000  2.961940e+000  1.100000e+001
    endloop
  endfacet
  facet normal -5.555708e-001 -8.314693e-001  -0.000000e+000
    outer loop
      vertex  2.691342e+000  2.961940e+000  1.100000e+001
      vertex  2.691342e+000  2.961940e+000  0.000000e+000
      vertex  2.853553e+000  2.853553e+000  0.000000e+000
    endloop
  endfacet
  facet normal -5.555708e-001 -8.314693e-001  0.000000e+000
    outer loop
      vertex  2.691342e+000  2.961940e+000  1.100000e+001
      vertex  2.853553e+000  2.853553e+000  0.000000e+000
      vertex  2.853553e+000  2.853553e+000  1.100000e+001
    endloop
  endfacet
  facet normal -8.314693e-001 -5.555708e-001  -0.000000e+000
    outer loop
      vertex  2.853553e+000  2.853553e+000  1.100000e+001
      vertex  2.853553e+000  2.853553e+000  0.000000e+000
      vertex  2.961940e+000  2.691342e+000  0.000000e+000
    endloop
  endfacet
  facet normal -8.314693e-001 -5.555708e-001  0.000000e+000
    outer loop
      vertex  2.853553e+000  2.853553e+000  1.100000e+001
      vertex  2.961940e+000  2.691342e+000  0.000000e+000
      vertex  2.961940e+000  2.691342e+000  1.100000e+001
    endloop
  endfacet
  facet normal -9.807854e-001 -1.950902e-001  -0.000000e+000
    outer loop
      vertex  2.961940e+000  2.691342e+000  1.100000e+001
      vertex  2.961940e+000  2.691342e+000  0.000000e+000
      vertex  3.000000e+000  2.500000e+000  0.000000e+000
    endloop
  endfacet
  facet normal -9.807854e-001 -1.950902e-001  0.000000e+000
    outer loop
      vertex  2.961940e+000  2.691342e+000  1.100000e+001
      vertex  3.000000e+000  2.500000e+000  0.000000e+000
      vertex  3.000000e+000  2.500000e+000  1.100000e+001
    endloop
  endfacet
  facet normal -1.950902e-001  9.807854e-001  0.000000e+000
    outer loop
      vertex  2.500000e+000  2.000000e+000  0.000000e+000
      vertex  2.691342e+000  2.038060e+000  1.100000e+001
      vertex  2.691342e+000  2.038060e+000  0.000000e+000
    endloop
  endfacet
  facet normal -5.555708e-001  8.314693e-001  0.000000e+000
    outer loop
      vertex  2.691342e+000  2.038060e+000  0.000000e+000
      vertex  2.691342e+000  2.038060e+000  1.100000e+001
      vertex  2.853553e+000  2.146447e+000  1.100000e+001
    endloop
  endfacet
  facet normal -5.555708e-001  8.314693e-001  0.000000e+000
    outer loop
      vertex  2.691342e+000  2.038060e+000  0.000000e+000
      vertex  2.853553e+000  2.146447e+000  1.100000e+001
      vertex  2.853553e+000  2.146447e+000  0.000000e+000
    endloop
  endfacet
  facet normal -8.314693e-001  5.555708e-001  0.000000e+000
    outer loop
      vertex  2.853553e+000  2.146447e+000  0.000000e+000
      vertex  2.853553e+000  2.146447e+000  1.100000e+001
      vertex  2.961940e+000  2.308658e+000  1.100000e+001
    endloop
  endfacet
  facet normal -8.314693e-001  5.555708e-001  0.000000e+000
    outer loop
      vertex  2.853553e+000  2.146447e+000  0.000000e+000
      vertex  2.961940e+000  2.308658e+000  1.100000e+001
      vertex  2.961940e+000  2.308658e+000  0.000000e+000
    endloop
  endfacet
  facet normal -9.807854e-001  1.950902e-001  0.000000e+000
    outer loop
      vertex  2.961940e+000  2.308658e+000  0.000000e+000
      vertex  2.961940e+000  2.308658e+000  1.100000e+001
      vertex  3.000000e+000  2.500000e+000  1.100000e+001
    endloop
  endfacet
  facet normal -9.807854e-001  1.950902e-001  0.000000e+000
    outer loop
      vertex  2.961940e+000  2.308658e+000  0.000000e+000
      vertex  3.000000e+000  2.500000e+000  1.100000e+001
      vertex  3.000000e+000  2.500000e+000  0.000000e+000
    endloop
  endfacet
  facet normal -1.950902e-001  9.807854e-001  0.000000e+000
    outer loop
      vertex  2.691342e+000  2.038060e+000  1.100000e+001
      vertex  2.500000e+000  2.000000e+000  0.000000e+000
      vertex  2.500000e+000  2.000000e+000  1.100000e+001
    endloop
  endfacet
  facet normal  1.950902e-001  9.807854e-001  0.000000e+000
    outer loop
      vertex  2.500000e+000  2.000000e+000  1.100000e+001
      vertex  2.500000e+000  2.000000e+000  0.000000e+000
      vertex  2.308658e+000  2.038060e+000  0.000000e+000
    endloop
  endfacet
  facet normal  1.950902e-001  9.807854e-001  -0.000000e+000
    outer loop
      vertex  2.500000e+000  2.000000e+000  1.100000e+001
      vertex  2.308658e+000  2.038060e+000  0.000000e+000
      vertex  2.308658e+000  2.038060e+000  1.100000e+001
    endloop
  endfacet
  facet normal  5.555708e-001  8.314693e-001  0.000000e+000
    outer loop
      vertex  2.308658e+000  2.038060e+000  1.100000e+001
      vertex  2.308658e+000  2.038060e+000  0.000000e+000
      vertex  2.146447e+000  2.146447e+000  0.000000e+000
    endloop
  endfacet
  facet normal  5.555708e-001  8.314693e-001  -0.000000e+000
    outer loop
      vertex  2.308658e+000  2.038060e+000  1.100000e+001
      vertex  2.146447e+000  2.146447e+000  0.000000e+000
      vertex  2.146447e+000  2.146447e+000  1.100000e+001
    endloop
  endfacet
  facet normal  8.314693e-001  5.555708e-001  0.000000e+000
    outer loop
      vertex  2.146447e+000  2.146447e+000  1.100000e+001
      vertex  2.146447e+000  2.146447e+000  0.000000e+000
      vertex  2.038060e+000  2.308658e+000  0.000000e+000
    endloop
  endfacet
  facet normal  8.314693e-001  5.555708e-001  -0.000000e+000
    outer loop
      vertex  2.146447e+000  2.146447e+000  1.100000e+001
      vertex  2.038060e+000  2.308658e+000  0.000000e+000
      vertex  2.038060e+000  2.308658e+000  1.100000e+001
    endloop
  endfacet
  facet normal  9.807854e-001  1.950902e-001  0.000000e+000
    outer loop
      vertex  2.038060e+000  2.308658e+000  1.100000e+001
      vertex  2.038060e+000  2.308658e+000  0.000000e+000
      vertex  2.000000e+000  2.500000e+000  0.000000e+000
    endloop
  endfacet
  facet normal  9.807854e-001  1.950902e-001  -0.000000e+000
    outer loop
      vertex  2.038060e+000  2.308658e+000  1.100000e+001
      vertex  2.000000e+000  2.500000e+000  0.000000e+000
      vertex  2.000000e+000  2.500000e+000  1.100000e+001
    endloop
  endfacet
  facet normal  1.950904e-001 -9.807852e-001  0.000000e+000
    outer loop
      vertex  2.250000e+001  3.000000e+000  0.000000e+000
      vertex  2.230866e+001  2.961940e+000  1.100000e+001
      vertex  2.230866e+001  2.961940e+000  0.000000e+000
    endloop
  endfacet
  facet normal  5.555691e-001 -8.314704e-001  0.000000e+000
    outer loop
      vertex  2.230866e+001  2.961940e+000  0.000000e+000
      vertex  2.230866e+001  2.961940e+000  1.100000e+001
      vertex  2.214645e+001  2.853553e+000  1.100000e+001
    endloop
  endfacet
  facet normal  5.555691e-001 -8.314704e-001  0.000000e+000
    outer loop
      vertex  2.230866e+001  2.961940e+000  0.000000e+000
      vertex  2.214645e+001  2.853553e+000  1.100000e+001
      vertex  2.214645e+001  2.853553e+000  0.000000e+000
    endloop
  endfacet
  facet normal  8.314727e-001 -5.555657e-001  0.000000e+000
    outer loop
      vertex  2.214645e+001  2.853553e+000  0.000000e+000
      vertex  2.214645e+001  2.853553e+000  1.100000e+001
      vertex  2.203806e+001  2.691342e+000  1.100000e+001
    endloop
  endfacet
  facet normal  8.314727e-001 -5.555657e-001  0.000000e+000
    outer loop
      vertex  2.214645e+001  2.853553e+000  0.000000e+000
      vertex  2.203806e+001  2.691342e+000  1.100000e+001
      vertex  2.203806e+001  2.691342e+000  0.000000e+000
    endloop
  endfacet
  facet normal  9.807844e-001 -1.950949e-001  0.000000e+000
    outer loop
      vertex  2.203806e+001  2.691342e+000  0.000000e+000
      vertex  2.203806e+001  2.691342e+000  1.100000e+001
      vertex  2.200000e+001  2.500000e+000  1.100000e+001
    endloop
  endfacet
  facet normal  9.807844e-001 -1.950949e-001  0.000000e+000
    outer loop
      vertex  2.203806e+001  2.691342e+000  0.000000e+000
      vertex  2.200000e+001  2.500000e+000  1.100000e+001
      vertex  2.200000e+001  2.500000e+000  0.000000e+000
    endloop
  endfacet
  facet normal  1.950904e-001 -9.807852e-001  0.000000e+000
    outer loop
      vertex  2.230866e+001  2.961940e+000  1.100000e+001
      vertex  2.250000e+001  3.000000e+000  0.000000e+000
      vertex  2.250000e+001  3.000000e+000  1.100000e+001
    endloop
  endfacet
  facet normal -1.950904e-001 -9.807852e-001  -0.000000e+000
    outer loop
      vertex  2.250000e+001  3.000000e+000  1.100000e+001
      vertex  2.250000e+001  3.000000e+000  0.000000e+000
      vertex  2.269134e+001  2.961940e+000  0.000000e+000
    endloop
  endfacet
  facet normal -1.950904e-001 -9.807852e-001  0.000000e+000
    outer loop
      vertex  2.250000e+001  3.000000e+000  1.100000e+001
      vertex  2.269134e+001  2.961940e+000  0.000000e+000
      vertex  2.269134e+001  2.961940e+000  1.100000e+001
    endloop
  endfacet
  facet normal -5.555691e-001 -8.314704e-001  -0.000000e+000
    outer loop
      vertex  2.269134e+001  2.961940e+000  1.100000e+001
      vertex  2.269134e+001  2.961940e+000  0.000000e+000
      vertex  2.285355e+001  2.853553e+000  0.000000e+000
    endloop
  endfacet
  facet normal -5.555691e-001 -8.314704e-001  0.000000e+000
    outer loop
      vertex  2.269134e+001  2.961940e+000  1.100000e+001
      vertex  2.285355e+001  2.853553e+000  0.000000e+000
      vertex  2.285355e+001  2.853553e+000  1.100000e+001
    endloop
  endfacet
  facet normal -8.314727e-001 -5.555657e-001  -0.000000e+000
    outer loop
      vertex  2.285355e+001  2.853553e+000  1.100000e+001
      vertex  2.285355e+001  2.853553e+000  0.000000e+000
      vertex  2.296194e+001  2.691342e+000  0.000000e+000
    endloop
  endfacet
  facet normal -8.314727e-001 -5.555657e-001  0.000000e+000
    outer loop
      vertex  2.285355e+001  2.853553e+000  1.100000e+001
      vertex  2.296194e+001  2.691342e+000  0.000000e+000
      vertex  2.296194e+001  2.691342e+000  1.100000e+001
    endloop
  endfacet
  facet normal -9.807844e-001 -1.950949e-001  -0.000000e+000
    outer loop
      vertex  2.296194e+001  2.691342e+000  1.100000e+001
      vertex  2.296194e+001  2.691342e+000  0.000000e+000
      vertex  2.300000e+001  2.500000e+000  0.000000e+000
    endloop
  endfacet
  facet normal -9.807844e-001 -1.950949e-001  0.000000e+000
    outer loop
      vertex  2.296194e+001  2.691342e+000  1.100000e+001
      vertex  2.300000e+001  2.500000e+000  0.000000e+000
      vertex  2.300000e+001  2.500000e+000  1.100000e+001
    endloop
  endfacet
  facet normal -1.950904e-001  9.807852e-001  0.000000e+000
    outer loop
      vertex  2.250000e+001  2.000000e+000  0.000000e+000
      vertex  2.269134e+001  2.038060e+000  1.100000e+001
      vertex  2.269134e+001  2.038060e+000  0.000000e+000
    endloop
  endfacet
  facet normal -5.555691e-001  8.314704e-001  0.000000e+000
    outer loop
      vertex  2.269134e+001  2.038060e+000  0.000000e+000
      vertex  2.269134e+001  2.038060e+000  1.100000e+001
      vertex  2.285355e+001  2.146447e+000  1.100000e+001
    endloop
  endfacet
  facet normal -5.555691e-001  8.314704e-001  0.000000e+000
    outer loop
      vertex  2.269134e+001  2.038060e+000  0.000000e+000
      vertex  2.285355e+001  2.146447e+000  1.100000e+001
      vertex  2.285355e+001  2.146447e+000  0.000000e+000
    endloop
  endfacet
  facet normal -8.314727e-001  5.555657e-001  0.000000e+000
    outer loop
      vertex  2.285355e+001  2.146447e+000  0.000000e+000
      vertex  2.285355e+001  2.146447e+000  1.100000e+001
      vertex  2.296194e+001  2.308658e+000  1.100000e+001
    endloop
  endfacet
  facet normal -8.314727e-001  5.555657e-001  0.000000e+000
    outer loop
      vertex  2.285355e+001  2.146447e+000  0.000000e+000
      vertex  2.296194e+001  2.308658e+000  1.100000e+001
      vertex  2.296194e+001  2.308658e+000  0.000000e+000
    endloop
  endfacet
  facet normal -9.807844e-001  1.950949e-001  0.000000e+000
    outer loop
      vertex  2.296194e+001  2.308658e+000  0.000000e+000
      vertex  2.296194e+001  2.308658e+000  1.100000e+001
      vertex  2.300000e+001  2.500000e+000  1.100000e+001
    endloop
  endfacet
  facet normal -9.807844e-001  1.950949e-001  0.000000e+000
    outer loop
      vertex  2.296194e+001  2.308658e+000  0.000000e+000
      vertex  2.300000e+001  2.500000e+000  1.100000e+001
      vertex  2.300000e+001  2.500000e+000  0.000000e+000
    endloop
  endfacet
  facet normal -1.950904e-001  9.807852e-001  0.000000e+000
    outer loop
      vertex  2.269134e+001  2.038060e+000  1.100000e+001
      vertex  2.250000e+001  2.000000e+000  0.000000e+000
      vertex  2.250000e+001  2.000000e+000  1.100000e+001
    endloop
  endfacet
  facet normal  1.950904e-001  9.807852e-001  0.000000e+000
    outer loop
      vertex  2.250000e+001  2.000000e+000  1.100000e+001
      vertex  2.250000e+001  2.000000e+000  0.000000e+000
      vertex  2.230866e+001  2.038060e+000  0.000000e+000
    endloop
  endfacet
  facet normal  1.950904e-001  9.807852e-001  -0.000000e+000
    outer loop
      vertex  2.250000e+001  2.000000e+000  1.100000e+001
      vertex  2.230866e+001  2.038060e+000  0.000000e+000
      vertex  2.230866e+001  2.038060e+000  1.100000e+001
    endloop
  endfacet
  facet normal  5.555691e-001  8.314704e-001  0.000000e+000
    outer loop
      vertex  2.230866e+001  2.038060e+000  1.100000e+001
      vertex  2.230866e+001  2.038060e+000  0.000000e+000
      vertex  2.214645e+001  2.146447e+000  0.000000e+000
    endloop
  endfacet
  facet normal  5.555691e-001  8.314704e-001  -0.000000e+000
    outer loop
      vertex  2.230866e+001  2.038060e+000  1.100000e+001
      vertex  2.214645e+001  2.146447e+000  0.000000e+000
      vertex  2.214645e+001  2.146447e+000  1.100000e+001
    endloop
  endfacet
  facet normal  8.314727e-001  5.555657e-001  0.000000e+000
    outer loop
      vertex  2.214645e+001  2.146447e+000  1.100000e+001
      vertex  2.214645e+001  2.146447e+000  0.000000e+000
      vertex  2.203806e+001  2.308658e+000  0.000000e+000
    endloop
  endfacet
  facet normal  8.314727e-001  5.555657e-001  -0.000000e+000
    outer loop
      vertex  2.214645e+001  2.146447e+000  1.100000e+001
      vertex  2.203806e+001  2.308658e+000  0.000000e+000
      vertex  2.203806e+001  2.308658e+000  1.100000e+001
    endloop
  endfacet
  facet normal  9.807844e-001  1.950949e-001  0.000000e+000
    outer loop
      vertex  2.203806e+001  2.308658e+000  1.100000e+001
      vertex  2.203806e+001  2.308658e+000  0.000000e+000
      vertex  2.200000e+001  2.500000e+000  0.000000e+000
    endloop
  endfacet
  facet normal  9.807844e-001  1.950949e-001  -0.000000e+000
    outer loop
      vertex  2.203806e+001  2.308658e+000  1.100000e+001
      vertex  2.200000e+001  2.500000e+000  0.000000e+000
      vertex  2.200000e+001  2.500000e+000  1.100000e+001
    endloop
  endfacet
  facet normal -9.999999e-001  0.000000e+000  0.000000e+000
    outer loop
      vertex  0.000000e+000  5.000000e+000  0.000000e+000
      vertex  0.000000e+000  0.000000e+000  0.000000e+000
      vertex  0.000000e+000  5.000000e+000  1.100000e+001
    endloop
  endfacet
  facet normal -9.999999e-001  -0.000000e+000  0.000000e+000
    outer loop
      vertex  0.000000e+000  5.000000e+000  1.100000e+001
      vertex  0.000000e+000  0.000000e+000  0.000000e+000
      vertex  0.000000e+000  0.000000e+000  1.100000e+001
    endloop
  endfacet
  facet normal  0.000000e+000  1.000000e+000  -0.000000e+000
    outer loop
      vertex  2.500000e+001  5.000000e+000  1.100000e+001
      vertex  2.500000e+001  5.000000e+000  0.000000e+000
      vertex  0.000000e+000  5.000000e+000  1.100000e+001
    endloop
  endfacet
  facet normal  0.000000e+000  1.000000e+000  0.000000e+000
    outer loop
      vertex  0.000000e+000  5.000000e+000  1.100000e+001
      vertex  2.500000e+001  5.000000e+000  0.000000e+000
      vertex  0.000000e+000  5.000000e+000  0.000000e+000
    endloop
  endfacet
  facet normal  9.999999e-001  0.000000e+000  0.000000e+000
    outer loop
      vertex  2.500000e+001  0.000000e+000  0.000000e+000
      vertex  2.500000e+001  5.000000e+000  0.000000e+000
      vertex  2.500000e+001  0.000000e+000  1.100000e+001
    endloop
  endfacet
  facet normal  9.999999e-001  -0.000000e+000  0.000000e+000
    outer loop
      vertex  2.500000e+001  0.000000e+000  1.100000e+001
      vertex  2.500000e+001  5.000000e+000  0.000000e+000
      vertex  2.500000e+001  5.000000e+000  1.100000e+001
    endloop
  endfacet
  facet normal  0.000000e+000 -1.000000e+000  0.000000e+000
    outer loop
      vertex  0.000000e+000  0.000000e+000  1.100000e+001
      vertex  0.000000e+000  0.000000e+000  0.000000e+000
      vertex  2.500000e+001  0.000000e+000  1.100000e+001
    endloop
  endfacet
  facet normal  0.000000e+000 -1.000000e+000  -0.000000e+000
    outer loop
      vertex  2.500000e+001  0.000000e+000  1.100000e+001
      vertex  0.000000e+000  0.000000e+000  0.000000e+000
      vertex  2.500000e+001  0.000000e+000  0.000000e+000
    endloop
  endfacet
endsolid CATIA STL
