<?xml version='1.0' encoding='UTF-8' ?>
<!DOCTYPE svg PUBLIC "-//W3C//DTD SVG 1.1//EN" "http://www.w3.org/Graphics/SVG/1.1/DTD/svg11.dtd" [ 
 <!ATTLIST svg 
                                               xmlns:dsy CDATA #FIXED "http://www.3ds.com/print"  
                                               dsy:text-version CDATA #IMPLIED > 

                                               <!ATTLIST text 
                                               xmlns:dsy CDATA #FIXED "http://www.3ds.com/print" 
                                               dsy:text-version CDATA #IMPLIED > 
                                                ]>
<svg style = "background : rgb(255,255,255)" width = "1189mm" xmlns = "http://www.w3.org/2000/svg" height = "841mm" version = "1.1" viewBox = "0 0 1189 841" xmlns:dsy = "http://www.3ds.com/print" xmlns:xlink = "http://www.w3.org/1999/xlink" dsy:text-version = "21000"><g fill = "none" stroke = "rgb(0, 0, 0)" stroke-width = "0.35" stroke-linecap = "butt" stroke-linejoin = "miter"><path d = "M 578.7832 466.79907 A 16 16 0 0 0 587.51727 478.19763"/><path d = "M 578.783 466.799 L 579.483 466.062 L 580.107 465.183 L 580.65 464.172 L 581.05 463.239 L 581.294 462.586 L 581.751 461.227 L 582.019 460.39"/><path d = "M 547.91199 426.28226 A 48.230713 48.230713 0 0 0 582.01941 460.38968"/><path d = "M 530.10406 420.78445 A 64.773376 64.773376 0 0 0 587.51721 478.19763"/><path d = "M 587.51721 478.19763 A 64.776367 64.776367 0 0 0 601.48267 478.19763"/><path d = "M 610.217 466.799 L 609.517 466.062 L 608.893 465.183 L 608.349 464.172 L 607.95 463.239 L 607.706 462.586 L 607.249 461.227 L 606.98 460.39"/><path d = "M 601.4826 478.19763 A 16 16 0 0 0 610.21667 466.79907"/><path d = "M 601.48267 478.19763 A 64.773376 64.773376 0 0 0 658.89581 420.78445"/><path d = "M 647.49725 429.51846 A 16 16 0 0 0 658.89587 420.78442"/><path d = "M 647.497 429.519 L 646.76 428.819 L 645.882 428.195 L 644.87 427.651 L 643.937 427.252 L 643.284 427.008 L 641.926 426.551 L 641.088 426.282"/><path d = "M 606.98047 460.38968 A 48.230713 48.230713 0 0 0 641.08789 426.28229"/><path d = "M 658.89581 420.78448 A 64.776367 64.776367 0 0 0 658.89581 406.81897"/><path d = "M 647.497 398.085 L 646.76 398.785 L 645.882 399.409 L 644.87 399.952 L 643.937 400.351 L 643.284 400.595 L 641.926 401.052 L 641.088 401.321"/><path d = "M 658.89581 406.81903 A 16 16 0 0 0 647.49725 398.08499"/><path d = "M 658.89581 406.81897 A 64.773376 64.773376 0 0 0 601.48267 349.40582"/><path d = "M 641.08789 401.3212 A 48.230713 48.230713 0 0 0 606.98047 367.21378"/><path d = "M 582.01941 367.21384 A 12.938538 12.938538 0 0 0 606.98047 367.21384"/><path d = "M 582.01941 367.21378 A 48.230713 48.230713 0 0 0 547.91199 401.3212"/><path d = "M 547.91199 426.28226 A 12.938538 12.938538 0 0 0 547.91199 401.3212"/><path d = "M 606.98047 460.38965 A 12.938538 12.938538 0 0 0 582.01941 460.38965"/><path d = "M 641.08789 401.3212 A 12.938538 12.938538 0 0 0 641.08789 426.28226"/><circle r = "33.876099" cx = "594.49994" cy = "413.80173"/><circle r = "11.400024" cx = "594.49994" cy = "463.80173"/><circle r = "11.400024" cx = "644.49994" cy = "413.80173"/><path d = "M 610.21667 360.80441 A 16 16 0 0 0 601.4826 349.40585"/><path d = "M 610.217 360.804 L 609.517 361.541 L 608.893 362.42 L 608.349 363.431 L 607.95 364.364 L 607.706 365.018 L 607.249 366.376 L 606.98 367.214"/><path d = "M 541.503 429.519 L 542.239 428.819 L 543.118 428.195 L 544.13 427.651 L 545.063 427.252 L 545.716 427.008 L 547.074 426.551 L 547.912 426.282"/><circle r = "11.400024" cx = "544.49994" cy = "413.80173"/><path d = "M 541.503 398.085 L 542.239 398.785 L 543.118 399.409 L 544.13 399.952 L 545.063 400.351 L 545.716 400.595 L 547.074 401.052 L 547.912 401.321"/><path d = "M 578.783 360.804 L 579.483 361.541 L 580.107 362.42 L 580.65 363.431 L 581.05 364.364 L 581.294 365.018 L 581.751 366.376 L 582.019 367.214"/><circle r = "11.400024" cx = "594.49994" cy = "363.80176"/><circle r = "32.987427" cx = "594.49994" cy = "413.80173"/><circle r = "10.400024" cx = "594.49994" cy = "463.80173"/><circle r = "10.400024" cx = "644.49994" cy = "413.80173"/><circle r = "10.400024" cx = "544.49994" cy = "413.80173"/><circle r = "10.400024" cx = "594.49994" cy = "363.80176"/><circle r = "7.5" cx = "594.49994" cy = "463.80173"/><circle r = "7.5" cx = "644.49994" cy = "413.80173"/><circle r = "7.5" cx = "544.49994" cy = "413.80173"/><circle r = "7.5" cx = "594.49994" cy = "363.80176"/><circle r = "30.538513" cx = "594.49994" cy = "413.80173"/><circle r = "24.990967" cx = "594.49994" cy = "413.80173"/><circle r = "175.4458" cx = "594.49994" cy = "413.80173"/><path d = "M 601.48267 349.40588 A 64.776367 64.776367 0 0 0 587.51721 349.40588"/><path d = "M 530.10406 406.81897 A 64.773376 64.773376 0 0 0 530.10406 420.78445"/><path d = "M 541.50262 398.08499 A 16 16 0 0 0 530.10406 406.81903"/><path d = "M 530.10406 420.78442 A 16 16 0 0 0 541.50262 429.51846"/><path d = "M 587.51727 349.40585 A 16 16 0 0 0 578.7832 360.80441"/><path d = "M 587.51721 349.40582 A 64.773376 64.773376 0 0 0 530.10406 406.81897"/><path d = "M 496.05042 326.77197 A 189.52039 189.52039 0 0 0 493.58362 324.21741"/><path d = "M 504.91556 312.88544 A 189.51978 189.51978 0 0 0 507.47009 315.35223"/><path d = "M 602.51288 279.09747 A 189.51978 189.51978 0 0 0 602.57495 282.64807"/><path d = "M 586.42493 282.64795 A 189.52136 189.52136 0 0 0 586.487 279.09735"/><path d = "M 681.52979 315.35217 A 189.52039 189.52039 0 0 0 684.08435 312.88538"/><path d = "M 695.41626 324.21741 A 189.51978 189.51978 0 0 0 692.94946 326.77197"/><path d = "M 729.20428 421.81476 A 189.51978 189.51978 0 0 0 725.65369 421.87677"/><path d = "M 725.65375 405.72678 A 189.52136 189.52136 0 0 0 729.20435 405.78882"/><path d = "M 692.94958 500.83154 A 189.52136 189.52136 0 0 0 695.41638 503.38611"/><path d = "M 684.08435 514.71814 A 189.51978 189.51978 0 0 0 681.52979 512.25134"/><path d = "M 459.79553 405.78882 A 189.51978 189.51978 0 0 0 463.34622 405.72678"/><path d = "M 463.34619 421.87677 A 189.52039 189.52039 0 0 0 459.79556 421.8147"/><path d = "M 586.48694 548.5061 A 189.70947 189.70947 0 0 0 586.42493 544.95544"/><path d = "M 602.57495 544.95557 A 189.52039 189.52039 0 0 0 602.51288 548.50616"/><path d = "M 507.47015 512.2514 A 189.68823 189.68823 0 0 0 504.91565 514.71814"/><path d = "M 493.58362 503.38611 A 189.52222 189.52222 0 0 0 496.05038 500.83157"/><path d = "M 683.99951 304.76184 A 141.06702 141.06702 0 0 0 608.31702 273.41315"/><path d = "M 505.00034 522.84167 A 141.06708 141.06708 0 0 0 580.68274 554.19037"/><path d = "M 586.476 549.497 L 586.448 549.919 L 586.382 550.332 L 586.272 550.75 L 586.125 551.152 L 585.736 551.881 L 585.242 552.514 L 584.651 553.058 L 583.978 553.505 L 583.236 553.851 L 582.423 554.09 L 581.564 554.207 L 580.683 554.19"/><path d = "M 586.47607 549.49756 A 73.004211 73.004211 0 0 0 586.48688 548.5061"/><path d = "M 602.513 548.5061 A 73.018616 73.018616 0 0 0 602.5238 549.49756"/><path d = "M 602.524 549.497 L 602.551 549.919 L 602.618 550.333 L 602.728 550.75 L 602.875 551.152 L 603.264 551.882 L 603.758 552.515 L 604.349 553.058 L 605.021 553.505 L 605.763 553.851 L 606.577 554.09 L 607.435 554.207 L 608.317 554.19"/><path d = "M 608.31702 554.19031 A 141.06689 141.06689 0 0 0 683.99951 522.84167"/><path d = "M 684.778 515.427 L 685.056 515.745 L 685.301 516.084 L 685.519 516.457 L 685.699 516.845 L 685.94 517.636 L 686.038 518.433 L 686.004 519.235 L 685.845 520.027 L 685.565 520.796 L 685.159 521.54 L 684.635 522.23 L 683.999 522.842"/><path d = "M 684.77759 515.42688 A 73.011169 73.011169 0 0 0 684.08417 514.71826"/><path d = "M 695.41644 503.38608 A 73.015442 73.015442 0 0 0 696.12506 504.07947"/><path d = "M 696.125 504.079 L 696.164 504.117 L 696.804 504.617 L 697.54 505 L 698.322 505.239 L 699.125 505.339 L 699.932 505.306 L 700.724 505.147 L 701.494 504.867 L 702.242 504.459 L 702.934 503.932 L 703.54 503.301"/><path d = "M 703.53979 503.3013 A 141.06689 141.06689 0 0 0 734.88855 427.6188"/><path d = "M 730.196 421.826 L 730.25 421.827 L 731.056 421.925 L 731.847 422.176 L 732.569 422.559 L 733.208 423.056 L 733.755 423.65 L 734.203 424.322 L 734.549 425.065 L 734.788 425.878 L 734.905 426.737 L 734.888 427.619"/><path d = "M 730.19574 421.82562 A 73.011414 73.011414 0 0 0 729.20435 421.81482"/><path d = "M 729.20428 405.78867 A 73.015381 73.015381 0 0 0 730.19568 405.77789"/><path d = "M 730.196 405.778 L 730.25 405.777 L 731.056 405.678 L 731.847 405.428 L 732.569 405.045 L 733.208 404.548 L 733.755 403.954 L 734.203 403.281 L 734.549 402.538 L 734.788 401.725 L 734.905 400.867 L 734.888 399.985"/><path d = "M 734.88855 399.98462 A 141.06689 141.06689 0 0 0 703.53986 324.30219"/><path d = "M 696.125 323.524 L 696.443 323.245 L 696.782 323 L 697.155 322.782 L 697.543 322.603 L 698.334 322.362 L 699.131 322.264 L 699.933 322.297 L 700.725 322.456 L 701.494 322.737 L 702.238 323.142 L 702.928 323.667 L 703.54 324.302"/><path d = "M 696.12506 323.52411 A 73.011169 73.011169 0 0 0 695.41638 324.21753"/><path d = "M 684.08423 312.88531 A 73.018616 73.018616 0 0 0 684.77765 312.17664"/><path d = "M 684.778 312.177 L 685.056 311.859 L 685.301 311.519 L 685.519 311.147 L 685.699 310.759 L 685.94 309.967 L 686.038 309.17 L 686.004 308.369 L 685.845 307.577 L 685.565 306.808 L 685.159 306.063 L 684.635 305.374 L 683.999 304.762"/><path d = "M 492.87482 504.07947 A 73.01123 73.01123 0 0 0 493.58347 503.38611"/><path d = "M 504.91568 514.71826 A 72.972046 72.972046 0 0 0 504.22229 515.42682"/><path d = "M 504.222 515.427 L 503.941 515.748 L 503.694 516.091 L 503.476 516.464 L 503.298 516.853 L 503.061 517.63 L 502.962 518.428 L 502.995 519.231 L 503.154 520.024 L 503.437 520.8 L 503.84 521.539 L 504.365 522.229 L 505 522.842"/><path d = "M 602.524 278.106 L 602.551 277.684 L 602.618 277.271 L 602.728 276.853 L 602.875 276.452 L 603.264 275.722 L 603.758 275.089 L 604.349 274.546 L 605.022 274.098 L 605.763 273.753 L 606.577 273.513 L 607.435 273.396 L 608.317 273.413"/><path d = "M 602.5238 278.10596 A 73.011169 73.011169 0 0 0 602.513 279.09735"/><path d = "M 586.48688 279.09735 A 73.015381 73.015381 0 0 0 586.47607 278.10596"/><path d = "M 586.476 278.106 L 586.475 278.052 L 586.376 277.245 L 586.126 276.454 L 585.743 275.733 L 585.246 275.094 L 584.652 274.547 L 583.979 274.099 L 583.236 273.753 L 582.419 273.513 L 581.557 273.396 L 580.683 273.413"/><path d = "M 580.6828 273.41321 A 141.06689 141.06689 0 0 0 505.0004 304.76184"/><path d = "M 504.222 312.177 L 503.943 311.859 L 503.699 311.519 L 503.48 311.147 L 503.301 310.759 L 503.06 309.967 L 502.962 309.17 L 502.995 308.369 L 503.155 307.577 L 503.435 306.808 L 503.841 306.063 L 504.365 305.374 L 505 304.762"/><path d = "M 504.22229 312.17664 A 73.011169 73.011169 0 0 0 504.91568 312.88531"/><path d = "M 493.5835 324.21747 A 73.018616 73.018616 0 0 0 492.87485 323.52405"/><path d = "M 492.875 323.524 L 492.557 323.245 L 492.218 323 L 491.845 322.782 L 491.457 322.603 L 490.666 322.362 L 489.868 322.264 L 489.067 322.297 L 488.275 322.456 L 487.506 322.737 L 486.762 323.142 L 486.072 323.667 L 485.46 324.302"/><path d = "M 485.46005 324.30219 A 141.06689 141.06689 0 0 0 454.11136 399.98459"/><path d = "M 458.804 405.778 L 458.382 405.75 L 457.969 405.683 L 457.551 405.574 L 457.15 405.427 L 456.42 405.038 L 455.787 404.543 L 455.244 403.953 L 454.797 403.28 L 454.451 402.538 L 454.212 401.725 L 454.095 400.866 L 454.111 399.985"/><path d = "M 458.8042 405.77789 A 73.011169 73.011169 0 0 0 459.79559 405.7887"/><path d = "M 459.79559 421.81485 A 73.018616 73.018616 0 0 0 458.80417 421.82562"/><path d = "M 458.804 421.826 L 458.382 421.853 L 457.969 421.92 L 457.551 422.029 L 457.15 422.177 L 456.42 422.566 L 455.787 423.06 L 455.244 423.651 L 454.797 424.323 L 454.451 425.065 L 454.212 425.878 L 454.095 426.737 L 454.111 427.619"/><path d = "M 454.11133 427.61884 A 141.06689 141.06689 0 0 0 485.46002 503.30127"/><path d = "M 492.875 504.079 L 492.557 504.358 L 492.218 504.603 L 491.845 504.821 L 491.457 505.001 L 490.666 505.242 L 489.868 505.34 L 489.067 505.306 L 488.275 505.147 L 487.506 504.867 L 486.762 504.461 L 486.072 503.937 L 485.46 503.301"/><path d = "M 630.448 347.162 L 608.854 338.224"/><path d = "M 630.821 347.317 L 630.448 347.162"/><path d = "M 551.208 477.394 L 558.179 480.287"/><path d = "M 545.836 478.279 L 546.421 477.823 L 547.066 477.463 L 547.752 477.203 L 548.463 477.047 L 549.168 476.994 L 549.868 477.036 L 550.552 477.171 L 551.208 477.394"/><path d = "M 507.47 512.251 L 511.019 509.007 L 514.979 505.537 L 520.984 500.406 L 526.952 495.277 L 533.396 489.568 L 538.376 485.058 L 545.836 478.279"/><path d = "M 530.022 462.466 L 526.777 466.034 L 520.207 473.273 L 515.692 478.312 L 509.988 484.867 L 504.819 490.928 L 501.337 494.968 L 499.293 497.284 L 496.05 500.832"/><path d = "M 530.022 462.466 L 530.478 461.881 L 530.839 461.236 L 531.099 460.55 L 531.255 459.839 L 531.308 459.134 L 531.266 458.434 L 531.131 457.75 L 530.908 457.093"/><path d = "M 521.959 435.504 L 530.908 457.093"/><path d = "M 518.922 428.156 L 521.959 435.504"/><path d = "M 514.497 424.983 L 515.233 425.075 L 515.944 425.276 L 516.612 425.577 L 517.226 425.97 L 517.762 426.431 L 518.227 426.956 L 518.615 427.534 L 518.922 428.156"/><path d = "M 463.346 421.877 L 467.836 422.075 L 473.12 422.418 L 478.444 422.829 L 485.496 423.387 L 494.168 423.972 L 499.256 424.249 L 509.078 424.726 L 514.497 424.983"/><path d = "M 514.497 402.62 L 509.68 402.848 L 499.897 403.322 L 494.876 403.59 L 489.726 403.912 L 484.493 404.293 L 476.555 404.924 L 471.232 405.318 L 467.93 405.523 L 463.346 405.727"/><path d = "M 514.497 402.62 L 515.233 402.529 L 515.944 402.328 L 516.613 402.026 L 517.226 401.634 L 517.762 401.173 L 518.227 400.648 L 518.615 400.069 L 518.922 399.447"/><path d = "M 527.86 377.854 L 518.922 399.447"/><path d = "M 530.908 370.51 L 527.86 377.854"/><path d = "M 530.022 365.137 L 530.478 365.723 L 530.839 366.367 L 531.099 367.054 L 531.255 367.765 L 531.308 368.47 L 531.266 369.17 L 531.131 369.853 L 530.908 370.51"/><path d = "M 496.05 326.772 L 499.085 330.087 L 502.579 334.066 L 506.053 338.122 L 510.645 343.502 L 516.363 350.048 L 519.765 353.842 L 526.373 361.124 L 530.022 365.137"/><path d = "M 545.836 349.324 L 542.268 346.079 L 535.016 339.497 L 531.276 336.136 L 527.407 332.723 L 523.437 329.292 L 517.378 324.125 L 513.335 320.639 L 510.855 318.449 L 507.47 315.352"/><path d = "M 545.836 349.324 L 546.421 349.78 L 547.065 350.141 L 547.752 350.4 L 548.463 350.557 L 549.168 350.61 L 549.868 350.567 L 550.552 350.433 L 551.208 350.21"/><path d = "M 572.797 341.261 L 551.208 350.21"/><path d = "M 580.146 338.224 L 572.797 341.261"/><path d = "M 583.318 333.798 L 583.227 334.535 L 583.026 335.246 L 582.724 335.914 L 582.332 336.527 L 581.871 337.064 L 581.346 337.529 L 580.767 337.917 L 580.146 338.224"/><path d = "M 586.425 282.648 L 586.227 287.138 L 585.883 292.424 L 585.26 300.392 L 584.661 308.291 L 584.33 313.462 L 584.053 318.549 L 583.576 328.377 L 583.318 333.798"/><path d = "M 605.682 333.798 L 605.453 328.981 L 604.98 319.199 L 604.711 314.178 L 604.389 309.028 L 604.009 303.795 L 603.378 295.857 L 602.984 290.533 L 602.778 287.231 L 602.575 282.648"/><path d = "M 605.682 333.798 L 605.773 334.535 L 605.974 335.246 L 606.276 335.914 L 606.668 336.527 L 607.129 337.064 L 607.654 337.529 L 608.233 337.917 L 608.854 338.224"/><path d = "M 602.575 544.955 L 602.773 540.466 L 603.116 535.181 L 603.528 529.857 L 604.085 522.805 L 604.67 514.134 L 604.947 509.046 L 605.424 499.224 L 605.682 493.805"/><path d = "M 583.318 493.805 L 583.783 503.536 L 584.111 510.179 L 584.622 518.74 L 585.002 523.951 L 585.419 529.195 L 585.83 534.453 L 586.184 539.715 L 586.395 544.081 L 586.425 544.955"/><path d = "M 583.318 493.805 L 583.227 493.069 L 583.026 492.358 L 582.724 491.689 L 582.332 491.076 L 581.871 490.54 L 581.346 490.075 L 580.767 489.687 L 580.146 489.38"/><path d = "M 558.552 480.442 L 580.146 489.38"/><path d = "M 558.179 480.287 L 558.552 480.442"/><path d = "M 637.792 350.21 L 630.821 347.317"/><path d = "M 643.164 349.324 L 642.579 349.78 L 641.934 350.141 L 641.248 350.4 L 640.537 350.557 L 639.832 350.61 L 639.132 350.567 L 638.448 350.433 L 637.792 350.21"/><path d = "M 681.53 315.352 L 678.215 318.387 L 674.235 321.881 L 670.18 325.354 L 664.799 329.947 L 658.254 335.665 L 654.46 339.067 L 647.177 345.675 L 643.164 349.324"/><path d = "M 658.978 365.137 L 662.222 361.57 L 668.804 354.318 L 672.165 350.578 L 675.579 346.709 L 679.01 342.739 L 684.177 336.68 L 687.663 332.637 L 689.852 330.157 L 692.949 326.772"/><path d = "M 658.978 365.137 L 658.521 365.723 L 658.161 366.367 L 657.901 367.054 L 657.745 367.765 L 657.692 368.47 L 657.734 369.17 L 657.869 369.853 L 658.092 370.51"/><path d = "M 667.041 392.099 L 658.092 370.51"/><path d = "M 670.078 399.447 L 667.041 392.099"/><path d = "M 674.503 402.62 L 673.767 402.529 L 673.056 402.328 L 672.387 402.026 L 671.774 401.634 L 671.238 401.173 L 670.773 400.648 L 670.385 400.069 L 670.078 399.447"/><path d = "M 725.654 405.727 L 721.163 405.529 L 715.877 405.185 L 707.91 404.562 L 700.01 403.963 L 694.84 403.632 L 689.752 403.355 L 679.924 402.877 L 674.503 402.62"/><path d = "M 674.503 424.983 L 684.163 424.522 L 689.092 424.282 L 694.133 424.013 L 699.291 423.69 L 704.514 423.31 L 709.798 422.89 L 715.108 422.475 L 720.415 422.118 L 724.981 421.899 L 725.654 421.877"/><path d = "M 674.503 424.983 L 673.767 425.075 L 673.056 425.276 L 672.387 425.577 L 671.774 425.97 L 671.238 426.431 L 670.773 426.956 L 670.385 427.534 L 670.078 428.156"/><path d = "M 661.14 449.75 L 670.078 428.156"/><path d = "M 658.092 457.093 L 661.14 449.75"/><path d = "M 658.978 462.466 L 658.521 461.881 L 658.161 461.236 L 657.901 460.55 L 657.745 459.839 L 657.692 459.134 L 657.734 458.434 L 657.869 457.75 L 658.092 457.093"/><path d = "M 692.949 500.832 L 689.914 497.516 L 686.42 493.536 L 681.227 487.461 L 676.064 481.452 L 672.642 477.562 L 669.241 473.768 L 662.629 466.481 L 658.978 462.466"/><path d = "M 643.164 478.279 L 646.732 481.524 L 653.984 488.106 L 657.724 491.467 L 661.593 494.881 L 665.563 498.312 L 671.622 503.479 L 675.665 506.964 L 678.145 509.154 L 681.53 512.251"/><path d = "M 643.164 478.279 L 642.579 477.823 L 641.934 477.463 L 641.248 477.203 L 640.537 477.047 L 639.832 476.994 L 639.132 477.036 L 638.448 477.171 L 637.792 477.394"/><path d = "M 616.202 486.342 L 637.792 477.394"/><path d = "M 608.854 489.38 L 616.202 486.342"/><path d = "M 605.682 493.805 L 605.773 493.069 L 605.974 492.358 L 606.276 491.689 L 606.668 491.076 L 607.129 490.54 L 607.654 490.075 L 608.233 489.687 L 608.854 489.38"/></g><g fill = "none" stroke = "rgb(0, 0, 0)" stroke-width = "0.13" stroke-linecap = "butt" stroke-linejoin = "miter"><path d = "M 739.6936 422.9834 A 3158.8154 3158.8154 0 0 0 734.88892 427.61914"/><path d = "M 734.21118 418.22513 A 1165.6997 1165.6997 0 0 0 730.19568 421.82571"/><path d = "M 739.694 422.983 L 739.685 422.288 L 739.569 421.62 L 739.359 421.01 L 739.074 420.469 L 738.734 420 L 738.17 419.436 L 737.547 418.995 L 736.774 418.617 L 735.956 418.365 L 735.1 418.233 L 734.211 418.225"/><path d = "M 703.54028 503.30121 A 3158.6702 3158.6702 0 0 0 703.66016 509.97699"/><path d = "M 703.65985 509.97699 A 145.48389 145.48389 0 0 0 739.69385 422.98325"/><path d = "M 703.66 509.977 L 703.165 510.46 L 702.608 510.852 L 702.179 511.072 L 701.745 511.235 L 701.345 511.338 L 700.952 511.4 L 700.502 511.426 L 700.065 511.407 L 699.624 511.346 L 699.197 511.246 L 698.744 511.097 L 698.309 510.909 L 697.528 510.453 L 696.812 509.872 L 696.418 509.465"/><path d = "M 696.12512 504.07932 A 1165.6943 1165.6943 0 0 0 696.41858 509.46497"/><path d = "M 657.92 448.43 L 667.758 424.682"/><path d = "M 667.758 424.682 L 670.078 428.156"/><path d = "M 672.146 421.475 L 721.942 418.854 L 734.211 418.225"/><path d = "M 672.146 421.475 L 674.503 424.983"/><path d = "M 667.758 424.682 L 668.054 424.073 L 668.435 423.496 L 668.901 422.96 L 669.434 422.493 L 670.048 422.09 L 670.737 421.773 L 671.487 421.559 L 672.146 421.475"/><path d = "M 658.092 457.093 L 653.995 457.91"/><path d = "M 657.92 448.43 L 653.995 457.91"/><path d = "M 658.978 462.466 L 654.829 463.28"/><path d = "M 654.829 463.28 L 688.187 500.344 L 696.418 509.465"/><path d = "M 654.829 463.28 L 654.431 462.765 L 654.11 462.211 L 653.867 461.633 L 653.667 460.871 L 653.587 460.115 L 653.615 459.381 L 653.754 458.623 L 653.995 457.91"/><path d = "M 696.4184 509.46497 A 1 0.40496826 -42.192028 0 0 695.42639 509.89069"/><path d = "M 654.82941 463.27988 A 1 0.31512451 -42.016785 0 0 653.87646 463.7691"/><path d = "M 653.876 463.769 L 674.218 486.31 L 691.323 505.319 L 695.426 509.891"/><path d = "M 653.99457 457.90985 A 1 0.072143555 -337.51144 0 0 652.84845 457.36981"/><path d = "M 652.84839 457.36984 A 6.0340576 5.7822266 -250.64171 0 0 653.87646 463.76913"/><path d = "M 657.91974 448.42966 A 1 0.029968262 -337.50684 0 0 656.76788 447.92538"/><path d = "M 656.768 447.925 L 652.848 457.37"/><path d = "M 666.5658 424.25314 A 1 0.072143555 -337.48853 0 0 667.75812 424.6817"/><path d = "M 656.77148 447.9248 A 18517.678 18517.678 0 0 0 666.56641 424.25684"/><path d = "M 671.81775 420.45505 A 1 0.31512451 -272.98325 0 0 672.14563 421.47479"/><path d = "M 666.566 424.253 L 666.921 423.528 L 667.377 422.842 L 667.933 422.206 L 668.574 421.65 L 669.31 421.174 L 670.132 420.801 L 671.025 420.552 L 671.818 420.455"/><path d = "M 733.81079 417.22241 A 1 0.40496826 -272.80783 0 0 734.21118 418.22491"/><path d = "M 671.818 420.455 L 702.139 418.9 L 724.08 417.751 L 733.811 417.222"/><path d = "M 739.694 422.983 L 740.076 423.007"/><path d = "M 740.076 423.007 L 740.07 422.24 L 739.956 421.494 L 739.745 420.8 L 739.452 420.169 L 739.097 419.609 L 738.814 419.253 L 738.511 418.931 L 738.138 418.597 L 737.747 418.303 L 737.018 417.876 L 736.25 417.557 L 735.449 417.342 L 734.62 417.23 L 733.811 417.222"/><path d = "M 703.947 510.23 L 703.66 509.977"/><path d = "M 703.94678 510.2298 A 145.86633 145.86633 0 0 0 740.0755 423.00739"/><path d = "M 703.947 510.23 L 703.402 510.766 L 702.793 511.215 L 702.317 511.48 L 701.831 511.687 L 701.333 511.842 L 700.839 511.943 L 700.348 511.996 L 699.87 512.005 L 698.99 511.913 L 698.16 511.698 L 697.382 511.376 L 696.677 510.97 L 696.023 510.474 L 695.426 509.891"/><path d = "M 703.65967 317.62622 A 3161.8674 3161.8674 0 0 0 703.54004 324.302"/><path d = "M 696.41882 318.13855 A 1176.071 1176.071 0 0 0 696.12537 323.52399"/><path d = "M 703.66 317.626 L 703.162 317.141 L 702.607 316.751 L 702.028 316.468 L 701.444 316.287 L 700.872 316.196 L 700.074 316.196 L 699.322 316.324 L 698.508 316.603 L 697.751 317.003 L 697.052 317.516 L 696.418 318.139"/><path d = "M 734.88916 399.98438 A 3158.6702 3158.6702 0 0 0 739.69434 404.62012"/><path d = "M 739.69385 404.62021 A 145.48389 145.48389 0 0 0 703.65985 317.62646"/><path d = "M 739.694 404.62 L 739.686 405.312 L 739.569 405.983 L 739.421 406.442 L 739.229 406.864 L 739.02 407.219 L 738.785 407.541 L 738.485 407.878 L 738.163 408.173 L 737.807 408.442 L 737.436 408.673 L 737.01 408.888 L 736.569 409.063 L 735.694 409.293 L 734.777 409.388 L 734.211 409.379"/><path d = "M 730.19562 405.77795 A 1165.6946 1165.6946 0 0 0 734.21118 409.37842"/><path d = "M 670.078 399.447 L 667.758 402.922"/><path d = "M 663.83 393.443 L 667.758 402.922"/><path d = "M 674.503 402.62 L 672.146 406.129"/><path d = "M 672.146 406.129 L 721.941 408.749 L 734.211 409.379"/><path d = "M 672.146 406.129 L 671.5 406.047 L 670.881 405.882 L 670.301 405.645 L 669.621 405.247 L 669.029 404.769 L 668.53 404.23 L 668.092 403.596 L 667.758 402.922"/><path d = "M 663.83 393.443 L 653.995 369.694"/><path d = "M 653.995 369.694 L 658.092 370.51"/><path d = "M 654.829 364.324 L 688.188 327.259 L 696.418 318.139"/><path d = "M 654.829 364.324 L 658.978 365.137"/><path d = "M 653.995 369.694 L 653.774 369.054 L 653.634 368.377 L 653.585 367.668 L 653.631 366.961 L 653.781 366.242 L 654.044 365.53 L 654.424 364.849 L 654.829 364.324"/><path d = "M 734.21124 409.37863 A 1 0.40496826 -267.19202 0 0 733.81085 410.38113"/><path d = "M 672.14563 406.12872 A 1 0.31512451 -267.01678 0 0 671.81775 407.14847"/><path d = "M 671.818 407.148 L 702.14 408.703 L 727.677 410.05 L 733.811 410.381"/><path d = "M 667.75812 402.92184 A 1 0.072143555 -22.511442 0 0 666.5658 403.3504"/><path d = "M 666.56586 403.35043 A 6.0340576 5.7822266 -295.64172 0 0 671.81781 407.14847"/><path d = "M 663.83014 393.44284 A 1 0.029968262 -22.506433 0 0 662.65912 393.90076"/><path d = "M 662.659 393.901 L 666.566 403.35"/><path d = "M 652.84845 370.2337 A 1 0.072143555 -22.488529 0 0 653.99457 369.69366"/><path d = "M 662.66211 393.90039 A 18517.678 18517.678 0 0 0 652.85156 370.2334"/><path d = "M 653.87646 363.83441 A 1 0.31512451 -317.98322 0 0 654.82941 364.32364"/><path d = "M 652.848 370.234 L 652.587 369.469 L 652.424 368.662 L 652.368 367.819 L 652.427 366.973 L 652.611 366.116 L 652.929 365.271 L 653.385 364.464 L 653.876 363.834"/><path d = "M 695.42633 317.71301 A 1 0.40496826 -317.80786 0 0 696.41833 318.13873"/><path d = "M 653.876 363.834 L 669.895 346.077 L 688.92 324.967 L 695.426 317.713"/><path d = "M 703.66 317.626 L 703.947 317.374"/><path d = "M 703.947 317.374 L 703.4 316.835 L 702.792 316.388 L 702.152 316.047 L 701.499 315.807 L 700.852 315.662 L 700.4 315.611 L 699.958 315.597 L 699.458 315.625 L 698.974 315.694 L 698.156 315.907 L 697.388 316.225 L 696.669 316.639 L 696.004 317.145 L 695.426 317.713"/><path d = "M 740.076 404.596 L 739.694 404.62"/><path d = "M 740.0755 404.59607 A 145.86633 145.86633 0 0 0 703.94678 317.37366"/><path d = "M 740.076 404.596 L 740.07 405.36 L 739.956 406.108 L 739.807 406.632 L 739.61 407.122 L 739.367 407.584 L 739.089 408.005 L 738.78 408.39 L 738.448 408.733 L 737.76 409.291 L 737.022 409.726 L 736.244 410.048 L 735.458 410.26 L 734.645 410.372 L 733.811 410.381"/><path d = "M 603.6814 268.60815 A 3161.8674 3161.8674 0 0 0 608.31714 273.41333"/><path d = "M 690.67517 304.64185 A 145.48389 145.48389 0 0 0 603.68146 268.60785"/><path d = "M 598.92352 274.09021 A 1176.0706 1176.0706 0 0 0 602.52411 278.10577"/><path d = "M 603.681 268.608 L 602.986 268.616 L 602.318 268.733 L 601.708 268.943 L 601.167 269.228 L 600.699 269.567 L 600.134 270.132 L 599.693 270.754 L 599.315 271.527 L 599.063 272.345 L 598.931 273.202 L 598.923 274.091"/><path d = "M 683.99939 304.76147 A 3161.7842 3161.7842 0 0 0 690.67578 304.64185"/><path d = "M 690.675 304.642 L 691.159 305.137 L 691.551 305.693 L 691.771 306.123 L 691.933 306.557 L 692.036 306.956 L 692.098 307.349 L 692.124 307.8 L 692.105 308.236 L 692.044 308.678 L 691.945 309.104 L 691.795 309.557 L 691.607 309.992 L 691.151 310.774 L 690.57 311.49 L 690.163 311.883"/><path d = "M 684.7774 312.17664 A 1175.9839 1175.9839 0 0 0 690.16327 311.88318"/><path d = "M 629.128 350.382 L 629.041 350.346"/><path d = "M 629.041 350.346 L 605.38 340.544"/><path d = "M 605.38 340.544 L 608.854 338.224"/><path d = "M 602.173 336.156 L 599.667 288.542 L 598.923 274.091"/><path d = "M 602.173 336.156 L 605.682 333.798"/><path d = "M 605.38 340.544 L 604.771 340.247 L 604.194 339.867 L 603.658 339.401 L 603.191 338.868 L 602.789 338.254 L 602.471 337.565 L 602.258 336.814 L 602.173 336.156"/><path d = "M 637.792 350.21 L 638.608 354.307"/><path d = "M 629.128 350.382 L 638.608 354.307"/><path d = "M 643.164 349.324 L 643.978 353.472"/><path d = "M 643.978 353.472 L 681.043 320.114 L 690.163 311.883"/><path d = "M 643.978 353.472 L 643.463 353.871 L 642.909 354.192 L 642.331 354.434 L 641.569 354.634 L 640.813 354.714 L 640.079 354.686 L 639.321 354.547 L 638.608 354.307"/><path d = "M 601.1532 336.48398 A 1 0.31512451 -2.9832191 0 0 602.17297 336.1561"/><path d = "M 597.92059 274.49097 A 1 0.40496826 -2.8079784 0 0 598.92303 274.09058"/><path d = "M 601.153 336.484 L 599.924 312.605 L 598.262 280.809 L 597.921 274.491"/><path d = "M 603.681 268.608 L 603.706 268.226"/><path d = "M 603.706 268.226 L 602.938 268.232 L 602.192 268.346 L 601.498 268.557 L 600.867 268.849 L 600.307 269.205 L 599.951 269.488 L 599.629 269.791 L 599.295 270.164 L 599.002 270.555 L 598.574 271.284 L 598.255 272.052 L 598.04 272.852 L 597.928 273.681 L 597.921 274.491"/><path d = "M 690.92804 304.35486 A 145.86633 145.86633 0 0 0 603.70557 268.2262"/><path d = "M 690.675 304.642 L 690.928 304.355"/><path d = "M 690.16309 311.88336 A 1 0.40496826 -312.19202 0 0 690.58881 312.87537"/><path d = "M 690.928 304.355 L 691.464 304.899 L 691.913 305.509 L 692.178 305.985 L 692.385 306.471 L 692.54 306.969 L 692.641 307.463 L 692.694 307.953 L 692.703 308.431 L 692.611 309.312 L 692.396 310.141 L 692.074 310.92 L 691.668 311.625 L 691.172 312.279 L 690.589 312.875"/><path d = "M 643.97803 353.47235 A 1 0.31512451 -312.01672 0 0 644.46729 354.42523"/><path d = "M 644.467 354.425 L 667.004 334.087 L 686.018 316.978 L 690.589 312.875"/><path d = "M 638.60809 354.30719 A 1 0.072143555 -247.51144 0 0 638.06799 355.45328"/><path d = "M 638.06799 355.45328 A 6.0340576 5.7822266 -340.64172 0 0 644.46729 354.42523"/><path d = "M 629.12811 350.38208 A 1 0.029968262 -247.50606 0 0 628.62384 351.53391"/><path d = "M 628.624 351.534 L 638.068 355.453"/><path d = "M 628.624 351.534 L 628.537 351.498"/><path d = "M 604.95123 341.73593 A 1 0.072143555 -247.48843 0 0 605.37982 340.54364"/><path d = "M 628.53467 351.49805 A 18576.354 18576.354 0 0 0 604.95117 341.73828"/><path d = "M 604.951 341.736 L 604.226 341.38 L 603.54 340.925 L 602.904 340.368 L 602.348 339.728 L 601.872 338.992 L 601.499 338.17 L 601.251 337.277 L 601.153 336.484"/><path d = "M 585.318 268.608 L 586.01 268.616 L 586.681 268.732 L 587.14 268.88 L 587.562 269.073 L 587.918 269.282 L 588.239 269.516 L 588.576 269.817 L 588.871 270.139 L 589.14 270.494 L 589.371 270.866 L 589.586 271.292 L 589.761 271.732 L 589.991 272.608 L 590.086 273.525 L 590.077 274.09"/><path d = "M 586.47601 278.10596 A 1165.6946 1165.6946 0 0 0 590.07654 274.09039"/><path d = "M 580.68311 273.41235 A 3158.6702 3158.6702 0 0 0 585.31885 268.60718"/><path d = "M 498.32416 304.64233 A 3161.8674 3161.8674 0 0 0 505.00067 304.76196"/><path d = "M 585.31842 268.60785 A 145.48389 145.48389 0 0 0 498.32471 304.64185"/><path d = "M 498.83664 311.88293 A 1176.0713 1176.0713 0 0 0 504.22235 312.17639"/><path d = "M 498.325 304.642 L 497.839 305.14 L 497.449 305.694 L 497.166 306.274 L 496.985 306.858 L 496.894 307.429 L 496.894 308.228 L 497.022 308.98 L 497.301 309.794 L 497.702 310.551 L 498.214 311.249 L 498.837 311.883"/><path d = "M 574.141 344.471 L 550.392 354.307"/><path d = "M 550.392 354.307 L 551.208 350.21"/><path d = "M 545.022 353.472 L 509.581 321.576 L 498.837 311.883"/><path d = "M 545.022 353.472 L 545.836 349.324"/><path d = "M 550.392 354.307 L 549.752 354.528 L 549.075 354.667 L 548.366 354.717 L 547.659 354.67 L 546.94 354.52 L 546.228 354.258 L 545.547 353.878 L 545.022 353.472"/><path d = "M 580.146 338.224 L 583.62 340.544"/><path d = "M 574.141 344.471 L 583.62 340.544"/><path d = "M 583.318 333.798 L 586.827 336.156"/><path d = "M 586.827 336.156 L 589.447 286.361 L 590.077 274.09"/><path d = "M 586.827 336.156 L 586.745 336.802 L 586.58 337.421 L 586.343 338.001 L 585.945 338.681 L 585.467 339.272 L 584.929 339.771 L 584.294 340.209 L 583.62 340.544"/><path d = "M 544.53259 354.42523 A 1 0.31512451 -227.98322 0 0 545.02185 353.47235"/><path d = "M 498.41107 312.87537 A 1 0.40496826 -227.80798 0 0 498.83679 311.88336"/><path d = "M 544.533 354.425 L 526.778 338.409 L 503.12 317.102 L 498.411 312.875"/><path d = "M 498.325 304.642 L 498.072 304.355"/><path d = "M 498.072 304.355 L 497.534 304.901 L 497.087 305.51 L 496.745 306.15 L 496.505 306.803 L 496.361 307.45 L 496.309 307.902 L 496.296 308.344 L 496.323 308.844 L 496.392 309.328 L 496.605 310.145 L 496.923 310.914 L 497.337 311.632 L 497.844 312.297 L 498.411 312.875"/><path d = "M 585.294 268.226 L 585.318 268.608"/><path d = "M 585.29425 268.2262 A 145.86633 145.86633 0 0 0 498.07187 304.35486"/><path d = "M 590.07684 274.09058 A 1 0.40496826 -357.19211 0 0 591.07928 274.49097"/><path d = "M 585.294 268.226 L 586.058 268.232 L 586.807 268.346 L 587.33 268.495 L 587.821 268.692 L 588.283 268.935 L 588.704 269.213 L 589.088 269.522 L 589.432 269.854 L 589.989 270.541 L 590.424 271.28 L 590.747 272.058 L 590.958 272.844 L 591.07 273.656 L 591.079 274.491"/><path d = "M 586.8269 336.15607 A 1 0.31512451 -357.01669 0 0 587.84668 336.48395"/><path d = "M 587.847 336.484 L 589.402 306.162 L 590.748 280.624 L 591.079 274.491"/><path d = "M 583.62006 340.54364 A 1 0.072143555 -292.51144 0 0 584.04865 341.73593"/><path d = "M 584.04858 341.73587 A 6.0340576 5.7822266 -25.641724 0 0 587.84668 336.48392"/><path d = "M 574.14136 344.47141 A 1 0.029968262 -292.50546 0 0 574.59924 345.64243"/><path d = "M 574.599 345.642 L 584.049 341.736"/><path d = "M 550.93188 355.45328 A 1 0.072143555 -292.48853 0 0 550.39178 354.30719"/><path d = "M 574.59863 345.64258 A 18517.678 18517.678 0 0 0 550.93164 355.45313"/><path d = "M 550.932 355.453 L 550.168 355.715 L 549.36 355.878 L 548.517 355.934 L 547.671 355.874 L 546.814 355.69 L 545.969 355.373 L 545.162 354.917 L 544.533 354.425"/><path d = "M 449.30664 404.62012 A 3161.8674 3161.8674 0 0 0 454.11108 399.98462"/><path d = "M 454.78876 409.37836 A 1176.0706 1176.0706 0 0 0 458.80408 405.77795"/><path d = "M 449.306 404.62 L 449.315 405.316 L 449.431 405.984 L 449.641 406.594 L 449.926 407.134 L 450.265 407.603 L 450.83 408.167 L 451.453 408.609 L 452.225 408.987 L 453.044 409.239 L 453.9 409.37 L 454.789 409.379"/><path d = "M 485.45972 324.30225 A 3161.7107 3161.7107 0 0 0 485.34009 317.62653"/><path d = "M 485.34006 317.62646 A 145.48389 145.48389 0 0 0 449.30606 404.62021"/><path d = "M 485.34 317.626 L 485.835 317.143 L 486.392 316.751 L 486.821 316.531 L 487.255 316.368 L 487.655 316.265 L 488.048 316.204 L 488.498 316.178 L 488.934 316.197 L 489.376 316.258 L 489.802 316.357 L 490.255 316.507 L 490.691 316.694 L 491.472 317.151 L 492.188 317.732 L 492.582 318.139"/><path d = "M 492.87506 323.52405 A 1175.98 1175.98 0 0 0 492.5816 318.13861"/><path d = "M 531.08 379.173 L 521.242 402.922"/><path d = "M 521.242 402.922 L 518.922 399.447"/><path d = "M 516.854 406.129 L 469.24 408.635 L 454.789 409.379"/><path d = "M 516.854 406.129 L 514.497 402.62"/><path d = "M 521.242 402.922 L 520.945 403.53 L 520.565 404.108 L 520.099 404.644 L 519.566 405.111 L 518.952 405.513 L 518.263 405.831 L 517.513 406.044 L 516.854 406.129"/><path d = "M 530.908 370.51 L 535.005 369.694"/><path d = "M 531.08 379.173 L 535.005 369.694"/><path d = "M 530.022 365.137 L 534.171 364.324"/><path d = "M 534.171 364.324 L 500.812 327.259 L 492.582 318.139"/><path d = "M 534.171 364.324 L 534.569 364.838 L 534.89 365.392 L 535.133 365.97 L 535.333 366.733 L 535.412 367.489 L 535.385 368.222 L 535.246 368.981 L 535.005 369.694"/><path d = "M 517.18213 407.14847 A 1 0.31512451 -272.98322 0 0 516.85425 406.12872"/><path d = "M 455.18909 410.38113 A 1 0.40496826 -272.80798 0 0 454.7887 409.37863"/><path d = "M 517.182 407.148 L 493.303 408.378 L 461.507 410.04 L 455.189 410.381"/><path d = "M 449.306 404.62 L 448.924 404.596"/><path d = "M 448.924 404.596 L 448.93 405.363 L 449.044 406.109 L 449.255 406.804 L 449.548 407.435 L 449.903 407.995 L 450.186 408.351 L 450.489 408.673 L 450.862 409.007 L 451.253 409.3 L 451.982 409.728 L 452.75 410.046 L 453.551 410.262 L 454.379 410.374 L 455.189 410.381"/><path d = "M 485.053 317.374 L 485.34 317.626"/><path d = "M 485.0531 317.37366 A 145.86633 145.86633 0 0 0 448.92438 404.59607"/><path d = "M 492.58157 318.13861 A 1 0.40496826 -42.192017 0 0 493.57355 317.71289"/><path d = "M 485.053 317.374 L 485.597 316.837 L 486.207 316.389 L 486.683 316.124 L 487.169 315.917 L 487.667 315.762 L 488.161 315.661 L 488.652 315.607 L 489.129 315.599 L 490.01 315.691 L 490.839 315.906 L 491.618 316.228 L 492.323 316.634 L 492.977 317.129 L 493.574 317.713"/><path d = "M 534.17047 364.32364 A 1 0.31512451 -42.01672 0 0 535.12341 363.83441"/><path d = "M 535.123 363.834 L 514.786 341.298 L 497.676 322.284 L 493.574 317.713"/><path d = "M 535.00531 369.69366 A 1 0.072143555 -337.51144 0 0 536.15143 370.2337"/><path d = "M 536.15149 370.2337 A 6.0340576 5.7822266 -250.64171 0 0 535.12341 363.83441"/><path d = "M 531.08014 379.17374 A 1 0.029968262 -337.50592 0 0 532.23199 379.67801"/><path d = "M 532.232 379.678 L 536.151 370.234"/><path d = "M 522.43408 403.3504 A 1 0.072143555 -337.48853 0 0 521.24176 402.92184"/><path d = "M 532.23047 379.67725 A 18517.678 18517.678 0 0 0 522.43164 403.34961"/><path d = "M 522.434 403.35 L 522.078 404.076 L 521.623 404.762 L 521.066 405.398 L 520.426 405.954 L 519.69 406.43 L 518.868 406.803 L 517.975 407.051 L 517.182 407.148"/><path d = "M 449.306 422.983 L 449.314 422.292 L 449.431 421.621 L 449.579 421.162 L 449.771 420.739 L 449.98 420.384 L 450.214 420.063 L 450.515 419.726 L 450.837 419.431 L 451.192 419.162 L 451.564 418.931 L 451.99 418.716 L 452.43 418.541 L 453.306 418.311 L 454.222 418.216 L 454.789 418.225"/><path d = "M 458.80408 421.82565 A 1175.9792 1175.9792 0 0 0 454.78851 418.22507"/><path d = "M 454.11133 427.61938 A 3161.7107 3161.7107 0 0 0 449.30615 422.9834"/><path d = "M 485.34033 509.97705 A 3161.8674 3161.8674 0 0 0 485.45996 503.30203"/><path d = "M 449.30606 422.98325 A 145.48389 145.48389 0 0 0 485.34006 509.97699"/><path d = "M 492.5816 509.46484 A 1176.0337 1176.0337 0 0 0 492.87494 504.07928"/><path d = "M 485.34 509.977 L 485.838 510.463 L 486.393 510.853 L 486.972 511.135 L 487.556 511.317 L 488.128 511.408 L 488.926 511.408 L 489.678 511.279 L 490.492 511.001 L 491.249 510.6 L 491.947 510.087 L 492.582 509.465"/><path d = "M 525.17 434.16 L 535.005 457.91"/><path d = "M 530.908 457.093 L 535.005 457.91"/><path d = "M 534.171 463.28 L 500.812 500.345 L 492.582 509.465"/><path d = "M 530.022 462.466 L 534.171 463.28"/><path d = "M 535.005 457.91 L 535.226 458.55 L 535.365 459.227 L 535.415 459.935 L 535.369 460.643 L 535.219 461.361 L 534.956 462.073 L 534.576 462.754 L 534.171 463.28"/><path d = "M 518.922 428.156 L 521.242 424.682"/><path d = "M 525.17 434.16 L 521.242 424.682"/><path d = "M 514.497 424.983 L 516.854 421.475"/><path d = "M 516.854 421.475 L 469.24 418.969 L 454.789 418.225"/><path d = "M 516.854 421.475 L 517.5 421.557 L 518.119 421.722 L 518.699 421.959 L 519.379 422.357 L 519.971 422.835 L 520.47 423.373 L 520.908 424.008 L 521.242 424.682"/><path d = "M 454.7887 418.22491 A 1 0.40496826 -267.19202 0 0 455.18909 417.22241"/><path d = "M 516.85425 421.47479 A 1 0.31512451 -267.01678 0 0 517.18213 420.45505"/><path d = "M 517.182 420.455 L 493.303 419.226 L 461.507 417.564 L 455.189 417.222"/><path d = "M 521.24176 424.6817 A 1 0.072143555 -22.511442 0 0 522.43408 424.25314"/><path d = "M 522.43402 424.25314 A 6.0340576 5.7822266 -295.64172 0 0 517.18207 420.45511"/><path d = "M 525.16974 434.16058 A 1 0.029968262 -22.505882 0 0 526.34076 433.7027"/><path d = "M 526.341 433.703 L 522.434 424.253"/><path d = "M 536.15143 457.36981 A 1 0.072143555 -22.488529 0 0 535.00531 457.90985"/><path d = "M 526.33789 433.7041 A 18517.678 18517.678 0 0 0 536.14844 457.37109"/><path d = "M 535.12341 463.7691 A 1 0.31512451 -317.98322 0 0 534.17047 463.27988"/><path d = "M 536.151 457.37 L 536.413 458.134 L 536.576 458.941 L 536.632 459.785 L 536.572 460.631 L 536.389 461.487 L 536.071 462.333 L 535.615 463.14 L 535.123 463.769"/><path d = "M 493.57358 509.89063 A 1 0.40496826 -317.80786 0 0 492.5816 509.4649"/><path d = "M 535.123 463.769 L 519.105 481.526 L 500.08 502.637 L 493.574 509.891"/><path d = "M 485.34 509.977 L 485.053 510.23"/><path d = "M 485.053 510.23 L 485.6 510.768 L 486.208 511.215 L 486.848 511.557 L 487.501 511.796 L 488.148 511.941 L 488.6 511.993 L 489.042 512.006 L 489.542 511.979 L 490.026 511.91 L 490.844 511.696 L 491.612 511.379 L 492.33 510.965 L 492.995 510.458 L 493.574 509.891"/><path d = "M 449.306 422.983 L 448.924 423.007"/><path d = "M 448.92438 423.00739 A 145.86633 145.86633 0 0 0 485.0531 510.22983"/><path d = "M 448.924 423.007 L 448.93 422.243 L 449.044 421.495 L 449.193 420.971 L 449.39 420.481 L 449.633 420.019 L 449.911 419.598 L 450.22 419.214 L 450.552 418.87 L 451.239 418.313 L 451.978 417.878 L 452.756 417.555 L 453.542 417.344 L 454.355 417.232 L 455.189 417.222"/><path d = "M 498.32465 522.96155 A 145.48389 145.48389 0 0 0 585.31848 558.99561"/><path d = "M 505.0004 522.84253 A 3163.4333 3163.4333 0 0 0 498.32471 522.96216"/><path d = "M 504.22226 515.42688 A 1161.2905 1161.2905 0 0 0 498.83676 515.72034"/><path d = "M 498.837 515.72 L 498.303 516.252 L 497.848 516.831 L 497.472 517.453 L 497.179 518.115 L 496.977 518.82 L 496.881 519.571 L 496.915 520.365 L 496.996 520.792 L 497.127 521.225 L 497.395 521.814 L 497.77 522.379 L 498.325 522.962"/><path d = "M 585.3186 558.99561 A 3163.967 3163.967 0 0 0 580.68262 554.19043"/><path d = "M 590.07678 553.51318 A 1160.7986 1160.7986 0 0 0 586.47614 549.49768"/><path d = "M 585.318 558.996 L 586.014 558.987 L 586.682 558.871 L 587.292 558.661 L 587.833 558.376 L 588.302 558.036 L 588.866 557.471 L 589.307 556.848 L 589.685 556.075 L 589.937 555.257 L 590.069 554.401 L 590.077 553.513"/><path d = "M 559.872 477.221 L 559.959 477.258"/><path d = "M 559.959 477.258 L 583.62 487.06"/><path d = "M 580.146 489.38 L 583.62 487.06"/><path d = "M 586.827 491.447 L 589.442 541.145 L 590.077 553.513"/><path d = "M 583.318 493.805 L 586.827 491.447"/><path d = "M 583.62 487.06 L 584.228 487.356 L 584.806 487.736 L 585.342 488.202 L 585.809 488.735 L 586.211 489.349 L 586.529 490.039 L 586.742 490.789 L 586.827 491.447"/><path d = "M 551.208 477.394 L 550.392 473.296"/><path d = "M 559.872 477.221 L 550.392 473.296"/><path d = "M 545.836 478.279 L 545.022 474.131"/><path d = "M 545.022 474.131 L 508.028 507.426 L 498.837 515.72"/><path d = "M 545.022 474.131 L 545.536 473.733 L 546.091 473.411 L 546.669 473.169 L 547.431 472.969 L 548.187 472.889 L 548.921 472.917 L 549.679 473.056 L 550.392 473.296"/><path d = "M 498.07181 523.24854 A 145.86633 145.86633 0 0 0 585.29431 559.37732"/><path d = "M 498.411 514.728 L 497.817 515.337 L 497.315 516.005 L 496.905 516.726 L 496.592 517.497 L 496.382 518.329 L 496.296 519.213 L 496.307 519.674 L 496.359 520.145 L 496.514 520.83 L 496.775 521.52 L 497.134 522.169 L 497.565 522.738 L 498.072 523.249"/><path d = "M 544.533 473.178 L 526.749 489.221 L 507.307 506.749 L 498.411 514.728"/><path d = "M 550.93188 472.1503 A 6.0340576 5.7822266 -340.64175 0 0 544.53259 473.17834"/><path d = "M 560.376 476.07 L 550.932 472.15"/><path d = "M 560.376 476.07 L 560.463 476.106"/><path d = "M 498.83679 515.72009 A 1 0.40496826 -312.19189 0 0 498.41107 514.72815"/><path d = "M 545.02185 474.13116 A 1 0.31512451 -312.01682 0 0 544.53259 473.17828"/><path d = "M 550.39185 473.29633 A 1 0.072143555 -247.51146 0 0 550.93195 472.15024"/><path d = "M 584.04865 485.86761 A 1 0.072143555 -247.48851 0 0 583.62006 487.05991"/><path d = "M 560.4624 476.10742 A 18569.607 18569.607 0 0 0 584.05029 485.86914"/><path d = "M 587.84668 491.11957 A 1 0.31512451 -2.9831808 0 0 586.8269 491.44745"/><path d = "M 584.049 485.868 L 584.774 486.223 L 585.46 486.678 L 586.096 487.235 L 586.652 487.875 L 587.128 488.611 L 587.501 489.434 L 587.749 490.327 L 587.847 491.12"/><path d = "M 591.07935 553.11255 A 1 0.40496826 -2.8080606 0 0 590.0769 553.51294"/><path d = "M 587.847 491.12 L 589.077 515.027 L 590.431 541.176 L 591.079 553.113"/><path d = "M 585.318 558.996 L 585.294 559.377"/><path d = "M 585.294 559.377 L 586.061 559.371 L 586.808 559.257 L 587.502 559.046 L 588.133 558.754 L 588.694 558.398 L 589.05 558.115 L 589.372 557.812 L 589.706 557.439 L 589.999 557.048 L 590.426 556.318 L 590.745 555.55 L 590.96 554.749 L 591.072 553.92 L 591.079 553.113"/><path d = "M 498.072 523.249 L 498.325 522.962"/><path d = "M 690.67523 522.96167 A 3161.8674 3161.8674 0 0 0 683.99951 522.84204"/><path d = "M 690.16309 515.72046 A 1176.071 1176.071 0 0 0 684.77759 515.427"/><path d = "M 690.675 522.962 L 691.161 522.464 L 691.551 521.909 L 691.834 521.329 L 692.015 520.746 L 692.106 520.174 L 692.106 519.376 L 691.978 518.624 L 691.699 517.81 L 691.298 517.053 L 690.785 516.354 L 690.163 515.72"/><path d = "M 608.31738 554.19092 A 3161.7107 3161.7107 0 0 0 603.68188 558.99585"/><path d = "M 603.68146 558.99561 A 145.48389 145.48389 0 0 0 690.67523 522.96161"/><path d = "M 603.681 558.996 L 602.99 558.987 L 602.319 558.871 L 601.86 558.723 L 601.438 558.531 L 601.082 558.322 L 600.761 558.087 L 600.424 557.787 L 600.129 557.465 L 599.86 557.109 L 599.629 556.738 L 599.414 556.312 L 599.239 555.871 L 599.009 554.996 L 598.914 554.079 L 598.923 553.513"/><path d = "M 602.52386 549.49768 A 1175.9795 1175.9795 0 0 0 598.9234 553.51318"/><path d = "M 614.858 483.132 L 638.608 473.296"/><path d = "M 638.608 473.296 L 637.792 477.394"/><path d = "M 643.978 474.131 L 681.043 507.49 L 690.163 515.72"/><path d = "M 643.978 474.131 L 643.164 478.279"/><path d = "M 638.608 473.296 L 639.248 473.076 L 639.925 472.936 L 640.634 472.887 L 641.341 472.933 L 642.059 473.083 L 642.771 473.346 L 643.453 473.726 L 643.978 474.131"/><path d = "M 608.854 489.38 L 605.38 487.06"/><path d = "M 614.858 483.132 L 605.38 487.06"/><path d = "M 605.682 493.805 L 602.173 491.447"/><path d = "M 602.173 491.447 L 599.667 539.062 L 598.923 553.513"/><path d = "M 602.173 491.447 L 602.255 490.802 L 602.42 490.183 L 602.657 489.603 L 603.055 488.922 L 603.533 488.331 L 604.071 487.832 L 604.706 487.394 L 605.38 487.06"/><path d = "M 601.153 491.12 L 599.924 514.999 L 598.262 546.794 L 597.921 553.113"/><path d = "M 604.95129 485.86761 A 6.0340576 5.7822266 -25.641724 0 0 601.1532 491.1196"/><path d = "M 614.401 481.961 L 604.951 485.868"/><path d = "M 614.39697 481.96289 A 18517.678 18517.678 0 0 0 638.06787 472.15039"/><path d = "M 638.068 472.15 L 638.832 471.889 L 639.64 471.726 L 640.483 471.67 L 641.329 471.729 L 642.185 471.913 L 643.031 472.231 L 643.838 472.687 L 644.467 473.178"/><path d = "M 644.467 473.178 L 662.225 489.197 L 683.335 508.221 L 690.589 514.728"/><path d = "M 690.928 523.249 L 691.466 522.702 L 691.913 522.094 L 692.255 521.453 L 692.495 520.801 L 692.639 520.153 L 692.691 519.701 L 692.704 519.259 L 692.677 518.76 L 692.608 518.276 L 692.395 517.458 L 692.077 516.69 L 691.663 515.971 L 691.156 515.306 L 690.589 514.728"/><path d = "M 603.70563 559.37732 A 145.86633 145.86633 0 0 0 690.92804 523.24854"/><path d = "M 603.706 559.377 L 602.941 559.372 L 602.193 559.258 L 601.669 559.109 L 601.179 558.912 L 600.717 558.669 L 600.296 558.391 L 599.912 558.082 L 599.568 557.75 L 599.011 557.062 L 598.576 556.324 L 598.253 555.546 L 598.042 554.76 L 597.93 553.947 L 597.921 553.113"/><path d = "M 598.92303 553.51306 A 1 0.40496826 -357.19202 0 0 597.92059 553.11267"/><path d = "M 602.17297 491.44745 A 1 0.31512451 -357.01678 0 0 601.1532 491.11957"/><path d = "M 605.37982 487.05991 A 1 0.072143555 -292.51144 0 0 604.95123 485.86761"/><path d = "M 614.85852 483.13208 A 1 0.029968262 -292.50549 0 0 614.40063 481.96106"/><path d = "M 638.06799 472.15024 A 1 0.072143555 -292.48853 0 0 638.60809 473.29633"/><path d = "M 644.46729 473.17828 A 1 0.31512451 -227.98323 0 0 643.97803 474.13116"/><path d = "M 690.58875 514.72815 A 1 0.40496826 -227.80785 0 0 690.16302 515.72009"/><path d = "M 690.675 522.962 L 690.928 523.249"/><path d = "M 603.681 558.996 L 603.706 559.377"/></g><g fill = "none" stroke = "rgb(0, 0, 0)" stroke-width = "0.35" stroke-linecap = "butt" stroke-linejoin = "miter"><path d = "M 680.44336 256.48328 A 179.26337 179.26337 0 0 0 508.55652 571.12012"/><path d = "M 508.55652 571.12012 A 179.26337 179.26337 0 0 0 680.44342 256.48334"/></g><g fill = "none" stroke = "rgb(0, 0, 0)" stroke-width = "0.13" stroke-linecap = "butt" stroke-linejoin = "miter"><path d = "M 596.895 601.417 L 596.018 604.397 L 595.115 601.417 L 594.636 601.417 L 595.766 604.922 L 596.27 604.922 L 597.375 601.417 L 596.895 601.417 L 596.895 601.417 z M 600.098 602.214 L 599.654 602.214 L 599.654 603.777 L 599.604 604.14 L 599.457 604.402 L 599.23 604.564 L 598.933 604.614 L 598.696 604.574 L 598.545 604.453 L 598.459 604.246 L 598.439 603.953 L 598.439 602.214 L 597.995 602.214 L 597.995 603.994 L 598.01 604.352 L 598.106 604.649 L 598.398 604.922 L 598.867 605.018 L 599.12 604.982 L 599.336 604.892 L 599.523 604.735 L 599.674 604.508 L 599.674 604.922 L 600.098 604.922 L 600.098 602.214 L 600.098 602.214 z M 601.434 603.696 L 603.21 603.696 L 603.215 603.49 L 603.134 602.91 L 602.912 602.476 L 602.559 602.214 L 602.09 602.118 L 601.631 602.219 L 601.278 602.501 L 601.051 602.96 L 600.97 603.565 L 601.046 604.185 L 601.273 604.639 L 601.621 604.922 L 602.075 605.018 L 602.468 604.952 L 602.791 604.781 L 603.028 604.508 L 603.164 604.145 L 602.725 604.145 L 602.635 604.347 L 602.504 604.498 L 602.13 604.619 L 601.843 604.564 L 601.626 604.387 L 601.485 604.1 L 601.434 603.711 L 601.434 603.696 L 601.434 603.696 z M 601.434 603.323 L 601.49 602.975 L 601.626 602.718 L 601.833 602.562 L 602.105 602.506 L 602.372 602.562 L 602.579 602.718 L 602.705 602.975 L 602.751 603.323 L 601.434 603.323 L 601.434 603.323 z M 608.782 604.503 L 608.782 604.922 L 609.226 604.922 L 609.226 601.301 L 608.787 601.301 L 608.787 602.627 L 608.449 602.244 L 608.243 602.153 L 608.006 602.118 L 607.577 602.219 L 607.244 602.501 L 607.027 602.955 L 606.952 603.565 L 607.027 604.175 L 607.244 604.634 L 607.577 604.922 L 608.006 605.018 L 608.243 604.982 L 608.454 604.892 L 608.782 604.503 L 608.782 604.503 z M 608.081 602.516 L 608.374 602.587 L 608.596 602.783 L 608.727 603.111 L 608.777 603.565 L 608.727 604.024 L 608.596 604.352 L 608.374 604.554 L 608.081 604.619 L 607.804 604.554 L 607.592 604.352 L 607.451 604.019 L 607.406 603.565 L 607.451 603.116 L 607.592 602.789 L 607.804 602.587 L 608.081 602.516 L 608.081 602.516 z M 610.542 603.696 L 612.318 603.696 L 612.323 603.49 L 612.242 602.91 L 612.02 602.476 L 611.667 602.214 L 611.198 602.118 L 610.739 602.219 L 610.386 602.501 L 610.159 602.96 L 610.078 603.565 L 610.154 604.185 L 610.381 604.639 L 610.729 604.922 L 611.183 605.018 L 611.576 604.952 L 611.899 604.781 L 612.136 604.508 L 612.272 604.145 L 611.833 604.145 L 611.743 604.347 L 611.612 604.498 L 611.238 604.619 L 610.951 604.564 L 610.734 604.387 L 610.593 604.1 L 610.542 603.711 L 610.542 603.696 L 610.542 603.696 z M 610.542 603.323 L 610.598 602.975 L 610.734 602.718 L 610.941 602.562 L 611.213 602.506 L 611.48 602.562 L 611.687 602.718 L 611.813 602.975 L 611.859 603.323 L 610.542 603.323 L 610.542 603.323 z M 616.841 602.683 L 616.841 604.922 L 617.285 604.922 L 617.285 602.683 L 618.294 602.683 L 618.294 602.304 L 617.285 602.304 L 617.285 602.138 L 617.32 601.936 L 617.436 601.8 L 617.633 601.719 L 617.916 601.689 L 618.294 601.709 L 618.294 601.326 L 617.815 601.301 L 617.381 601.346 L 617.078 601.482 L 616.897 601.719 L 616.841 602.057 L 616.841 602.304 L 616.029 602.304 L 616.029 602.683 L 616.841 602.683 L 616.841 602.683 z M 620.871 604.569 L 620.871 604.584 L 620.896 604.755 L 620.972 604.876 L 621.289 604.972 L 621.537 604.932 L 621.537 604.589 L 621.431 604.604 L 621.289 604.539 L 621.264 604.337 L 621.264 602.935 L 621.204 602.577 L 621.027 602.325 L 620.72 602.173 L 620.286 602.118 L 619.862 602.178 L 619.55 602.35 L 619.353 602.617 L 619.287 602.97 L 619.287 603 L 619.686 603 L 619.721 602.789 L 619.832 602.637 L 620.014 602.546 L 620.271 602.511 L 620.518 602.536 L 620.694 602.612 L 620.8 602.743 L 620.836 602.925 L 620.815 603.136 L 620.735 603.242 L 620.533 603.293 L 620.155 603.333 L 619.721 603.424 L 619.413 603.585 L 619.232 603.838 L 619.176 604.211 L 619.227 604.544 L 619.383 604.791 L 619.635 604.947 L 619.983 605.003 L 620.452 604.897 L 620.871 604.569 L 620.871 604.569 z M 620.82 603.974 L 620.76 604.236 L 620.599 604.438 L 620.356 604.569 L 620.059 604.614 L 619.867 604.589 L 619.731 604.508 L 619.645 604.367 L 619.62 604.17 L 619.64 603.994 L 619.721 603.868 L 620.044 603.727 L 620.452 603.666 L 620.82 603.545 L 620.82 603.974 L 620.82 603.974 z M 624.023 603.111 L 624.462 603.111 L 624.371 602.708 L 624.154 602.39 L 623.816 602.193 L 623.377 602.118 L 622.893 602.219 L 622.525 602.501 L 622.293 602.96 L 622.212 603.575 L 622.288 604.185 L 622.515 604.639 L 622.873 604.922 L 623.362 605.018 L 623.796 604.942 L 624.134 604.73 L 624.366 604.397 L 624.467 603.953 L 624.043 603.953 L 623.967 604.236 L 623.826 604.448 L 623.624 604.579 L 623.377 604.619 L 623.07 604.554 L 622.848 604.352 L 622.712 604.024 L 622.666 603.56 L 622.712 603.106 L 622.853 602.778 L 623.08 602.577 L 623.377 602.506 L 623.64 602.552 L 623.836 602.667 L 623.967 602.859 L 624.023 603.111 L 624.023 603.111 z M 625.722 603.696 L 627.498 603.696 L 627.503 603.49 L 627.422 602.91 L 627.2 602.476 L 626.847 602.214 L 626.378 602.118 L 625.919 602.219 L 625.566 602.501 L 625.339 602.96 L 625.258 603.565 L 625.334 604.185 L 625.561 604.639 L 625.909 604.922 L 626.363 605.018 L 626.756 604.952 L 627.079 604.781 L 627.316 604.508 L 627.452 604.145 L 627.013 604.145 L 626.923 604.347 L 626.792 604.498 L 626.418 604.619 L 626.131 604.564 L 625.914 604.387 L 625.773 604.1 L 625.722 603.711 L 625.722 603.696 L 625.722 603.696 z M 625.722 603.323 L 625.778 602.975 L 625.914 602.718 L 626.121 602.562 L 626.393 602.506 L 626.66 602.562 L 626.867 602.718 L 626.993 602.975 L 627.039 603.323 L 625.722 603.323 L 625.722 603.323 z" fill = "rgb(0, 0, 0)" stroke = "none" fill-rule = "nonzero"/></g><g fill = "none" stroke = "rgb(0, 0, 0)" stroke-width = "0.13" stroke-linecap = "butt" stroke-linejoin = "miter"><path d = "M 594.959 610.969 L 597.178 610.969 L 597.178 610.545 L 595.423 610.545 L 595.423 609.36 L 596.986 609.36 L 596.986 608.941 L 595.423 608.941 L 595.423 607.892 L 597.138 607.892 L 597.138 607.469 L 594.959 607.469 L 594.959 610.969 L 594.959 610.969 z M 599.735 609.158 L 600.174 609.158 L 600.083 608.755 L 599.866 608.437 L 599.528 608.24 L 599.089 608.165 L 598.605 608.266 L 598.237 608.548 L 598.005 609.007 L 597.924 609.622 L 598 610.232 L 598.227 610.686 L 598.585 610.969 L 599.074 611.064 L 599.508 610.989 L 599.846 610.777 L 600.078 610.444 L 600.179 610 L 599.755 610 L 599.679 610.283 L 599.538 610.495 L 599.336 610.626 L 599.089 610.666 L 598.782 610.6 L 598.56 610.399 L 598.424 610.071 L 598.378 609.607 L 598.424 609.153 L 598.565 608.825 L 598.792 608.624 L 599.089 608.553 L 599.352 608.598 L 599.548 608.714 L 599.679 608.906 L 599.735 609.158 L 599.735 609.158 z M 601.046 610.969 L 601.49 610.969 L 601.49 609.405 L 601.535 609.047 L 601.681 608.785 L 601.908 608.624 L 602.211 608.563 L 602.453 608.613 L 602.604 608.75 L 602.68 608.977 L 602.705 609.279 L 602.705 610.969 L 603.149 610.969 L 603.149 609.188 L 603.129 608.83 L 603.038 608.533 L 602.741 608.26 L 602.277 608.165 L 602.024 608.2 L 601.808 608.296 L 601.626 608.447 L 601.49 608.654 L 601.49 607.348 L 601.046 607.348 L 601.046 610.969 L 601.046 610.969 z M 604.47 609.743 L 606.246 609.743 L 606.251 609.536 L 606.17 608.956 L 605.948 608.523 L 605.595 608.26 L 605.126 608.165 L 604.667 608.266 L 604.314 608.548 L 604.087 609.007 L 604.006 609.612 L 604.082 610.232 L 604.309 610.686 L 604.657 610.969 L 605.111 611.064 L 605.504 610.999 L 605.827 610.827 L 606.064 610.555 L 606.2 610.192 L 605.761 610.192 L 605.671 610.394 L 605.54 610.545 L 605.166 610.666 L 604.879 610.611 L 604.662 610.434 L 604.521 610.147 L 604.47 609.758 L 604.47 609.743 L 604.47 609.743 z M 604.47 609.37 L 604.526 609.022 L 604.662 608.765 L 604.869 608.608 L 605.141 608.553 L 605.408 608.608 L 605.615 608.765 L 605.741 609.022 L 605.787 609.37 L 604.47 609.37 L 604.47 609.37 z M 608.001 607.721 L 608.001 610.595 L 607.088 610.595 L 607.088 610.969 L 609.352 610.969 L 609.352 610.595 L 608.444 610.595 L 608.444 607.348 L 607.305 607.348 L 607.305 607.721 L 608.001 607.721 L 608.001 607.721 z M 611.037 607.721 L 611.037 610.595 L 610.124 610.595 L 610.124 610.969 L 612.388 610.969 L 612.388 610.595 L 611.48 610.595 L 611.48 607.348 L 610.341 607.348 L 610.341 607.721 L 611.037 607.721 L 611.037 607.721 z M 613.578 609.743 L 615.354 609.743 L 615.359 609.536 L 615.278 608.956 L 615.056 608.523 L 614.703 608.26 L 614.234 608.165 L 613.775 608.266 L 613.422 608.548 L 613.195 609.007 L 613.114 609.612 L 613.19 610.232 L 613.417 610.686 L 613.765 610.969 L 614.219 611.064 L 614.612 610.999 L 614.935 610.827 L 615.172 610.555 L 615.308 610.192 L 614.869 610.192 L 614.779 610.394 L 614.648 610.545 L 614.274 610.666 L 613.987 610.611 L 613.77 610.434 L 613.629 610.147 L 613.578 609.758 L 613.578 609.743 L 613.578 609.743 z M 613.578 609.37 L 613.634 609.022 L 613.77 608.765 L 613.977 608.608 L 614.249 608.553 L 614.516 608.608 L 614.723 608.765 L 614.849 609.022 L 614.895 609.37 L 613.578 609.37 L 613.578 609.37 z M 619.958 610.969 L 620.654 610.969 L 620.654 610.217 L 619.958 610.217 L 619.958 610.969 L 619.958 610.969 z M 619.958 609.012 L 620.654 609.012 L 620.654 608.26 L 619.958 608.26 L 619.958 609.012 L 619.958 609.012 z" fill = "rgb(0, 0, 0)" stroke = "none" fill-rule = "nonzero"/></g><g fill = "none" stroke = "rgb(0, 0, 0)" stroke-width = "0.13" stroke-linecap = "butt" stroke-linejoin = "miter"><path d = "M 629.323 610.969 L 629.782 610.969 L 629.782 607.443 L 629.439 607.443 L 629.349 607.751 L 629.167 607.958 L 628.89 608.079 L 628.506 608.119 L 628.506 608.477 L 629.323 608.477 L 629.323 610.969 L 629.323 610.969 z M 632.102 610.969 L 632.798 610.969 L 632.798 610.217 L 632.102 610.217 L 632.102 610.969 L 632.102 610.969 z M 632.102 609.012 L 632.798 609.012 L 632.798 608.26 L 632.102 608.26 L 632.102 609.012 L 632.102 609.012 z M 635.395 610.969 L 635.854 610.969 L 635.854 607.443 L 635.511 607.443 L 635.421 607.751 L 635.239 607.958 L 634.962 608.079 L 634.578 608.119 L 634.578 608.477 L 635.395 608.477 L 635.395 610.969 L 635.395 610.969 z" fill = "rgb(0, 0, 0)" stroke = "none" fill-rule = "nonzero"/></g></svg>
